<?xml version="1.0" standalone="no"?>
<!DOCTYPE svg PUBLIC "-//W3C//DTD SVG 1.1//EN" "http://www.w3.org/Graphics/SVG/1.1/DTD/svg11.dtd" >
<svg xmlns="http://www.w3.org/2000/svg">
<metadata></metadata>
<defs>
<font id="db_helvethaicaais_x55_regular" horiz-adv-x="0" >
<font-face units-per-em="2048" ascent="1638" descent="-410" />
<missing-glyph horiz-adv-x="508" />
<glyph unicode="&#x2b;&#x2d;" horiz-adv-x="1216" d="M85 79q0 16 5.5 30.5t16 25.5t25 17t32.5 6h890q16 0 30.5 -6t25.5 -17t17 -25.5t6 -30.5q0 -18 -6 -31.5t-17 -24.5t-25.5 -17t-30.5 -6h-890q-18 0 -32.5 6t-25 17t-16 24.5t-5.5 31.5zM85 797q0 16 5.5 30t16 25.5t25 17.5t32.5 6h367v371q0 16 6 30t16.5 25.5 t25 17.5t31.5 6q16 0 30 -6t25.5 -17.5t17.5 -26.5t6 -29v-371h365q16 0 30.5 -6t25.5 -17.5t17 -26t6 -29.5q0 -17 -6 -32t-17 -25t-25.5 -16t-30.5 -6h-365v-368q0 -17 -6 -31t-17.5 -25t-26 -16.5t-29.5 -5.5q-17 0 -31.5 5.5t-25 16.5t-16.5 25t-6 31v368h-367 q-18 0 -32.5 6t-25 16t-16 25t-5.5 32z" />
<glyph unicode="&#x3c;&#x3d;" horiz-adv-x="1227" d="M58 73q0 -31 20.5 -52t52.5 -21h936q31 0 51.5 20.5t20.5 52.5q0 31 -20.5 52t-51.5 21h-936q-30 0 -51.5 -22t-21.5 -51zM58 809q0 25 15 46t35 30l885 407q23 12 45 17t41 2t33 -15q14 -14 21 -37q6 -19 3 -34.5t-12 -28.5t-22 -23.5t-27 -16.5l-789 -347l786 -346 q17 -7 31.5 -17.5t23.5 -23.5t12 -30q3 -15 -6 -36q-9 -23 -25 -34t-35 -13t-39.5 2t-37.5 13l-886 409q-21 10 -36.5 30.5t-15.5 45.5z" />
<glyph unicode="&#x3e;&#x3d;" horiz-adv-x="1227" d="M89 73q0 -31 21 -52t51 -21h937q31 0 52 20.5t21 52.5q0 31 -21 52t-52 21h-937q-31 0 -51.5 -22t-20.5 -51zM90 393q2 16 11.5 29t24 23.5t30.5 17.5l786 346l-789 347q-14 6 -27.5 16.5t-21.5 23.5t-10.5 29t2.5 34q8 23 21.5 36t32 16t41 -3t46.5 -16l883 -407 q20 -10 34.5 -30.5t14.5 -45.5t-14 -46q-16 -21 -37 -30l-884 -409q-19 -9 -39 -13t-39 -2t-35 13t-25 34q-8 21 -6 37z" />
<glyph unicode="&#xe4f;&#x22;" horiz-adv-x="1480" d="M91 610q0 -89 22.5 -171.5t64.5 -154t101.5 -130t131.5 -100t154.5 -64t173.5 -22.5q87 0 169 22.5t153.5 64t130 100t99.5 130t64 154t23 171.5t-23 171.5t-64 153.5t-99.5 130t-130 100t-153.5 64.5t-169 23.5q-91 0 -173.5 -23.5t-154.5 -64.5t-131.5 -100 t-101.5 -130t-64.5 -153.5t-22.5 -171.5zM257 616q0 66 17.5 126.5t48 113t74.5 96.5t97.5 74.5t115.5 48t129 17.5q64 0 125.5 -17.5t114 -48t96 -74.5t74.5 -96.5t48.5 -113t17.5 -126.5t-17.5 -127t-48.5 -114.5t-74.5 -98t-96 -76t-114 -49t-125.5 -17.5 q-67 0 -129 17.5t-115.5 49t-97.5 76t-74.5 98t-48 114.5t-17.5 127zM394 616q0 -70 28 -133t74.5 -109t109.5 -73t133 -27q68 0 129 27t106 73t72 109t27 133q0 69 -27 130t-72 107t-106 74t-129 28q-70 0 -133 -28t-109.5 -74t-74.5 -107t-28 -130zM491 1504v191 q0 39 23 65.5t61 26.5q40 0 64 -26.5t24 -65.5v-191q0 -40 -23.5 -65.5t-64.5 -25.5q-39 0 -61.5 26.5t-22.5 64.5zM540 616q0 40 15.5 74t41.5 60.5t62 41.5t80 15q39 0 73.5 -15t60 -41.5t40 -60.5t14.5 -74q0 -41 -14.5 -77.5t-40 -62.5t-60 -42t-73.5 -16q-44 0 -80 16 t-62 42t-41.5 62.5t-15.5 77.5zM818 1504v191q0 39 23 65.5t63 26.5q39 0 62.5 -26.5t23.5 -65.5v-191q0 -40 -23.5 -65.5t-62.5 -25.5q-40 0 -63 26.5t-23 64.5z" />
<glyph unicode="&#xe0e;&#xe3a;" horiz-adv-x="1309" d="M50 76q0 16 5.5 30t16 24t25 16t29.5 6h65v511q0 39 -8 79.5t-33 75.5q-14 20 -25 33t-17 24t-5 25t9 36q24 61 67 119t107 101.5t153.5 70t202.5 26.5q104 0 185 -20t141.5 -54t102.5 -82.5t68 -105.5t37 -120.5t11 -128.5v-1027q0 -26 -9.5 -49.5t-27 -40t-41 -27 t-49.5 -10.5q-29 0 -52.5 12t-43.5 31q-62 58 -129 85t-149 27q-41 0 -76 -11.5t-67 -31.5t-60 -45q-27 -23 -54 -49q-10 -10 -24 -15.5t-29 -4t-29 7.5t-24 18q-21 26 -18 53q5 25 25 52q29 35 68 67t85.5 57t98.5 39.5t104 14.5q91 0 164 -23.5t137 -68.5v962 q0 57 -17.5 113t-57 101.5t-105.5 73.5q-68 27 -165 30q-57 0 -103.5 -10t-83.5 -27.5t-65.5 -41t-47.5 -47t-30 -46.5t-13 -41q21 -12 37.5 -33t28.5 -48t18 -60q5 -34 5 -69v-584q0 -16 -5.5 -30t-16 -24t-25 -16t-29.5 -6h-186q-16 0 -30 6t-24.5 16t-16 24t-5.5 30z M939 -613q0 29 11.5 55.5t31.5 46t46 30.5t58 11q29 0 55 -11t45.5 -30.5t31 -46t11.5 -55.5t-11.5 -56t-31 -47t-45.5 -31.5t-55 -11.5q-30 0 -57 11.5t-47 31.5t-31.5 47t-11.5 56z" />
<glyph unicode="&#xe0f;&#xe3a;" horiz-adv-x="1309" d="M50 76q0 16 5.5 30t16 24t25 16t29.5 6h65v511q0 39 -8 79.5t-33 75.5q-14 20 -25 33t-17 24t-5 25t9 36q24 61 67 119t107 101.5t153.5 70t202.5 26.5q104 0 185 -20t141.5 -54t102.5 -82.5t68 -105.5t37 -120.5t11 -128.5v-1040q0 -23 -9.5 -44.5t-24 -36.5t-35.5 -24 q-23 -9 -46 -9q-34 0 -61 17.5t-42 44.5q-8 17 -20 33t-28.5 29.5t-38 20.5t-47.5 7t-48.5 -7t-39.5 -20.5t-28.5 -29.5t-19.5 -33q-10 -27 -33.5 -44.5t-53.5 -17.5q-31 0 -54.5 17.5t-33.5 44.5q-6 16 -15.5 32.5t-24.5 30t-36.5 22t-50.5 8.5q-26 0 -44.5 -7.5t-32 -19.5 t-24 -29t-14.5 -34q-6 -18 -17.5 -32.5t-27 -22.5t-33.5 -10q-20 -3 -37.5 3t-30.5 17.5t-22 27t-11 33.5q-4 19 2 36q15 50 40.5 86.5t59.5 59.5t76.5 35t90.5 12q79 0 138 -34.5t92 -100.5q17 33 40.5 57t51 39t57 22.5t53.5 7.5q38 0 66.5 -8.5t52 -22t39 -28t25.5 -27.5 v962q0 57 -17.5 113t-57 101.5t-105.5 73.5q-68 27 -165 30q-57 0 -103.5 -10t-83.5 -27.5t-65.5 -41t-47.5 -47t-30 -46.5t-13 -41q21 -12 37.5 -33t28.5 -48t18 -60q5 -34 5 -69v-584q0 -16 -5.5 -30t-16 -24t-25 -16t-29.5 -6h-186q-16 0 -30 6t-24.5 16t-16 24t-5.5 30z M939 -613q0 29 11.5 55.5t31.5 46t46 30.5t58 11q29 0 55 -11t45.5 -30.5t31 -46t11.5 -55.5t-11.5 -56t-31 -47t-45.5 -31.5t-55 -11.5q-30 0 -57 11.5t-47 31.5t-31.5 47t-11.5 56z" />
<glyph unicode="&#xe0e;&#xe38;" horiz-adv-x="1309" d="M50 76q0 16 5.5 30t16 24t25 16t29.5 6h65v511q0 39 -8 79.5t-33 75.5q-14 20 -25 33t-17 24t-5 25t9 36q24 61 67 119t107 101.5t153.5 70t202.5 26.5q104 0 185 -20t141.5 -54t102.5 -82.5t68 -105.5t37 -120.5t11 -128.5v-1027q0 -26 -9.5 -49.5t-27 -40t-41 -27 t-49.5 -10.5q-29 0 -52.5 12t-43.5 31q-62 58 -129 85t-149 27q-41 0 -76 -11.5t-67 -31.5t-60 -45q-27 -23 -54 -49q-10 -10 -24 -15.5t-29 -4t-29 7.5t-24 18q-21 26 -18 53q5 25 25 52q29 35 68 67t85.5 57t98.5 39.5t104 14.5q91 0 164 -23.5t137 -68.5v962 q0 57 -17.5 113t-57 101.5t-105.5 73.5q-68 27 -165 30q-57 0 -103.5 -10t-83.5 -27.5t-65.5 -41t-47.5 -47t-30 -46.5t-13 -41q21 -12 37.5 -33t28.5 -48t18 -60q5 -34 5 -69v-584q0 -16 -5.5 -30t-16 -24t-25 -16t-29.5 -6h-186q-16 0 -30 6t-24.5 16t-16 24t-5.5 30z M870 -555q0 15 6 29t16 23.5t23.5 15t27.5 5.5h170q14 0 28 -5.5t24 -15t16 -23.5t6 -29v-283q0 -20 -7.5 -38t-19.5 -31t-29.5 -19.5t-38.5 -6.5q-20 0 -36 6.5t-29.5 19.5t-20.5 30q-7 19 -7 39v210h-56q-14 0 -27.5 6t-23.5 16t-16 23.5t-6 27.5z" />
<glyph unicode="&#xe0f;&#xe38;" horiz-adv-x="1309" d="M50 76q0 16 5.5 30t16 24t25 16t29.5 6h65v511q0 39 -8 79.5t-33 75.5q-14 20 -25 33t-17 24t-5 25t9 36q24 61 67 119t107 101.5t153.5 70t202.5 26.5q104 0 185 -20t141.5 -54t102.5 -82.5t68 -105.5t37 -120.5t11 -128.5v-1040q0 -23 -9.5 -44.5t-24 -36.5t-35.5 -24 q-23 -9 -46 -9q-34 0 -61 17.5t-42 44.5q-8 17 -20 33t-28.5 29.5t-38 20.5t-47.5 7t-48.5 -7t-39.5 -20.5t-28.5 -29.5t-19.5 -33q-10 -27 -33.5 -44.5t-53.5 -17.5q-31 0 -54.5 17.5t-33.5 44.5q-6 16 -15.5 32.5t-24.5 30t-36.5 22t-50.5 8.5q-26 0 -44.5 -7.5t-32 -19.5 t-24 -29t-14.5 -34q-6 -18 -17.5 -32.5t-27 -22.5t-33.5 -10q-20 -3 -37.5 3t-30.5 17.5t-22 27t-11 33.5q-4 19 2 36q15 50 40.5 86.5t59.5 59.5t76.5 35t90.5 12q79 0 138 -34.5t92 -100.5q17 33 40.5 57t51 39t57 22.5t53.5 7.5q38 0 66.5 -8.5t52 -22t39 -28t25.5 -27.5 v962q0 57 -17.5 113t-57 101.5t-105.5 73.5q-68 27 -165 30q-57 0 -103.5 -10t-83.5 -27.5t-65.5 -41t-47.5 -47t-30 -46.5t-13 -41q21 -12 37.5 -33t28.5 -48t18 -60q5 -34 5 -69v-584q0 -16 -5.5 -30t-16 -24t-25 -16t-29.5 -6h-186q-16 0 -30 6t-24.5 16t-16 24t-5.5 30z M870 -555q0 15 6 29t16 23.5t23.5 15t27.5 5.5h170q14 0 28 -5.5t24 -15t16 -23.5t6 -29v-283q0 -20 -7.5 -38t-19.5 -31t-29.5 -19.5t-38.5 -6.5q-20 0 -36 6.5t-29.5 19.5t-20.5 30q-7 19 -7 39v210h-56q-14 0 -27.5 6t-23.5 16t-16 23.5t-6 27.5z" />
<glyph unicode="&#xe0e;&#xe39;" horiz-adv-x="1309" d="M50 76q0 16 5.5 30t16 24t25 16t29.5 6h65v511q0 39 -8 79.5t-33 75.5q-14 20 -25 33t-17 24t-5 25t9 36q24 61 67 119t107 101.5t153.5 70t202.5 26.5q104 0 185 -20t141.5 -54t102.5 -82.5t68 -105.5t37 -120.5t11 -128.5v-1027q0 -26 -9.5 -49.5t-27 -40t-41 -27 t-49.5 -10.5q-29 0 -52.5 12t-43.5 31q-62 58 -129 85t-149 27q-41 0 -76 -11.5t-67 -31.5t-60 -45q-27 -23 -54 -49q-10 -10 -24 -15.5t-29 -4t-29 7.5t-24 18q-21 26 -18 53q5 25 25 52q29 35 68 67t85.5 57t98.5 39.5t104 14.5q91 0 164 -23.5t137 -68.5v962 q0 57 -17.5 113t-57 101.5t-105.5 73.5q-68 27 -165 30q-57 0 -103.5 -10t-83.5 -27.5t-65.5 -41t-47.5 -47t-30 -46.5t-13 -41q21 -12 37.5 -33t28.5 -48t18 -60q5 -34 5 -69v-584q0 -16 -5.5 -30t-16 -24t-25 -16t-29.5 -6h-186q-16 0 -30 6t-24.5 16t-16 24t-5.5 30z M432 -555q0 15 6 29t16 23.5t23.5 15t29.5 5.5h173q15 0 28 -5.5t23.5 -15t16.5 -23.5q5 -14 5 -29v-73q0 -70 29.5 -105t93.5 -35q123 0 123 140v67q0 21 7 37.5t20.5 29t29.5 20.5q16 7 36 7q21 0 38.5 -7.5t29.5 -20t19.5 -29t7.5 -37.5v-67q0 -58 -16 -111.5t-53.5 -93 t-96.5 -62t-145 -22.5q-85 0 -144.5 20.5t-97.5 58.5t-55 92t-17 118h-55q-15 0 -29 6t-24 16t-16 23.5t-6 27.5z" />
<glyph unicode="&#xe0f;&#xe39;" horiz-adv-x="1309" d="M50 76q0 16 5.5 30t16 24t25 16t29.5 6h65v511q0 39 -8 79.5t-33 75.5q-14 20 -25 33t-17 24t-5 25t9 36q24 61 67 119t107 101.5t153.5 70t202.5 26.5q104 0 185 -20t141.5 -54t102.5 -82.5t68 -105.5t37 -120.5t11 -128.5v-1040q0 -23 -9.5 -44.5t-24 -36.5t-35.5 -24 q-23 -9 -46 -9q-34 0 -61 17.5t-42 44.5q-8 17 -20 33t-28.5 29.5t-38 20.5t-47.5 7t-48.5 -7t-39.5 -20.5t-28.5 -29.5t-19.5 -33q-10 -27 -33.5 -44.5t-53.5 -17.5q-31 0 -54.5 17.5t-33.5 44.5q-6 16 -15.5 32.5t-24.5 30t-36.5 22t-50.5 8.5q-26 0 -44.5 -7.5t-32 -19.5 t-24 -29t-14.5 -34q-6 -18 -17.5 -32.5t-27 -22.5t-33.5 -10q-20 -3 -37.5 3t-30.5 17.5t-22 27t-11 33.5q-4 19 2 36q15 50 40.5 86.5t59.5 59.5t76.5 35t90.5 12q79 0 138 -34.5t92 -100.5q17 33 40.5 57t51 39t57 22.5t53.5 7.5q38 0 66.5 -8.5t52 -22t39 -28t25.5 -27.5 v962q0 57 -17.5 113t-57 101.5t-105.5 73.5q-68 27 -165 30q-57 0 -103.5 -10t-83.5 -27.5t-65.5 -41t-47.5 -47t-30 -46.5t-13 -41q21 -12 37.5 -33t28.5 -48t18 -60q5 -34 5 -69v-584q0 -16 -5.5 -30t-16 -24t-25 -16t-29.5 -6h-186q-16 0 -30 6t-24.5 16t-16 24t-5.5 30z M432 -555q0 15 6 29t16 23.5t23.5 15t29.5 5.5h173q15 0 28 -5.5t23.5 -15t16.5 -23.5q5 -14 5 -29v-73q0 -70 29.5 -105t93.5 -35q123 0 123 140v67q0 21 7 37.5t20.5 29t29.5 20.5q16 7 36 7q21 0 38.5 -7.5t29.5 -20t19.5 -29t7.5 -37.5v-67q0 -58 -16 -111.5t-53.5 -93 t-96.5 -62t-145 -22.5q-85 0 -144.5 20.5t-97.5 58.5t-55 92t-17 118h-55q-15 0 -29 6t-24 16t-16 23.5t-6 27.5z" />
<glyph unicode="&#xd;" horiz-adv-x="576" />
<glyph unicode=" "  horiz-adv-x="508" />
<glyph unicode="&#x09;" horiz-adv-x="508" />
<glyph unicode="&#xa0;" horiz-adv-x="508" />
<glyph unicode="!" horiz-adv-x="690" d="M219 120q0 -27 10 -50t27 -40t39.5 -26.5t49.5 -9.5q26 0 49.5 9.5t41 26.5t27 40t9.5 50q0 26 -9.5 49.5t-27 40t-41 26t-49.5 9.5q-27 0 -49.5 -9.5t-39.5 -26t-27 -40t-10 -49.5zM241 969v374q0 62 24 93t82 31q59 0 82.5 -31t23.5 -93v-374l-56 -554q-3 -27 -18 -37 q-14 -10 -32 -10q-17 0 -32 10q-17 10 -20 38v-1z" />
<glyph unicode="&#x22;" horiz-adv-x="864" d="M215 1016v371q0 38 21 60.5t56 22.5t55 -23q21 -22 21 -60v-371q0 -38 -20.5 -61.5t-55.5 -23.5t-56 23.5t-21 61.5zM499 1016v371q0 38 20.5 60.5t55.5 22.5t56 -23q22 -22 22 -60v-371q0 -38 -21.5 -61.5t-56.5 -23.5t-55.5 23.5t-20.5 61.5z" />
<glyph unicode="#" horiz-adv-x="1127" d="M50 495q0 15 4 27t13 22.5t24 16.5q17 7 37 7h152l38 293h-138q-21 0 -36.5 6t-24.5 16.5t-13 23.5t-4 27q0 15 4 28t13 23.5t24 16t37 5.5h160l51 365q3 15 8 28t14.5 23.5t25 16t37.5 5.5q13 0 26 -4t22.5 -13t15.5 -20t3 -24l-52 -377h242l48 365q3 30 22.5 51.5 t63.5 21.5q13 0 26.5 -4t23 -13t15 -20t2.5 -24l-49 -377h115q21 0 36 -5.5t24 -16t13 -23.5t4 -28q0 -14 -4 -27t-13 -23.5t-23.5 -16.5t-36.5 -6h-133l-44 -293h126q20 0 35 -6.5t24.5 -17t13.5 -23.5t4 -26q0 -15 -4 -27t-13.5 -22.5t-24.5 -17t-35 -6.5h-149l-50 -362 q-2 -15 -8 -28.5t-15.5 -24t-25 -16.5t-37.5 -6q-14 0 -26.5 4.5t-23 13.5t-16 20t-2.5 24l52 375h-236l-53 -364q-3 -14 -7.5 -27t-14.5 -23.5t-26 -16.5t-37 -6q-13 0 -26.5 4.5t-23 12.5t-15 19t-3.5 26l51 375h-129q-20 0 -36 6.5t-25 17t-13 23.5t-4 26zM429 568h243 l39 293h-237z" />
<glyph unicode="$" horiz-adv-x="1127" d="M53 347q0 56 27 85q25 29 72 29q30 0 50 -8.5t32.5 -24.5t20.5 -36.5t14 -44.5q8 -32 22 -65.5t41 -60.5t72.5 -45t121.5 -23v481q-104 22 -186.5 57.5t-139.5 86.5t-87.5 118.5t-30.5 151.5q0 104 36.5 183t97.5 132t142 82q80 30 168 33v140q0 20 13 37.5t27 17.5 q17 0 29 -17q12 -18 12 -38v-140q37 -2 84.5 -11.5t97 -26t97 -41.5t84.5 -58t60.5 -74t23.5 -89q0 -26 -8.5 -47t-22 -36t-32.5 -22t-39 -7q-16 0 -30 6.5t-25.5 18t-23.5 27t-23 30.5q-18 24 -37.5 50.5t-47.5 47.5t-66.5 35.5t-91.5 14.5v-438q62 -14 121 -31.5 t111 -41.5t95 -57t74.5 -79t49 -106.5t17.5 -138.5q0 -102 -34 -179.5t-95 -130.5t-147.5 -82.5t-191.5 -37.5v-149q0 -21 -11.5 -37t-29.5 -16q-16 0 -28 16t-12 37v149q-79 3 -145 20.5t-118.5 45t-92 64t-65.5 77.5t-39 83.5t-13 82.5zM283 1098q0 -88 60 -142t183 -81 v421q-56 -1 -101 -18t-76.5 -44.5t-48.5 -62.5t-17 -73zM607 152q50 3 97.5 18t84.5 42t60.5 69.5t23.5 101t-25 99.5t-63.5 67t-86 42t-91.5 28v-467z" />
<glyph unicode="%" horiz-adv-x="2026" d="M199 1067q0 76 17.5 142.5t55.5 116t96 78t143 28.5t143 -28.5t96 -78t55.5 -116t17.5 -142.5t-17.5 -142.5t-55.5 -116t-96 -77t-143 -27.5t-143 27.5t-96 77t-55.5 116t-17.5 142.5zM362 1067q0 -54 7.5 -101.5t25 -83t45 -56t71.5 -20.5q42 0 70.5 20.5t46 56t25 83 t7.5 101.5q0 50 -7.5 97.5t-25 84t-46 58.5t-70.5 22q-44 0 -71.5 -22t-45 -58.5t-25 -84t-7.5 -97.5zM584 26q0 15 4.5 29.5t14.5 32.5l708 1338q10 19 25.5 34t38.5 15q13 0 25 -4.5t20.5 -12t14 -17.5t5.5 -19q0 -13 -6 -28.5t-15 -32.5l-709 -1341q-9 -16 -25 -31 t-40 -15q-13 0 -24 4t-19.5 11.5t-13 17t-4.5 19.5zM1203 356q0 76 17.5 142t55.5 115.5t96.5 78.5t142.5 29q85 0 143.5 -29t96.5 -78.5t55.5 -115.5t17.5 -142t-17.5 -143t-55.5 -116t-96.5 -77.5t-143.5 -28.5q-84 0 -142.5 28.5t-96.5 77.5t-55.5 116t-17.5 143z M1367 356q0 -54 7 -101.5t24.5 -83t45.5 -56t71 -20.5t71.5 20.5t46 56t24.5 82.5t7 102q0 50 -7 96.5t-24.5 83t-46 58.5t-71.5 22t-71 -22t-45.5 -58.5t-24.5 -83t-7 -96.5z" />
<glyph unicode="&#x26;" horiz-adv-x="1276" d="M55 359q0 76 26.5 142.5t72 122t106.5 100.5t131 82q-32 38 -61 76t-51 76.5t-35 78.5t-13 81q0 79 28.5 140.5t77 104t113.5 64t137 21.5q70 0 125.5 -14.5t96.5 -38.5t69.5 -55.5t46 -68t25.5 -73t8 -71.5q0 -55 -23.5 -106.5t-64.5 -96t-93.5 -82.5t-110.5 -67 l273 -325q22 23 38.5 46.5t30.5 45.5t25.5 45t26.5 48q12 22 31 33.5t39 11.5q16 0 31.5 -6.5t28.5 -16.5t20.5 -24t7.5 -31q0 -24 -15 -59t-36.5 -73.5t-51.5 -76.5q-29 -37 -58 -66l152 -188q12 -15 15.5 -30.5t1 -31.5t-11 -30.5t-20.5 -26.5q-38 -33 -76 -28t-70 44 l-125 151q-54 -56 -109 -94t-112.5 -61t-118 -35t-123.5 -12q-107 0 -183 34t-125.5 87t-73 119.5t-23.5 133.5zM244 388.5q0 -55.5 21 -101t57 -76t82 -47.5t97 -17q89 0 168 37.5t140 122.5l-329 400q-48 -31 -90.5 -64t-75 -71t-51.5 -83t-19 -100.5zM412 1143 q0 -42 13.5 -77t36.5 -66t51.5 -61.5t57.5 -65.5q32 21 69 44t71 55t55.5 73t21.5 94q0 36 -14.5 69t-40 58t-60 39.5t-75 14.5t-75 -14t-59.5 -38t-38.5 -55.5t-13.5 -69.5z" />
<glyph unicode="'" horiz-adv-x="562" d="M204 1016v371q0 38 20.5 60.5t55.5 22.5t57 -23q21 -22 21 -60v-371q0 -38 -21.5 -61.5t-56.5 -23.5t-55.5 23.5t-20.5 61.5z" />
<glyph unicode="(" horiz-adv-x="525" d="M86 549q0 79 10.5 162t29.5 168t46 170q28 87 63 169q38 90 66.5 147t49.5 89t38.5 44t35.5 12q26 0 43 -13.5t17 -33.5q0 -19 -14 -60.5t-33 -94.5q-23 -64 -50 -147.5t-50.5 -181t-39 -207t-15.5 -223.5q0 -115 15.5 -224.5t39 -207t50.5 -181.5q27 -82 50 -146 q19 -54 33 -95.5t14 -62.5q0 -19 -17 -32t-43 -13q-18 0 -34.5 9.5t-38.5 40t-50 87.5t-67 153q-35 84 -62 169t-46.5 170.5t-30 169.5t-10.5 163z" />
<glyph unicode=")" horiz-adv-x="525" d="M38 -368q0 19 13 60.5t34 97.5q23 64 49.5 147t49.5 180.5t39 206t16 225.5q0 115 -16 224t-39 206.5t-50 181.5q-26 83 -49 147q-19 54 -33 95.5t-14 59.5q0 19 16 33t42 14q18 0 35.5 -12t39.5 -44t49.5 -89t65.5 -147q35 -82 63 -168t47 -171t29 -168t10 -162 t-10 -163t-29 -169.5t-47 -170t-63 -169.5q-41 -96 -68 -153t-48 -87.5t-38 -40.5q-18 -9 -36 -9q-26 0 -42 14t-16 31z" />
<glyph unicode="*" horiz-adv-x="711" d="M9 1241q0 18 6.5 29.5t15 18.5t18 11.5t17.5 4.5q7 0 19.5 -4.5t22.5 -6.5l190 -68v214q0 30 14.5 47t43.5 17q28 0 42.5 -17.5t14.5 -46.5v-214l189 68q14 5 30 6.5t29.5 -1.5t23 -11.5t13.5 -23.5q9 -30 -6 -50t-42 -27l-211 -61l145 -192q9 -10 12 -21t1.5 -22.5 t-9 -22.5t-19.5 -18q-20 -12 -45.5 -6t-40.5 26l-127 193l-128 -193q-15 -20 -40 -26q-27 -6 -48 6q-12 7 -19 18t-8.5 22.5t1.5 23.5t12 20l146 192q-21 6 -48 14t-55.5 16.5t-57 16t-50.5 14.5q-23 9 -38 22q-14 14 -14 32z" />
<glyph unicode="+" horiz-adv-x="1216" d="M82 549q0 16 6.5 30t17.5 25.5t25 17.5q12 6 30 6h368v371q0 16 6.5 29.5t17.5 25.5t24 18q13 5 30 5q16 0 31.5 -5.5t26 -17.5t17 -26.5t6.5 -28.5v-371h365q16 0 30.5 -6t24.5 -17.5t17 -26t7 -29.5q0 -18 -7 -32.5t-17 -24.5t-24.5 -16t-30.5 -6h-365v-368 q0 -17 -6.5 -31t-17 -25t-25 -17t-32 -6t-30.5 6t-24 17t-17.5 25t-6.5 31v368h-368q-18 0 -31 6t-24 16t-17.5 24.5t-6.5 32.5z" />
<glyph unicode="," horiz-adv-x="562" d="M128 123q0 29 11 54.5t31 44.5t44.5 30t54.5 11q42 0 74 -16t53.5 -44.5t31.5 -68.5q10 -38 10 -84q0 -40 -4.5 -77t-14.5 -71.5t-27.5 -66t-44.5 -61.5q-17 -19 -37.5 -36.5t-42.5 -31t-44 -22t-42 -8.5q-23 0 -34 11.5t-11 26.5q0 17 18 31t41.5 28.5t48.5 35t44 50 t30.5 68t11.5 91.5q-20 -19 -42 -23t-38 -4q-30 0 -52.5 11t-37.5 29.5t-23.5 41.5t-8.5 50z" />
<glyph unicode="-" horiz-adv-x="938" d="M82 549q0 16 6.5 30t17.5 25.5t25 17.5q12 6 30 6h619q16 0 29.5 -6t24.5 -17.5t17.5 -26t6.5 -29.5q0 -18 -6.5 -32.5t-17.5 -24.5t-25.5 -16t-28.5 -6h-619q-18 0 -31 6t-24 16t-17.5 24.5t-6.5 32.5z" />
<glyph unicode="." horiz-adv-x="562" d="M134 123q0 30 12 57t31.5 47t46.5 31.5t56 11.5q31 0 58 -11.5t47.5 -31.5t32 -47t11.5 -57q0 -31 -11.5 -58t-32 -46.5t-47 -31.5t-58.5 -12q-30 0 -56.5 12t-46 31.5t-31.5 46.5t-12 58z" />
<glyph unicode="/" horiz-adv-x="675" d="M-12 34q0 11 4.5 25t10.5 29l531 1349q3 8 9 18.5t14.5 19t22.5 14.5q16 6 36 6q12 0 25 -4.5t23.5 -12.5t17.5 -20.5t7 -26.5q0 -10 -5 -25.5t-11 -27.5l-533 -1350q-3 -9 -8 -19t-13.5 -19t-22.5 -15t-38 -6q-11 0 -23.5 4.5t-23.5 12.5t-17 20t-6 28z" />
<glyph unicode="0" horiz-adv-x="1127" d="M77 715q0 59 2.5 121t9.5 124.5t22 123.5t39.5 115t59.5 100.5t85.5 80t116 52.5t150.5 19q114 0 194.5 -33.5t134.5 -89t85 -129t48 -155.5t21.5 -167.5t4.5 -161.5q0 -61 -2.5 -125t-9.5 -128.5t-21.5 -124.5t-39.5 -114t-61 -99t-86 -78.5t-116 -51t-152 -17.5 q-112 0 -192.5 32t-134.5 86t-84.5 127.5t-46.5 155.5t-21.5 169t-5.5 168zM272 715.5q0 -52.5 1 -117t10 -127t26.5 -122.5t49.5 -106.5t82 -74.5t121 -28q73 0 122.5 28t82.5 74.5t50.5 106.5t26.5 122.5t10 126.5q2 65 2 117.5t-1.5 114.5t-10.5 125.5t-26.5 122 t-50.5 104.5t-83 73t-122 27q-70 0 -119.5 -27t-82 -73t-50.5 -104.5t-26 -122t-10 -125.5t-2 -114.5z" />
<glyph unicode="1" horiz-adv-x="1127" d="M150 1057q-1 18 4 34t15.5 29t25.5 20.5t33 9.5q60 6 111.5 17t94 36.5t74 67.5t50.5 107q8 27 30 45t51 18q18 0 34 -6.5t27.5 -18t19 -28t7.5 -33.5v-1279q0 -21 -7.5 -37t-20.5 -28t-29 -19t-35 -7t-35 7t-29 19t-20.5 28t-7.5 37v988q-61 -41 -134 -60.5t-167 -23.5 q-17 -2 -33 4t-28.5 16t-20.5 25t-10 32z" />
<glyph unicode="2" horiz-adv-x="1127" d="M86.5 90.5q-4.5 26.5 1.5 52.5q23 88 64.5 155.5t92 121t109 97.5t116.5 85q94 62 161 109.5t109.5 94.5t63.5 98t21 121q0 58 -20.5 105t-56.5 79t-84 49.5t-102 17.5q-63 0 -111.5 -22.5t-83 -61.5t-53.5 -90t-25 -108q-1 -20 -10.5 -36t-23 -28.5t-32.5 -18.5t-38 -4 q-20 1 -36 10t-28.5 23.5t-18.5 32t-4 37.5q6 95 41.5 174.5t97 137.5t146 90t188.5 32q93 0 176.5 -28.5t145.5 -82t97 -131.5t35 -180q0 -66 -14.5 -120.5t-39.5 -101.5t-59.5 -86t-73 -73t-81 -61.5t-81.5 -53.5q-64 -41 -128.5 -83.5t-117.5 -87t-89.5 -92t-44.5 -97.5 h649q17 0 32.5 -5.5t27 -17.5t17.5 -27t6 -33q0 -17 -6 -32.5t-17.5 -26.5t-27 -17.5t-32.5 -6.5h-755q-28 0 -50 12.5t-35.5 32t-18 46z" />
<glyph unicode="3" horiz-adv-x="1127" d="M66 356q-3 21 3.5 38.5t18 32t29 23t36.5 10.5q21 1 38.5 -4.5t31.5 -18t22.5 -29.5t11.5 -36q9 -54 31 -97.5t58.5 -76t84.5 -49.5q48 -18 109 -18q67 0 123.5 19t96.5 54t62 85t22 114q0 67 -22.5 116t-62 82t-94.5 49t-117 16h-43q-35 0 -56 22t-21 54t21 54.5 t56 22.5h18q52 0 100.5 14.5t84 43t56.5 71t21 99.5t-18 100.5t-51 73t-78 44t-101 14.5q-58 0 -102.5 -19t-76 -52.5t-49 -79t-23.5 -97.5q-3 -19 -11.5 -35t-22 -28.5t-31 -18.5t-37.5 -3q-20 2 -36.5 10.5t-28 22.5t-17.5 31.5t-4 36.5q10 87 44.5 160t90.5 126t132 82 t172 29q95 0 176 -25t141 -74.5t93.5 -124.5t33.5 -176q0 -47 -14.5 -90t-38.5 -79.5t-58.5 -65.5t-73.5 -53q62 -14 108 -46.5t76 -77.5t45 -102t15 -124q0 -69 -18 -128t-48.5 -107t-73 -86t-90.5 -65q-27 -14 -59.5 -23t-67.5 -14.5t-71 -7.5q-37 -1 -72 -1 q-99 0 -181 24.5t-143 73t-100.5 120t-49.5 164.5z" />
<glyph unicode="4" horiz-adv-x="1127" d="M48 444q0 19 5 35.5t17 31.5l632 891q13 17 33.5 28t44.5 11q20 0 37.5 -8t30.5 -21t20.5 -30.5t7.5 -36.5v-852h127q19 0 34.5 -6.5t26.5 -18t16.5 -27t5.5 -32.5q0 -18 -5.5 -32.5t-16 -26t-26.5 -18t-35 -6.5h-127v-250q0 -21 -7.5 -37t-19.5 -28t-29 -19t-35 -7 q-19 0 -35.5 7t-29 19t-19.5 28t-7 37v250h-528q-24 0 -46 9.5t-37.5 24.5t-25 36.5t-9.5 47.5zM245 493h449v608z" />
<glyph unicode="5" horiz-adv-x="1127" d="M89.5 337q3.5 19 12.5 35t23.5 28t35.5 16q19 6 37 3t34 -12.5t28 -24t17 -35.5q12 -45 35.5 -82t59 -65t82.5 -42.5t102 -14.5q62 0 116 21t94 63t63.5 104.5t23.5 147.5q0 70 -23.5 128.5t-64.5 100.5t-99 67q-59 24 -129 24q-41 0 -74.5 -9.5t-64 -25.5t-57 -38 t-52.5 -49q-16 -16 -37 -22.5t-45 -3.5q-19 3 -35.5 13.5t-27 24t-14.5 32t0 40.5l107 598q5 29 27 48t53 19h587q17 0 32.5 -6.5t27 -18t17.5 -26t6 -32.5q0 -35 -22 -58.5t-61 -23.5h-513l-68 -391q24 25 55 42t63.5 27.5t68.5 16t71 5.5q99 0 184 -31.5t148.5 -93.5 t99.5 -155q37 -91 37 -217q0 -61 -14 -121.5t-41.5 -114t-70 -98.5t-99.5 -78t-128 -51q-72 -19 -157 -19q-80 0 -153 20t-133 60t-102 99q-44 59 -61 138q-5 19 -1.5 38z" />
<glyph unicode="6" horiz-adv-x="1127" d="M72 673q0 99 10.5 196.5t35.5 183.5t66 159t100 125.5t138.5 83t184.5 30.5q155 0 256 -71.5t139 -208.5q5 -18 2.5 -37t-12 -33.5t-24.5 -25.5q-16 -12 -34 -17q-20 -5 -37 -2.5t-32 12t-25.5 24.5t-16.5 32q-23 78 -78 118q-53 40 -149 40q-69 0 -121 -22.5 t-88.5 -61.5t-59.5 -90.5t-38 -109.5t-20.5 -117.5t-8.5 -115.5q29 41 67 73t83.5 54t95.5 34.5t104 12.5q107 0 189.5 -37.5t139.5 -101t87 -149.5q30 -85 30 -184q0 -55 -10.5 -112t-33 -112.5t-60 -103.5t-91.5 -84.5t-126 -57t-164 -20.5q-108 0 -187.5 30.5t-135 82.5 t-90 121t-54 146.5t-26 158.5t-6.5 157zM286 456q0 -68 20.5 -126t58 -100t92 -66t124.5 -24q67 0 119.5 25t89 67t55.5 99t19 120q0 67 -17.5 125t-52.5 101.5t-88 68.5t-125 25q-70 0 -125.5 -25t-92.5 -67t-57 -100.5t-20 -122.5z" />
<glyph unicode="7" horiz-adv-x="1127" d="M82 1337q0 18 6.5 34.5t19 29t28.5 19t33 6.5h783q20 0 38.5 -8t32.5 -21t21 -32t7 -39q0 -21 -7 -38.5t-21 -30.5q-68 -67 -131 -150.5t-117.5 -179t-100.5 -199t-82.5 -212.5t-60 -220t-35.5 -219q-3 -22 -13 -39.5t-24.5 -29.5t-35.5 -18q-20 -8 -40 -5 q-22 3 -40.5 13.5t-30 25t-17.5 35t-4 40.5q20 170 67.5 327.5t118.5 303t161 275.5q92 131 197 245h-666q-17 0 -33 7t-28.5 19t-19 28t-6.5 33z" />
<glyph unicode="8" horiz-adv-x="1127" d="M74 418q0 62 15.5 118.5t45 101.5t73.5 81q45 34 103 58q-44 20 -78 52t-57.5 71.5t-36.5 85t-13 91.5q0 92 35 161.5t94.5 116.5t137 71.5t160.5 24.5q117 0 201 -32t138 -84.5t79 -119.5t25 -138q0 -48 -13.5 -92.5t-37.5 -82.5t-58 -68.5t-77 -53.5 q57 -24 102.5 -59.5t77.5 -81.5t49 -101.5t17 -119.5q0 -107 -39 -189.5t-104.5 -138t-154.5 -84.5t-187 -29q-105 0 -195 27.5t-157 83t-106 139t-39 191.5zM269 412q0 -65 22.5 -115t62.5 -84.5t95.5 -53.5t121.5 -19q64 0 117.5 20.5t91.5 57t58 86.5q20 49 20 111 q0 55 -23 104.5t-62.5 85.5t-92 56.5t-112.5 20.5q-61 0 -116 -18.5t-95 -53.5t-64 -85.5t-24 -112.5zM317 1067q0 -55 21 -96.5t56 -69.5t80.5 -42.5t96.5 -14.5q49 0 91.5 14.5t73 43.5t48.5 71t18 94q0 54 -18 95t-49 67.5t-75 39.5t-95 13q-47 0 -91.5 -13t-79.5 -39.5 t-56 -66.5t-21 -96z" />
<glyph unicode="9" horiz-adv-x="1127" d="M70 961q0 55 10.5 112t33.5 111t59.5 102t90.5 84.5t125.5 58.5t165.5 22q108 0 187 -30.5t134 -83t90.5 -122t54.5 -147.5t26 -158.5t7 -156.5q0 -99 -11 -195.5t-35.5 -183t-65 -159.5t-100 -126.5t-140 -82.5t-182.5 -29q-155 0 -256 70q-102 73 -140 210q-6 17 -2 35 t12.5 34t23 27t32.5 15q20 6 37.5 3t32 -12t25 -23.5t16.5 -31.5q23 -78 78.5 -119.5t151.5 -41.5q69 0 119.5 23.5t87 63t60 90.5t38 108t21.5 116.5t9 115.5q-29 -41 -68 -72.5t-83.5 -54t-95 -34t-104.5 -11.5q-106 0 -189.5 36.5t-140.5 100.5t-86 150t-29 186zM261 975 q0 -67 17.5 -125.5t53.5 -101.5t89 -68.5t125 -25.5q70 0 125 25t92 68t56 100.5t19 125t-19 124t-57 99t-93 65.5q-53 24 -123 24q-67 0 -121 -24t-90 -66.5t-55 -98.5t-19 -121z" />
<glyph unicode=":" horiz-adv-x="562" d="M134 123q0 30 12 57t31.5 47t46.5 31.5t56 11.5q31 0 58 -11.5t47.5 -31.5t32 -47t11.5 -57q0 -31 -11.5 -58t-32 -46.5t-47 -31.5t-58.5 -12q-30 0 -56.5 12t-46 31.5t-31.5 46.5t-12 58zM134 937q0 31 12 57.5t31.5 46t46.5 31t56 11.5q31 0 58 -11.5t47.5 -31 t32 -46.5t11.5 -57t-11.5 -57t-32 -47.5t-47 -32.5t-58.5 -12q-30 0 -56.5 12t-46 32.5t-31.5 47.5t-12 57z" />
<glyph unicode=";" horiz-adv-x="562" d="M128 123q0 29 11 54.5t31 44.5t44.5 30t54.5 11q42 0 74 -16t53.5 -44.5t31.5 -68.5q10 -38 10 -84q0 -40 -4.5 -77t-14.5 -71.5t-27.5 -66t-44.5 -61.5q-17 -19 -37.5 -36.5t-42.5 -31t-44 -22t-42 -8.5q-23 0 -34 11.5t-11 26.5q0 17 18 31t42 29q22 13 46 32.5 t43.5 49t32 69t12.5 93.5q-20 -19 -42 -23t-38 -4q-30 0 -52.5 11t-37.5 29.5t-23.5 41.5t-8.5 50zM134 937q0 31 12 57.5t31.5 46t46.5 31t56 11.5q31 0 58 -11.5t47.5 -31t32 -46.5t11.5 -57t-11.5 -57t-32 -47.5t-47 -32.5t-58.5 -12q-30 0 -56.5 12t-46 32.5t-31.5 47.5 t-12 57z" />
<glyph unicode="&#x3c;" horiz-adv-x="1216" d="M50 555q0 25 14.5 45t34.5 31l884 406q23 11 45.5 16t41.5 2.5t32 -15t22 -36.5q6 -18 3 -33.5t-11.5 -28.5t-22 -23.5t-27.5 -16.5l-789 -347l786 -348q17 -7 32 -17t23.5 -23.5t10.5 -29.5q4 -17 -5 -36q-9 -24 -25 -35t-35 -12t-39.5 3t-38.5 13l-887 407 q-20 11 -34.5 31.5t-14.5 46.5z" />
<glyph unicode="=" horiz-adv-x="1216" d="M82 347q0 17 6.5 32t17.5 25.5t25 16.5q12 7 30 7h893q16 0 30 -6.5t25 -17t17.5 -25t6.5 -32t-6.5 -30.5t-17.5 -24t-25.5 -17.5t-29.5 -6.5h-893q-18 0 -31 6.5t-24 17.5t-18 25q-6 12 -6 29zM82 749q0 16 6.5 30.5t17.5 25.5t25 18q12 6 30 6h893q16 0 30 -6.5 t25 -17.5t17.5 -25.5t6.5 -30.5q0 -18 -6.5 -31.5t-17.5 -24t-25.5 -17t-29.5 -6.5h-893q-18 0 -31 6.5t-24 17t-17.5 25t-6.5 30.5z" />
<glyph unicode="&#x3e;" horiz-adv-x="1216" d="M87 137q2 16 11.5 29.5t24 24t30.5 16.5l786 348l-789 347q-14 6 -28 16.5t-22.5 22.5t-11.5 28q0 17 5 35q9 24 22 36.5t32 15t41 -2.5t46 -16l883 -406q20 -11 35 -32t15 -44q0 -25 -15 -46q-16 -21 -37 -32l-884 -407q-19 -9 -39 -13t-39 -3t-35 12t-25 35 q-8 20 -6 36z" />
<glyph unicode="?" horiz-adv-x="1127" d="M128 1130q0 69 34.5 131.5t92 110t133.5 77t158 29.5q58 0 114.5 -10.5t107 -29.5t94 -49.5t75 -73t49.5 -96.5t18 -121q0 -61 -23 -116.5t-59.5 -104.5t-82 -92t-90.5 -78q-25 -21 -47 -44.5t-39.5 -51.5t-27.5 -62.5t-13 -78.5q0 -14 -7.5 -28t-19 -26.5t-27.5 -20 t-37 -7.5q-20 0 -36 9t-27 23t-16 31q-5 16 -5 34q0 49 14.5 96t38.5 87t54 74.5t61 60.5q33 29 66.5 61t60 68.5t43.5 78.5q18 40 18 87q0 52 -17.5 94.5t-49.5 72t-77.5 44t-101 14.5t-95.5 -14t-68.5 -39t-47.5 -57.5t-31 -67.5q-5 -21 -14 -38.5t-20.5 -30.5t-28.5 -21 q-15 -8 -39 -8q-17 0 -32.5 5t-27 15t-18.5 26.5t-7 36.5zM410 120q0 -27 9.5 -50t27 -40t41 -26.5t49.5 -9.5q27 0 49.5 9.5t39 26.5t27 40t10.5 50q0 26 -10.5 49.5t-27 40t-39 26t-49.5 9.5q-26 0 -49.5 -9.5t-41 -26t-27 -40t-9.5 -49.5z" />
<glyph unicode="@" horiz-adv-x="1620" d="M93 727q0 108 26 205t73 180.5t114.5 151.5t150 114.5t178 73t199.5 26.5q90 0 177 -18t163 -53.5t140 -90.5t111 -128t72.5 -165t25.5 -204q0 -95 -20.5 -170t-55.5 -133t-81 -97t-97 -65.5t-105 -38t-104 -11.5q-22 0 -42.5 7t-35.5 23t-25.5 39.5t-10.5 55.5 q-20 -29 -45.5 -48.5t-54 -32t-59.5 -17.5t-64 -5q-59 0 -110.5 25.5t-89.5 70.5t-61.5 106.5t-23.5 131.5q0 99 29 178t79.5 133.5t115.5 84t138 29.5q41 0 79 -10.5t71 -31.5t58.5 -51.5t39.5 -71.5l21 114q3 14 10 23.5t16.5 15.5t20.5 8t20 2q23 0 35 -7t17.5 -19.5 t5.5 -28t-3 -29.5l-78 -468q0 -32 14.5 -51.5t52.5 -19.5q32 0 67 24t66.5 69.5t52 109.5t20.5 146q0 133 -41 233t-115 168t-174.5 102t-223.5 34q-76 0 -149 -22t-138 -62t-119.5 -96t-94 -125t-61.5 -148.5t-22 -165.5q0 -93 22 -175.5t60.5 -152t93.5 -123.5t121.5 -92 t142.5 -57.5t157 -19.5q79 0 138 10.5t103 27t75 35.5q33 19 57 33q17 12 30 20.5t25 8.5q18 0 31.5 -14.5t13.5 -34.5q0 -25 -19.5 -50.5t-54.5 -49t-82 -45.5t-99.5 -37t-108 -24.5t-109.5 -9.5q-108 0 -205 25.5t-181 73t-152 114t-115 150t-73 181.5t-26 206zM594 677 q0 -52 14 -90.5t39 -66t60 -41t76 -13.5q49 0 89 19.5t69.5 56t46.5 84.5q16 49 16 104q0 47 -11.5 85t-35 65t-57 42t-78.5 15q-50 0 -91.5 -21t-72 -57t-47.5 -82.5t-17 -99.5z" />
<glyph unicode="A" horiz-adv-x="1315" d="M22 84q0 3 -1 6q0 18 8 36l485 1255q9 24 22 40t28.5 24.5t32 11.5t35.5 3h60q41 0 67 -17.5t43 -58.5l483 -1267q7 -19 7 -37.5t-6.5 -36t-20.5 -30.5t-33 -19q-19 -7 -38.5 -6.5t-38.5 8t-32 20.5t-22 34l-143 387h-590l-134 -382q-9 -23 -23.5 -37.5t-33.5 -22.5 t-39.5 -8t-42.5 7q-21 7 -37.5 21t-25 31.5t-10.5 37.5zM435 607h456l-228 652z" />
<glyph unicode="B" horiz-adv-x="1389" d="M158 102v1256q0 20 8.5 39t21.5 32t32 22t40 9h485q118 0 209 -14.5t154 -54t95 -111.5q32 -74 32 -188q0 -117 -49 -194q-50 -77 -149 -124q64 -18 113 -50t81.5 -77t49.5 -102t17 -123q0 -79 -29 -154t-85.5 -135t-139.5 -96.5t-191 -36.5h-593q-21 0 -40 8t-32 22 t-21.5 33t-8.5 39zM362 174h463q64 0 114.5 17.5t85.5 50t52.5 81t17.5 108.5q0 68 -27.5 112.5t-71.5 70t-99 36.5q-56 10 -112 10h-423v-486zM362 838h368q82 0 139 16t93.5 46.5t54 74.5t17.5 102q0 52 -10.5 86t-28 57.5t-43.5 36t-59 18t-70.5 6.5t-77.5 1h-383v-444z " />
<glyph unicode="C" horiz-adv-x="1464" d="M88 724q0 108 19 206.5t58 184t97 155.5t134 120t170 77.5t205 27.5q99 0 189.5 -23.5t165 -70t128.5 -114.5t86 -157q6 -20 4.5 -39t-10 -36.5t-24.5 -31.5q-14 -13 -34 -19q-20 -5 -40.5 -3.5t-37.5 10t-30 23t-19 35.5q-20 64 -56 110.5t-85 79t-109.5 47.5t-130.5 15 q-83 0 -150.5 -22.5t-120.5 -62t-92.5 -95t-64.5 -119.5t-38 -136.5t-13 -146.5q0 -123 28.5 -231t87.5 -189.5t149.5 -130t216.5 -48.5q85 0 152.5 26.5t118 73t83.5 111t46 140.5q3 20 14.5 36t27.5 27t35 14.5t40 0.5q20 -4 36 -15.5t26.5 -27t14.5 -35.5q3 -12 3 -25 q0 -6 -1 -13q-24 -117 -75 -207t-127.5 -151t-179.5 -92.5t-229 -31.5q-168 0 -293.5 57.5t-209.5 159t-124.5 239t-40.5 297.5z" />
<glyph unicode="D" horiz-adv-x="1429" d="M158 102v1256q0 20 8.5 39t21.5 32t32 22t40 9h388q168 0 298.5 -43t220 -130t136 -217t46.5 -305q0 -184 -41 -326.5t-125.5 -239.5t-217.5 -148t-317 -51h-388q-21 0 -40 8t-32 22t-21.5 33t-8.5 39zM362 174h301q23 0 57.5 2t73 11.5t79.5 26.5t80.5 44.5t75 69 t62 99.5t42 134.5t15.5 174.5q0 131 -25 233.5t-82 171.5t-148 105t-223 36h-308v-1108z" />
<glyph unicode="E" horiz-adv-x="1238" d="M158 102v1256q0 20 8.5 39t21.5 32t32 22t40 9h831q20 0 35.5 -7.5t27 -19t17.5 -27.5t6 -35q0 -18 -6 -34.5t-17.5 -28.5t-27.5 -19t-35 -7h-729v-444h669q19 0 35 -7.5t27 -19t18 -27.5t7 -35q0 -18 -7 -34.5t-18 -28t-27 -19t-35 -7.5h-669v-486h729q19 0 35 -6.5 t27.5 -18.5t17.5 -28t6 -33q0 -18 -6 -34t-17.5 -27.5t-27.5 -19t-35 -7.5h-831q-21 0 -40 8t-32 22t-21.5 33t-8.5 39z" />
<glyph unicode="F" horiz-adv-x="1162" d="M158 88v1270q0 20 8.5 39t21.5 32t32 22t40 9h777q20 0 36 -7.5t28 -19t17.5 -27.5t5.5 -35q0 -18 -5.5 -34.5t-17.5 -28.5t-28 -19t-36 -7h-675v-444h580q19 0 35 -7.5t27.5 -19t17.5 -27.5t6 -35q0 -18 -6 -34.5t-17.5 -28t-27.5 -19t-35 -7.5h-580v-572q0 -24 -8 -43 t-22 -32t-33 -20.5t-39 -7.5q-21 0 -40 7.5t-32 20.5t-21.5 32t-8.5 43z" />
<glyph unicode="G" horiz-adv-x="1538" d="M88 704q0 105 19 204t56.5 187t95.5 161.5t134.5 127t173 82.5t210.5 29q99 0 194 -21t174.5 -67t138.5 -117.5t88 -174.5q6 -20 4.5 -39t-10 -36.5t-23 -30.5t-35.5 -19q-20 -6 -39 -4.5t-36.5 10t-31 23.5t-18.5 35q-19 70 -59.5 119.5t-94.5 83.5t-118 49t-134 15 q-86 0 -155.5 -24t-123.5 -66.5t-93.5 -99t-64.5 -124.5t-38 -143q-13 -73 -13 -149t14.5 -147.5t42.5 -135.5t69 -117.5t95 -92t121 -60.5t146 -22q70 0 132.5 16t114 45.5t90.5 70t65.5 92t39.5 110.5q11 49 11 101q0 12 -1 24h-384q-20 0 -37 6.5t-28 19t-17.5 28.5 t-6.5 33q0 18 6.5 34t17.5 28.5t28 19t37 6.5h478q19 0 35.5 -6t28.5 -17.5t19 -28.5q7 -18 7 -39v-607q0 -21 -7 -38.5t-19 -29t-28.5 -17.5t-35.5 -6t-36 6t-28.5 18.5t-19 29t-7.5 37.5v93q-44 -52 -96.5 -90t-112 -61.5t-122.5 -35t-124 -11.5q-108 0 -201.5 27 t-169.5 76t-136 116.5t-101 148.5t-61 174q-20 94 -20 191z" />
<glyph unicode="H" horiz-adv-x="1464" d="M158 88v1284q0 24 8.5 43t21.5 32t32 20.5t40 7.5q20 0 39 -7.5t33 -20.5t22 -32t8 -43v-534h742v534q0 24 7 43t21 32t32.5 20.5t39.5 7.5t40 -7.5t33 -20.5t22 -32t8 -43v-1284q0 -24 -8 -43t-22 -32t-32.5 -20.5t-40.5 -7.5q-20 0 -39 7.5t-33 20.5t-21 32t-7 43v572 h-742v-572q0 -24 -8 -43t-22 -32t-33 -20.5t-39 -7.5q-21 0 -40 7.5t-32 20.5t-21.5 32t-8.5 43z" />
<glyph unicode="I" horiz-adv-x="562" d="M178 88v1284q0 24 9 42t22 32t32 21.5t39 7.5q21 0 40 -7.5t33.5 -21.5t21.5 -33q8 -17 8 -41v-1284q0 -24 -7.5 -43t-22 -32t-33.5 -20q-19 -8 -40 -8q-20 0 -39 7.5t-32 20.5t-22 32t-9 43z" />
<glyph unicode="J" horiz-adv-x="1052" d="M41 403q0 23 8.5 42t23.5 32.5t34 20.5t39 7t39 -7t34 -20.5t23.5 -32.5t8.5 -42q0 -50 9 -97.5t32 -84t67 -59t114 -22.5q63 0 104.5 18.5t66.5 51t36 79.5t11 105v978q0 24 8 42t21 32t32 21.5t39 7.5q21 0 40 -7.5t33.5 -21.5t21.5 -33q8 -17 8 -41v-1004 q0 -53 -9 -102.5t-28 -93.5t-52 -81t-80.5 -64t-111.5 -41.5t-146 -14.5q-207 0 -316.5 108t-109.5 324z" />
<glyph unicode="K" horiz-adv-x="1322" d="M158 88v1284q0 24 8.5 42t21.5 32t32 21.5t40 7.5q20 0 39 -7.5t33 -21.5t22 -33q8 -17 8 -41v-627l707 703q13 12 28.5 18.5t33 6.5t33.5 -6.5t27 -18.5q13 -11 20 -28.5t7 -34t-7 -33t-20 -29.5l-467 -453l537 -730q13 -16 17 -35q3 -11 2 -22q0 -7 -1 -15 q-3 -18 -13 -35t-26 -29q-17 -11 -35.5 -15.5t-36.5 -1.5t-34.5 12.5t-28.5 26.5l-518 701l-225 -213v-426q0 -24 -8 -43t-22 -32t-33 -20.5t-39 -7.5q-21 0 -40 7.5t-32 20.5t-21.5 32t-8.5 43z" />
<glyph unicode="L" horiz-adv-x="1115" d="M158 102v1270q0 24 8.5 42t21.5 32t32 21.5t40 7.5q20 0 39 -7.5t33 -21.5t22 -33q8 -17 8 -41v-1198h666q39 0 63 -25.5t24 -60.5q0 -37 -23 -62.5t-64 -25.5h-768q-21 0 -40 7.5t-32 20.5t-21.5 32t-8.5 42z" />
<glyph unicode="M" horiz-adv-x="1757" d="M158 88v1252q0 37 11.5 60.5t31 36.5t44 18t48.5 5h54q30 0 51 -7.5t38 -20.5t29 -35q11 -22 23 -52l388 -1103l391 1103q12 30 23.5 52t28.5 35t38 20.5t50 7.5h57q25 0 49 -5t44 -18t31.5 -36.5t11.5 -60.5v-1252q0 -24 -8.5 -43t-22 -32t-32.5 -20.5t-39 -7.5t-39 7.5 t-33 20.5t-22 32t-8 43v1118l-412 -1145q-12 -32 -39.5 -54t-65.5 -22q-37 0 -65 22q-29 22 -40 54l-412 1148v-1121q0 -24 -8 -43t-22 -32t-33 -20.5t-39 -7.5q-21 0 -40 7.5t-32 20.5t-21.5 32t-8.5 43z" />
<glyph unicode="N" horiz-adv-x="1470" d="M158 88v1241q0 35 11.5 62.5t30.5 46t45.5 28t55.5 9.5q39 0 72 -19t52 -51l685 -1131v1098q0 24 7 42t21 32t32 21.5t40 7.5q21 0 40 -7.5t32.5 -21.5t22.5 -33q8 -17 8 -41v-1242q0 -37 -11 -64t-31 -45t-45.5 -27t-56.5 -9q-39 0 -72 19t-52 50l-683 1124v-1090 q0 -24 -8 -43t-22 -32t-33 -20.5t-39 -7.5q-21 0 -40 7.5t-32 20.5t-21.5 32t-8.5 43z" />
<glyph unicode="O" horiz-adv-x="1543" d="M77 730q0 99 19 195t58 181t96 156.5t133.5 123t172.5 80.5q95 29 212 29t214 -29t174.5 -80.5t135 -123t96 -156.5t58.5 -181t20 -195t-20 -195.5t-58.5 -180.5t-96 -155t-135 -122t-174.5 -78.5t-214 -27.5t-212.5 27.5t-172 78.5t-133.5 122t-96 155t-58 180.5 t-19 195.5zM280 730q0 -73 12.5 -144.5t38 -137t64.5 -122t93.5 -98t123.5 -64.5q68 -24 156 -24t159.5 23.5t126 65t94 98t65 122t37 137t11.5 144.5t-11.5 144.5t-37 137t-65 122.5t-94 98t-125.5 65q-72 24 -160 24t-156.5 -24t-123 -65t-93.5 -98t-64.5 -122.5t-38 -137 t-12.5 -144.5z" />
<glyph unicode="P" horiz-adv-x="1315" d="M158 88v1270q0 20 8.5 39t21.5 32t32 22t40 9h525q113 0 197 -29t141 -84.5t84 -136.5q28 -83 28 -185t-27.5 -182.5t-84.5 -136t-141 -84.5q-76 -26 -176 -26h-21h-423v-508q0 -24 -8 -43t-22 -32t-33 -20.5t-39 -7.5q-21 0 -40 7.5t-32 20.5t-21.5 32t-8.5 43zM362 768 h359h14q151 0 223 64q76 67 76 193q0 125 -76 191t-237 66h-359v-514z" />
<glyph unicode="Q" horiz-adv-x="1543" d="M77 730q0 99 19 195t58 181t96 156.5t133.5 123t172.5 80.5q95 29 212 29t214 -29t174.5 -80.5t135 -123t96 -156.5t58.5 -181t20 -195q0 -82 -13 -160.5t-39.5 -151.5t-64.5 -137.5t-90 -119.5l143 -111q14 -12 21.5 -26.5t9.5 -31.5t-2 -33q-3 -16 -15 -29 q-11 -15 -26.5 -22t-32.5 -8q-4 -1 -8 -1q-13 0 -25 3q-16 5 -30 16l-173 139q-74 -44 -161 -65t-192 -21q-117 0 -212.5 27.5t-172 78.5t-133.5 122t-96 155t-58 180q-19 97 -19 196zM280 730q0 -73 12.5 -144.5t38 -137t64.5 -122t93.5 -98t123.5 -64.5q68 -24 156 -24 q58 0 108 9.5t93 30.5l-97 80q-15 12 -22.5 26.5t-9.5 29.5t2.5 30.5t16 30t25.5 22t30 9t32 -3.5q15 -4 29 -16l135 -108q40 43 68.5 95.5t47 110t27 119t8.5 125.5q0 73 -11.5 144.5t-37 137t-65 122.5t-94 98t-125.5 65q-72 24 -160 24t-156.5 -24t-123 -65t-93.5 -98 t-64.5 -122.5t-37.5 -137.5q-13 -71 -13 -144z" />
<glyph unicode="R" horiz-adv-x="1389" d="M158 88v1270q0 20 8.5 39t21.5 32t32 22t40 9h575q105 0 187.5 -26.5t140.5 -76t87 -121.5t29 -163q0 -64 -12.5 -122.5t-41 -106t-72 -84t-106.5 -56.5q61 -15 97.5 -44t57.5 -68.5t30 -87.5t15 -101q4 -56 6.5 -99t5 -77t7.5 -61q4 -26 13 -50q7 -18 7 -35v-9 q-2 -20 -12 -36t-26 -27.5t-35 -18.5q-20 -6 -39 -4t-36 11t-30 23.5t-22 34.5q-11 33 -16.5 71t-7.5 78.5t-4 81.5t-8 79q-9 50 -20 96.5t-36 81.5t-67 55.5t-111 20.5h-454v-531q0 -24 -8 -43t-22 -32t-33 -20.5t-39 -7.5q-21 0 -40 7.5t-32 20.5t-21.5 32t-8.5 43z M362 788h386q64 0 123 12t105 41t73.5 78.5t27.5 127.5q0 52 -15 95.5t-46.5 74.5t-79.5 48t-114 17h-460v-494z" />
<glyph unicode="S" horiz-adv-x="1308" d="M79 387q-1 9 -1 18q0 11 2 21q4 18 13 34t23.5 27.5t35 16t39.5 1.5t35 -12.5t27 -24.5t14 -36q10 -76 46.5 -131.5t90.5 -90.5t123 -52.5t145 -17.5q43 0 87 5t83.5 16t74.5 30t60 48.5t39 67.5q15 38 15 90q0 67 -33.5 111t-89 73t-128.5 48q-73 16 -152 34 q-63 14 -126 29t-120.5 35.5t-105.5 49.5t-84.5 68.5t-57 93.5t-20.5 125q0 73 20.5 134.5t55.5 109t84.5 83t108 58.5t124 34.5t132.5 11.5q100 0 186 -22t154 -65.5t114 -112.5t66 -163q3 -21 0 -39t-13 -34.5t-25 -27.5q-14 -12 -35 -18q-20 -4 -39 -0.5t-35 13t-28 25 t-16 35.5q-15 62 -44 107t-72 73t-99 41q-55 14 -122 14q-59 0 -116 -12.5t-100.5 -40t-71.5 -74t-28 -114.5q0 -57 31 -95.5t81 -64.5t118 -44q65 -18 141 -32q64 -15 130 -29.5t126.5 -36.5t114 -52.5t92 -75t61 -105t22.5 -142.5q0 -79 -23 -141.5t-64 -111t-95 -82.5 t-117 -55.5t-131.5 -31.5t-135.5 -10q-111 0 -210.5 23.5t-178 74.5t-131.5 129.5t-67 188.5z" />
<glyph unicode="T" horiz-adv-x="1169" d="M3 1371q0 17 6 34t17.5 28.5t27.5 19t35 7.5h991q21 0 36.5 -7.5t27 -19t18 -27.5t6.5 -35q0 -18 -6.5 -34.5t-17.5 -28.5t-27 -19t-37 -7h-398v-1194q0 -24 -8 -43t-22 -32t-32 -20.5t-40 -7.5q-21 0 -40 7.5t-33 20.5t-21 32t-7 43v1194h-390q-20 0 -35.5 7t-27 19 t-17.5 28t-6 35z" />
<glyph unicode="U" horiz-adv-x="1483" d="M158 529v843q0 24 8.5 42t21.5 32t32 21.5t40 7.5q20 0 39 -7.5t33 -21.5t22 -33q8 -17 8 -41v-843q0 -389 391 -389q368 0 368 389v843q0 24 8 42t22 32t32 21q20 8 40 8q21 0 40 -7.5t32 -21.5t22 -33q9 -17 9 -41v-843q0 -141 -38 -245t-111 -174.5t-179.5 -104.5 t-244.5 -34q-141 0 -251.5 32t-186.5 100.5t-116.5 174t-40.5 251.5z" />
<glyph unicode="V" horiz-adv-x="1238" d="M30 1382q2 20 11 37.5t24 30.5q14 13 34 19q21 7 41 7t39 -8q37 -14 55 -63l388 -1180l388 1181q8 22 20 37.5t30 23.5q18 7 38 9q3 0 6 1q17 0 35 -7q20 -6 34.5 -19.5t23.5 -30.5q9 -18 11 -38v-7q0 -17 -6 -35l-452 -1280q-8 -24 -20 -38.5t-29.5 -22.5t-38 -11.5 t-46.5 -3.5t-48 3.5t-38 11.5t-28 23q-11 14 -20 38l-446 1277q-6 19 -6 36v9z" />
<glyph unicode="W" horiz-adv-x="1877" d="M35 1389q3 21 13 37t25.5 28t36.5 18q13 4 26 4q8 0 14 -1q20 -3 37 -13.5t29 -26.5t18 -36l283 -1125l286 1103q6 22 14.5 39.5t22.5 30.5t36.5 20.5t54.5 7.5q38 0 63 -7t39.5 -19t23.5 -31t15 -43l289 -1103l289 1128q6 21 17.5 37t28.5 25q16 10 36 13q6 1 14 1 q12 0 26 -4q20 -6 35 -18t24.5 -27t11.5 -35q1 -6 1 -12q0 -15 -4 -30l-351 -1262q-9 -30 -19 -49t-24.5 -31t-36.5 -17.5t-51 -5.5q-31 0 -52 6t-36.5 20t-25 33.5t-16.5 48.5l-298 1103l-299 -1110q-9 -29 -19 -48t-25 -31.5t-35.5 -17t-49.5 -4.5q-30 0 -51.5 6t-36 19 t-23.5 34q-11 20 -17 47l-336 1255q-4 15 -4 29q0 7 1 14z" />
<glyph unicode="X" horiz-adv-x="1166" d="M35 97q3 17 15 34l411 619l-385 567q-12 17 -15 37.5t1.5 39.5t16.5 36q12 15 29 27q18 11 38 15q9 2 17 2l21 -2q20 -4 36.5 -15.5t27.5 -30.5l339 -530l347 535q12 17 28 27q16 12 34 16q9 2 18 2t18 -2q19 -2 35 -14q18 -10 29 -26t14.5 -34.5t-0.5 -36.5 q-3 -17 -14 -34l-389 -579l408 -604q11 -18 15 -39q2 -10 2 -19q0 -12 -2 -22q-4 -20 -16 -35.5t-29 -27.5q-19 -12 -39.5 -15t-39.5 1.5t-36 15.5q-17 13 -28 30l-358 555l-372 -561q-12 -17 -28 -27q-15 -12 -33 -16q-11 -3 -22 -2q-7 0 -15 1q-18 3 -35 15q-18 10 -28 26 q-11 15 -15 34q-3 11 -2 22q0 8 1 15z" />
<glyph unicode="Y" horiz-adv-x="1230" d="M32 1354q-1 9 -1 17q0 12 3 23q4 19 16 36q11 15 28.5 27t37.5 15q9 2 17 2q12 0 23 -2q19 -5 35 -16t28 -30l403 -649l397 651q12 17 28 29t34 17q10 2 20 2q9 0 18 -2q20 -2 37.5 -14t27.5 -28t14 -34q3 -10 3 -19t-2 -18q-2 -19 -13 -37l-468 -725v-511q0 -24 -8 -43 t-21.5 -32t-32.5 -20.5t-41 -7.5q-21 0 -40 7.5t-32.5 20.5t-22 32t-8.5 43v511l-465 718q-12 17 -15 37z" />
<glyph unicode="Z" horiz-adv-x="1299" d="M58 115q0 40 24 70l873 1097h-740q-21 0 -36 7t-27 19t-18 28t-6 35q0 17 6 34t18 28.5t28 19t35 7.5h898q23 0 42 -9.5t32 -25t20 -36.5q8 -22 8 -46q0 -41 -24 -70l-867 -1096h831q20 0 35.5 -6.5t27 -19t17.5 -28.5q6 -18 6 -35q0 -18 -6 -34t-17.5 -27.5t-27.5 -19 t-35 -7.5h-994q-24 0 -43 9t-32 25t-20.5 36.5t-7.5 44.5z" />
<glyph unicode="[" horiz-adv-x="531" d="M131 -274v1646q0 41 10.5 65t28 36.5t39.5 17t45 4.5h178q35 0 58.5 -14.5t23.5 -51.5q0 -36 -23.5 -50.5t-58.5 -14.5h-118v-1630h118q35 0 58.5 -14.5t23.5 -51t-23.5 -51t-58.5 -14.5h-178q-23 0 -45 4.5t-39.5 16.5t-28 36.5t-10.5 65.5z" />
<glyph unicode="\" horiz-adv-x="675" d="M-12 1431q0 14 6.5 26.5t17.5 20.5t24 13q14 4 25 4q21 0 35 -6t23 -14.5t13.5 -19t9.5 -18.5l533 -1349q5 -15 9.5 -28t4.5 -26q0 -15 -7 -27.5t-17.5 -20.5t-23.5 -12.5t-25 -4.5q-22 0 -36 6t-22.5 15t-13.5 19t-8 19l-533 1350q-6 13 -10.5 28t-4.5 25z" />
<glyph unicode="]" horiz-adv-x="531" d="M19 -331q0 35 22.5 50t57.5 15h120v1630h-120q-35 0 -57.5 14.5t-22.5 50.5q0 37 22.5 51.5t57.5 14.5h178q24 0 46.5 -4.5t39.5 -17t27 -36.5t10 -65v-1646q0 -41 -10 -65.5t-27 -36.5t-39.5 -16.5t-46.5 -4.5h-178q-35 0 -57.5 14.5t-22.5 51.5z" />
<glyph unicode="^" horiz-adv-x="1216" d="M136.5 683.5q-3.5 14.5 2.5 33.5q4 19 16 39l352 637q23 41 47 54t53 13q30 0 54.5 -13t48.5 -54l350 -637q12 -22 17.5 -41.5t1.5 -34t-19 -23.5t-44 -9q-35 0 -61 13q-26 11 -47 49l-301 551l-300 -550q-19 -35 -44 -48t-60 -13q-31 0 -47 9.5t-19.5 24z" />
<glyph unicode="_" horiz-adv-x="1024" d="M0 -197q0 12 4.5 22.5t13 19.5t19 13.5t21.5 4.5h910q12 0 23 -4.5t18 -13.5t11.5 -19t4.5 -23q0 -12 -4.5 -23.5t-11.5 -19.5t-18 -12.5t-23 -4.5h-910q-11 0 -21.5 4.5t-19 12.5t-13 19t-4.5 24z" />
<glyph unicode="`" horiz-adv-x="509" d="M87 1430.5q-4 17.5 2.5 34.5t27.5 34q26 21 48 23t41 -8t36 -28q16 -20 32 -41l126 -163q9 -13 16 -28.5t8.5 -31.5t-2.5 -31.5t-19 -26.5q-15 -14 -31.5 -15t-32.5 5.5t-30 17.5t-24 19l-154 168q-17 18 -28.5 36t-15.5 35.5z" />
<glyph unicode="a" horiz-adv-x="1087" d="M72 274q0 62 13.5 107t37.5 78.5t57 55.5t72.5 37.5t82 26.5t87.5 20q32 5 70.5 11t76.5 13.5t74.5 16t64.5 23t44 36.5t16 51q0 56 -19.5 89.5t-51 51t-72.5 24t-82 6.5q-45 0 -84.5 -6.5t-71 -22.5t-53.5 -43.5t-30 -68.5q-5 -19 -16 -34.5t-25.5 -25t-32 -13 t-36.5 -0.5q-19 4 -33.5 15t-24.5 25.5t-13 32.5q-3 20 0 38q16 73 57.5 124t100 83t130 46.5t148.5 14.5q47 0 94.5 -4.5t91 -16.5t81.5 -33.5t67.5 -54t45.5 -78.5t16 -111v-537v-49t4.5 -32t14 -18t28.5 -9q52 -3 64 -55q2 -13 2 -24q0 -16 -6 -30q-10 -22 -29.5 -34.5 t-45.5 -17.5t-54 -5q-32 0 -60.5 10t-49 30.5t-32 51t-11.5 71.5q-31 -41 -70.5 -71.5t-86 -51t-98 -30.5t-103.5 -10q-73 0 -136.5 16t-111 52.5t-75.5 92.5q-27 55 -27 136zM263 286q0 -41 16 -68.5t43.5 -45t63.5 -25t75 -7.5q84 0 141.5 23.5t94.5 57t54 74.5t17 76v172 q-23 -14 -56 -24.5t-73 -18t-83.5 -13t-85 -15t-79.5 -23.5t-66.5 -35t-45 -52.5t-16.5 -75.5z" />
<glyph unicode="b" horiz-adv-x="1201" d="M128 79v1302q0 21 7.5 38.5t20 29t29 19t37.5 7.5q19 0 35.5 -7.5t29 -19t20 -29t7.5 -38.5v-455q26 38 62.5 67.5t79 50t90 31.5t93.5 11q81 0 149 -22t122 -59t94.5 -89t68.5 -114t41 -131t13 -142q0 -114 -30.5 -215t-90.5 -176t-150.5 -118t-210.5 -43 q-38 0 -82.5 6.5t-89 24t-86.5 46.5t-73 74v-49q0 -21 -7.5 -38.5t-20 -29.5t-30 -19t-34.5 -7q-19 0 -36.5 7t-30 19t-19.5 29q-8 18 -8 39zM305 531q0 -75 17 -145.5t55.5 -125t100.5 -87.5t150 -33q86 0 143.5 33.5t92.5 87.5t50.5 125.5t15.5 147.5q0 70 -17.5 139.5 t-55.5 124.5t-97 89t-144 34t-144.5 -34t-96 -89.5t-53.5 -125.5t-17 -141z" />
<glyph unicode="c" horiz-adv-x="1073" d="M72 517q0 117 29.5 221t91 181t155 122t220.5 45q76 0 144 -16t124 -49t97.5 -81.5t65.5 -116.5q5 -19 4 -37t-8.5 -34t-20.5 -29t-31 -19q-17 -6 -36 -6t-36 8t-30 22q-15 14 -20 31q-27 79 -85.5 120.5t-151.5 41.5q-92 0 -154 -33.5t-98.5 -89.5t-52.5 -129t-16 -152 q0 -48 7 -94t22.5 -88.5t39.5 -77.5t57 -61.5t76 -41t97 -14.5q113 0 178.5 52.5t90.5 153.5q6 18 18 31.5t27.5 22.5t34 10.5t35.5 -4.5q18 -6 31.5 -17.5t21.5 -27.5q7 -16 9 -35q0 -4 1 -8q0 -15 -5 -29q-23 -76 -62.5 -134.5t-94 -97.5t-125.5 -59.5t-160 -20.5 q-123 0 -214 40t-152.5 112t-92.5 171.5t-31 216.5z" />
<glyph unicode="d" horiz-adv-x="1198" d="M72 529q0 73 13.5 142t40.5 131t68 114t95 89t121 59q66 22 148 22q46 0 94.5 -11t90.5 -30.5t78.5 -49.5t63.5 -68v454q0 21 7 38.5t19.5 29t29.5 19t37 7.5q19 0 36 -7.5t29.5 -19t19.5 -29t7 -38.5v-1302q0 -21 -7 -38.5t-19.5 -29.5t-30 -19t-35.5 -7q-19 0 -36.5 7 t-30 19t-19.5 29q-7 18 -7 39v49q-32 -45 -73 -74t-86.5 -46.5t-90.5 -24t-83 -6.5q-120 0 -209.5 43t-150.5 118t-90.5 176t-29.5 215zM269 534q0 -76 14.5 -147.5t49.5 -125.5t93.5 -87.5t144.5 -33.5q87 0 149.5 33t100 87.5t55.5 125t18 145.5q0 71 -16.5 141 t-54.5 125.5t-96 89.5t-144 34q-85 0 -144 -34t-97 -89t-55.5 -124.5t-17.5 -139.5z" />
<glyph unicode="e" horiz-adv-x="1087" d="M72 534q0 120 35.5 221t101 174t156.5 115t200 42q85 0 153.5 -21t122 -57.5t91 -86t62.5 -108t36.5 -122t11.5 -129.5q0 -17 -7 -33.5t-19 -28t-28 -17.5q-19 -7 -36 -7h-689q0 -69 19 -129.5t59 -106.5t100.5 -73t142.5 -27q88 0 153.5 39t97.5 122q15 38 45 51 q16 7 33 7q16 0 33 -6q18 -6 31 -19t20 -27.5t7 -32t-5 -35.5q-27 -64 -67.5 -113.5t-94.5 -83t-120 -49.5t-139 -16q-127 0 -221 40.5t-156 115t-94 177.5q-31 102 -35 224zM263 637h587q0 64 -20.5 116.5t-58.5 90.5t-93 57.5t-122 19.5q-64 0 -116.5 -22.5t-90 -61 t-60 -90.5t-26.5 -110z" />
<glyph unicode="f" horiz-adv-x="610" d="M18 978q0 18 5.5 32.5t16.5 26t26.5 18t32.5 6.5h98v145q0 73 25.5 127t72.5 87.5t112 45.5q36 7 77 7q31 0 65 -4q38 -3 59 -28q17 -22 17 -51v-9q-3 -35 -28 -55q-20 -17 -47 -17q-7 0 -14 1q-29 3 -57 0t-49 -15.5t-34 -36t-13 -61.5v-136h128q18 0 33 -6.5t26 -18 t17 -26t6 -32.5q0 -17 -6 -32.5t-17 -26.5t-26 -18t-33 -7h-128v-815q0 -21 -7.5 -38.5t-20.5 -29.5t-29 -19t-37 -7q-19 0 -35.5 7t-29 19t-20.5 29q-7 18 -7 39v815h-98q-17 0 -32.5 7t-26.5 18t-16.5 26.5t-5.5 32.5z" />
<glyph unicode="g" horiz-adv-x="1165" d="M72 526q0 61 10 127.5t33.5 128.5t60.5 117.5t91 96.5t127 65.5t165 24.5q95 0 174 -43t131 -122v69q0 20 7.5 35t19 26.5t27 18t33 6.5t33.5 -6.5t27.5 -17.5t18.5 -27q7 -15 7 -35v-894q0 -130 -29.5 -228.5t-89.5 -164t-153 -98.5t-222 -33q-58 0 -119.5 12.5 t-117 37.5t-100.5 65.5t-69 96.5q-7 17 -7 35.5t6.5 34.5t19.5 29t31 21q17 7 34.5 6t34.5 -7.5t30 -18.5t21 -30q13 -34 40 -58.5t62 -40t74.5 -22.5t75.5 -7q83 0 141.5 28t95 80t52.5 123.5t16 156.5v55q-23 -43 -58 -76t-78 -55.5t-90.5 -34.5t-97.5 -12 q-117 0 -205 42.5t-146.5 116t-87.5 171t-29 205.5zM263 543q0 -70 14.5 -138.5t48 -125.5t88.5 -92t136 -35q57 0 101.5 16t79 45t58 67t38 82t22 92t7.5 96q0 44 -7.5 89.5t-22 87t-37.5 76.5t-55 61.5t-73.5 41.5t-95.5 15q-82 0 -139.5 -30.5t-94 -82.5t-52.5 -120.5 t-16 -144.5z" />
<glyph unicode="h" horiz-adv-x="1130" d="M128 79v1302q0 21 7.5 38.5t20 29t29 19t37.5 7.5q19 0 35.5 -7.5t29 -19t20 -29t7.5 -38.5v-464q23 38 62 68.5t83.5 52.5t92 35t87.5 13q107 0 177 -29t111.5 -81.5t58 -124t16.5 -155.5v-617q0 -21 -7.5 -38.5t-20.5 -29.5t-29 -19t-37 -7q-19 0 -35.5 7t-29 19 t-20.5 29q-7 18 -7 39v636q0 97 -52 151.5t-151 54.5q-76 0 -131.5 -25.5t-93.5 -68.5t-56 -101q-18 -57 -18 -124v-523q0 -21 -7.5 -38.5t-20 -29.5t-30 -19t-34.5 -7q-19 0 -36.5 7t-30 19t-19.5 29q-8 18 -8 39z" />
<glyph unicode="i" horiz-adv-x="465" d="M134 1359.5q0 20.5 7.5 38.5t20.5 32t31 22q20 8 40.5 8t38 -8t32 -22t22 -32t7.5 -38.5t-7.5 -39t-22 -31.5t-32 -21t-38 -8t-39.5 8t-32 21t-20.5 31.5t-7.5 39zM143 79v905q0 20 7.5 37t20.5 29.5t30 19t36 6.5t35.5 -6.5t29.5 -18t20.5 -29.5t7.5 -38v-905 q0 -21 -7.5 -38.5t-20.5 -29.5t-29.5 -19t-35.5 -7t-36 7t-30 19t-21 29q-7 18 -7 39z" />
<glyph unicode="j" horiz-adv-x="459" d="M-41 -315q0 17 4.5 31.5t14.5 25.5t25 16t35 5q32 -2 52.5 5t31.5 23t14.5 44t3.5 66v1083q0 20 7.5 37t20 29.5t29 19t37.5 6.5q19 0 35.5 -6.5t29 -18t20 -29.5t7.5 -38v-1110q0 -71 -18.5 -123t-52 -85.5t-81.5 -48.5q-48 -14 -108 -14q-18 0 -37.5 3.5t-35 13 t-25 25.5t-9.5 40zM134 1359.5q0 20.5 7.5 38.5t20.5 32t31 22q20 8 40.5 8t38 -8t32 -22t22 -32t7.5 -38.5t-7.5 -39t-22 -31.5t-32 -21t-38 -8t-39.5 8t-32 21t-20.5 31.5t-7.5 39z" />
<glyph unicode="k" horiz-adv-x="997" d="M128 79v1302q0 21 7.5 38.5t20 29t29 19t37.5 7.5q19 0 35.5 -7.5t29 -19t20 -29t7.5 -38.5v-771l463 444q11 12 26.5 17.5t31 5t30 -7t26.5 -18.5q11 -11 17 -27.5t6 -32.5t-7.5 -30.5t-18.5 -26.5l-284 -261l360 -539q11 -18 14 -36q2 -9 2 -18t-2 -18q-3 -18 -13 -34 q-10 -13 -28 -25q-16 -12 -34 -15t-35.5 0t-33.5 13.5t-27 27.5l-343 511l-150 -137v-324q0 -21 -7.5 -38.5t-20 -29.5t-30 -19t-34.5 -7q-19 0 -36.5 7t-30 19t-19.5 29q-8 18 -8 39z" />
<glyph unicode="l" horiz-adv-x="462" d="M140 79v1302q0 21 7.5 38.5t19 29t29 19t36.5 7.5t36 -7.5t29.5 -19t19.5 -29t7 -38.5v-1302q0 -21 -7 -38.5t-19.5 -29.5t-29.5 -19t-36 -7t-36.5 7t-29 19t-19.5 29q-7 18 -7 39z" />
<glyph unicode="m" horiz-adv-x="1727" d="M128 79v908q0 20 7.5 36.5t19 28t28 18t36.5 6.5q18 0 34 -6.5t29 -18t19.5 -28t6.5 -36.5v-73q58 90 138.5 131t190.5 41q46 0 91.5 -10t84 -31.5t68.5 -54t49 -79.5q58 92 137 133.5t180 41.5q82 0 146 -18t111 -57t71.5 -97t24.5 -143v-692q0 -21 -7 -38.5 t-20.5 -29.5t-30 -19t-35.5 -7t-36 7t-30 19t-20 29q-8 18 -8 39v615q0 46 -7 87.5t-28.5 72.5t-59.5 49q-36 18 -97.5 18t-111 -18t-83 -53t-51 -83.5t-17.5 -109.5v-578q0 -21 -7.5 -38.5t-20.5 -29.5t-30 -19t-36 -7t-35.5 7t-30 19t-20.5 29q-7 18 -7 39v615 q0 48 -7.5 89.5t-28.5 72t-57 48t-91 17.5q-51 0 -91 -13.5t-71 -36.5t-51.5 -51.5t-33.5 -57.5t-19.5 -57t-6.5 -48v-578q0 -21 -7.5 -38.5t-20 -29.5t-30 -19t-34.5 -7q-19 0 -36.5 7t-30 19t-19.5 29q-8 18 -8 39z" />
<glyph unicode="n" horiz-adv-x="1130" d="M128 79v908q0 20 7.5 36.5t19 28t28 18t36.5 6.5q18 0 34 -6.5t29 -18t19.5 -28t6.5 -36.5v-85q54 94 136 139t195 45q107 0 177 -29t111.5 -80t58 -120t16.5 -150v-628q0 -21 -7.5 -38.5t-20.5 -29.5t-29 -19t-37 -7q-19 0 -35.5 7t-29 19t-20.5 29q-7 18 -7 39v628 q0 111 -52 162.5t-151 51.5q-76 0 -131.5 -25.5t-93.5 -68.5t-56 -101q-18 -57 -18 -124v-523q0 -21 -7.5 -38.5t-20 -29.5t-30 -19t-34.5 -7q-19 0 -36.5 7t-30 19t-19.5 29q-8 18 -8 39z" />
<glyph unicode="o" horiz-adv-x="1162" d="M72 529q0 116 32.5 218.5t97 177.5t159.5 118t223 43q126 0 220.5 -43t159 -118t97.5 -177q34 -103 34 -219t-33.5 -216.5t-98 -176t-159 -117.5t-220.5 -42q-127 0 -222.5 42t-160 117.5t-97 176t-32.5 216.5zM263 529q0 -97 24.5 -169t68 -121t102.5 -74t126 -25 q64 0 121 25t101 74t68.5 121t24.5 169q0 93 -24.5 166t-68.5 123.5t-102 76.5q-56 26 -120 26q-67 0 -126 -26t-102.5 -76.5t-68 -123.5t-24.5 -166z" />
<glyph unicode="p" horiz-adv-x="1201" d="M128 -321v1305q0 20 7.5 37t20 29.5t29 19t37.5 6.5q19 0 35.5 -6.5t29 -18t20 -29.5t7.5 -38v-53q32 44 73.5 75t86 48.5t89 24t82.5 6.5q120 0 210.5 -43t150.5 -119t90.5 -177t30.5 -215q0 -73 -13 -141.5t-41 -131t-68.5 -114t-94.5 -89t-121.5 -59t-149.5 -21.5 q-105 0 -188 39t-137 120v-455q0 -21 -7.5 -38.5t-20 -29t-30 -18t-34.5 -6.5q-19 0 -36.5 6.5t-30 19t-20 29t-7.5 37.5zM305 529q0 -47 7.5 -94.5t22.5 -90.5t40 -80.5t59.5 -65t79.5 -43t102 -15.5q85 0 144 33.5t97 89t55.5 125t17.5 139.5q0 76 -15.5 147t-50.5 125.5 t-92.5 87.5t-143.5 33q-88 0 -150 -32t-100.5 -87t-55.5 -126t-17 -146z" />
<glyph unicode="q" horiz-adv-x="1195" d="M69 531q0 114 29.5 215t90.5 177t150.5 119t209.5 43q38 0 83 -6.5t90.5 -24t86.5 -47.5q41 -32 73 -76v53q0 20 7 38t19.5 29.5t29.5 18t37 6.5q19 0 36 -6.5t29.5 -19t19.5 -29.5t7 -37v-1305q0 -21 -7 -37.5t-19.5 -29t-30 -19t-35.5 -6.5q-19 0 -36.5 6.5t-30 18 t-19.5 29t-7 38.5v455q-54 -81 -138 -120t-189 -39q-82 0 -148.5 21.5t-120.5 59t-95 89t-68 114t-40.5 131t-13.5 141.5zM266 527q0 -70 16 -139.5t53 -125t97 -89t148 -33.5q57 0 102 15.5t79.5 43t59 65t40 80.5t23 90.5t7.5 94.5q0 75 -17.5 146t-55.5 126t-99.5 87 t-150.5 32q-85 0 -142.5 -34.5t-92.5 -90t-51 -125.5t-16 -143z" />
<glyph unicode="r" horiz-adv-x="690" d="M128 79v908q0 20 7.5 36.5t19 28t28 18t36.5 6.5q18 0 34 -6.5t29 -18t19.5 -28t6.5 -36.5v-126q50 94 113.5 148t156.5 68q9 1 17 1q11 0 21 -2q18 -4 34 -14.5t26 -26.5q10 -17 13 -37q1 -8 1 -16q0 -12 -2 -22q-4 -18 -14.5 -33.5t-26.5 -25.5t-37 -13 q-83 -11 -140 -43.5t-91 -85t-50 -125.5q-15 -70 -15 -161v-394q0 -21 -7.5 -38.5t-20 -29.5t-30 -19t-34.5 -7q-19 0 -36.5 7t-30 19t-19.5 29q-8 18 -8 39z" />
<glyph unicode="s" horiz-adv-x="1013" d="M73 273q3 19 11.5 34.5t22 27t33.5 17.5q18 6 36 3.5t33.5 -11t27.5 -22.5q11 -15 17 -33q12 -42 36.5 -70.5t59.5 -46t79 -25.5q41 -7 88 -7q39 0 82 6t78 22t58.5 45t23.5 76q0 44 -23.5 72.5t-61 46.5t-89 31.5t-106.5 27.5q-47 12 -94.5 23.5t-91 27.5t-82.5 39 t-68 54t-45 72t-16 97q0 81 35 139t91 95t127 54.5t144 17.5t140 -11.5t121 -39.5t93.5 -73t58.5 -114q6 -17 4 -35.5t-11 -34.5t-23.5 -27.5t-32 -17.5t-36.5 -3t-34.5 11t-28 22t-16.5 33q-12 35 -34.5 59t-53 38.5t-65.5 21t-70 6.5t-74 -5.5t-70.5 -20.5t-52 -40.5 t-20.5 -63.5q0 -35 22 -59.5t58 -42t83 -31.5q45 -13 97 -24q98 -24 176 -50t132 -62.5t83.5 -86.5t29.5 -121q0 -66 -19 -117t-49.5 -87.5t-74.5 -63t-93 -41.5t-103 -21.5t-108 -6.5q-79 0 -148 13t-125.5 44.5t-97.5 81t-61 121.5q-4 11 -4 24q0 6 1 12z" />
<glyph unicode="t" horiz-adv-x="639" d="M12 978q0 18 5.5 32.5t16.5 26t26.5 18t32.5 6.5h98v235q0 21 7.5 38.5t20 29t30 19t34.5 7.5q19 0 36 -7.5t30 -19t20.5 -29t7.5 -38.5v-235h128q18 0 33 -6.5t26 -18t17 -26t6 -32.5q0 -17 -6 -32t-17 -26.5t-26 -18.5t-33 -7h-128v-640q0 -38 11.5 -60t32.5 -33.5 t49.5 -13t59.5 1.5q18 3 34 -1t27.5 -14.5t18.5 -24.5q6 -13 9 -30v-9q1 -29 -17 -51q-20 -25 -59 -29q-37 -4 -71 -4q-41 0 -77 6q-65 11 -110.5 43t-69.5 84.5t-24 125.5v649h-98q-17 0 -32.5 7t-26.5 18.5t-16.5 26.5t-5.5 32z" />
<glyph unicode="u" horiz-adv-x="1135" d="M128 353v631q0 20 7.5 38t20 29.5t29 18t37.5 6.5q19 0 35.5 -6.5t29 -19t20 -29.5t7.5 -37v-637q0 -55 14 -95t41 -64t65.5 -36t88.5 -12q76 0 131.5 25t93 68.5t56 102t18.5 125.5v523q0 20 7.5 38t19.5 29.5t29.5 18t35.5 6.5q19 0 36 -6.5t30 -19t20 -29.5t7 -37 v-908q0 -21 -7 -38.5t-19 -29t-28 -17.5q-19 -6 -36 -6q-19 0 -34.5 7t-28.5 18.5t-19.5 28t-6.5 37.5v82q-54 -94 -136 -137.5t-196 -43.5q-106 0 -177 29t-113 80t-60 119.5t-18 147.5z" />
<glyph unicode="v" horiz-adv-x="1013" d="M56 984q2 20 9.5 37t22.5 30q14 15 33 21q19 5 38 4t36.5 -9.5t30.5 -22t19 -34.5l275 -803l260 809q5 18 17.5 31t28.5 21t34 8q2 0 4 1q17 0 34 -5q17 -6 31 -19t21.5 -28.5t7.5 -33.5q0 -19 -6 -36l-327 -902q-6 -18 -14.5 -31t-21 -22t-32.5 -13.5t-49 -4.5t-48 4.5 t-32 13.5t-21 22q-10 13 -16 31l-328 893q-7 16 -7 32v6z" />
<glyph unicode="w" horiz-adv-x="1535" d="M58 986q2 20 10 37t22.5 30t35 18.5t39.5 4.5t36.5 -10t30 -23.5t18.5 -35.5l214 -782l193 778q9 34 33 54q25 20 81 20q28 0 47.5 -5.5t32.5 -14.5t20.5 -22t13.5 -31l201 -782l215 791q6 18 17 32.5t27 22t35 8.5t36 -3q18 -6 31.5 -18.5t22 -27.5t9.5 -33v-7 q0 -15 -4 -29l-288 -907q-6 -17 -13 -29.5t-19.5 -20.5t-31.5 -12t-47 -4q-29 0 -47.5 4t-31.5 12t-20.5 21t-11.5 31l-200 757l-190 -757q-4 -18 -12 -31t-21 -21t-33 -12q-18 -4 -48 -4q-29 0 -48 4.5t-32 12.5t-21 21q-7 12 -13 30l-286 893q-4 15 -4 29q0 5 1 11z" />
<glyph unicode="x" horiz-adv-x="972" d="M50 59q-2 8 -2 16.5t2 17.5q3 18 14 34l304 429l-270 370q-12 16 -15.5 34t-0.5 37t13 34q10 14 25 26q16 12 35 16q12 2 23 2q7 -1 14 -1q18 -2 34 -12.5t28 -27.5l231 -335l233 338q12 16 26 25q14 10 32 12l18 2l18 -2q18 -2 33 -14t24.5 -26.5t13 -32t0 -35 t-15.5 -33.5l-267 -362l308 -435q12 -18 16 -36q2 -9 2 -18q0 -10 -2 -18q-4 -18 -13.5 -33.5t-25.5 -27.5t-34.5 -15.5t-36.5 0t-34 13.5q-15 8 -27 25l-268 399l-272 -402q-12 -16 -26.5 -25.5t-32.5 -12.5q-8 -1 -14 -1l-20 2q-18 4 -34 15q-14 11 -23.5 26t-12.5 32z " />
<glyph unicode="y" horiz-adv-x="1013" d="M58 1021q8 17 22 30q13 15 31 21q15 6 31 6h5q19 -1 36.5 -8t31.5 -21q13 -15 19 -33l289 -797l271 803q6 18 17.5 30t28 18.5t35.5 6.5t36.5 -5.5t29 -18t19 -28t7.5 -34.5t-6 -36l-413 -1092q-30 -76 -60.5 -129.5t-67 -87t-81 -49t-100.5 -15.5q-23 0 -49 3t-48 13.5 t-37 28.5q-14 17 -12 49q2 17 8.5 32.5t18 26.5t28 15.5t36.5 1.5q9 -2 17.5 -2.5t17.5 -0.5q47 0 83.5 22t53.5 68l69 176l-370 933q-6 15 -6 32q0 22 9 41z" />
<glyph unicode="z" horiz-adv-x="973" d="M34 91q0 32 20 56l616 747h-512q-18 0 -33 7t-26 18.5t-17 26.5t-6 32q0 18 6 32.5t17 26t26 18t33 6.5h695q35 0 54 -24t19 -57q0 -30 -18 -51l-628 -765h555q38 0 60 -23.5t22 -58.5t-23 -59q-21 -23 -59 -23h-718q-38 0 -60.5 26.5t-22.5 64.5z" />
<glyph unicode="{" horiz-adv-x="675" d="M44 549q0 19 12.5 36t39.5 17q30 0 57.5 5.5t49.5 24.5t36.5 57t14.5 102v472q0 120 56 176t170 56h127q21 0 37.5 -17.5t16.5 -43.5q0 -32 -16.5 -49.5t-37.5 -17.5h-43q-34 0 -58 -3t-40 -15t-23.5 -36.5t-7.5 -71.5v-451q0 -59 -12.5 -99t-35 -67.5t-54 -45 t-67.5 -29.5q35 -12 66.5 -29.5t54 -46.5t35.5 -69q13 -39 13 -97v-450q0 -47 7.5 -72.5t23.5 -38t39.5 -14t58.5 -1.5h43q21 0 37.5 -17.5t16.5 -49.5q0 -29 -16.5 -45t-37.5 -16h-127q-114 0 -170 55.5t-56 175.5v473q0 64 -14.5 102t-36.5 57t-49.5 24.5t-57.5 5.5 q-27 0 -39.5 16.5t-12.5 36.5z" />
<glyph unicode="|" horiz-adv-x="448" d="M149 -369v1914q0 30 22 49t54 19t54 -19t22 -49v-1914q0 -31 -22 -50t-54 -19t-54 19t-22 50z" />
<glyph unicode="}" horiz-adv-x="675" d="M15 -336q0 32 16 49.5t38 17.5h45q33 0 57.5 1.5t39 14t21.5 38t7 72.5v450q0 58 13.5 97.5t36.5 68.5t54 46.5t67 29.5q-36 12 -67 29.5t-54 45t-36.5 68.5t-13.5 98v451q0 47 -7 71.5t-21.5 36.5t-39.5 15t-57 3h-45q-21 0 -37.5 17.5t-16.5 49.5q0 26 16 43.5t38 17.5 h127q114 0 170.5 -55.5t56.5 -176.5v-472q0 -64 13.5 -102t36 -57t51 -24.5t56 -5.5t41 -16.5t13.5 -36.5t-13.5 -36.5t-40.5 -16.5q-30 0 -57.5 -5.5t-50 -24.5t-36 -57t-13.5 -102v-473q0 -120 -56.5 -175.5t-170.5 -55.5h-127q-21 0 -37.5 16t-16.5 45z" />
<glyph unicode="~" horiz-adv-x="1216" d="M128 438q0 39 17 80t49 74t78 54t102 21q52 0 103.5 -16.5t102.5 -37t100 -41t97 -27t95.5 6t94.5 55.5q17 18 34.5 31t36.5 13q15 0 24.5 -5t16 -14.5t8.5 -19.5t2 -22q0 -40 -17.5 -80.5t-51 -73.5t-80.5 -55q-46 -22 -108 -22q-51 0 -101.5 17.5t-99 38l-97 41t-96 27 t-94 -6t-93.5 -56.5q-17 -17 -34.5 -30t-36.5 -13q-15 0 -24.5 5t-16 14.5t-9 19.5t-2.5 22z" />
<glyph unicode="&#xa2;" horiz-adv-x="1127" d="M108 712q0 103 26.5 191t81 154.5t135.5 109t188 51.5v151q0 17 11.5 27.5t27.5 10.5q15 0 26.5 -11.5t11.5 -26.5v-147q78 -4 141.5 -24.5t108.5 -52t71 -70.5q27 -38 30 -79q2 -34 -14 -56.5t-57 -31.5q-20 -4 -35.5 1t-27.5 13.5t-22.5 20.5t-16.5 22 q-11 18 -24.5 37.5t-34 35.5t-48 26.5t-71.5 12.5v-689q41 6 68.5 18.5t46.5 28t33 33.5q13 20 27 37q9 15 18 26.5t20 20.5t24.5 13t32.5 4q16 0 30.5 -6.5t25.5 -17.5t18 -24t7 -28q0 -36 -21.5 -76t-64.5 -76.5t-108.5 -61.5t-156.5 -31v-160q0 -15 -11.5 -26.5 t-26.5 -11.5q-17 0 -28 11t-11 27v160q-111 6 -192 44t-134.5 100t-79 144t-25.5 176zM307 712q0 -61 14.5 -113.5t43.5 -95t73 -71.5t101 -41v685q-50 -6 -93 -33t-73.5 -73t-48 -111t-17.5 -147z" />
<glyph unicode="&#xa3;" horiz-adv-x="1127" d="M61 705q0 24 10.5 36t32.5 12h150q-29 41 -50.5 85t-36.5 85.5t-22.5 80t-7.5 71.5q0 87 34.5 161t95 127t142.5 84t175 31q79 0 143 -14t116.5 -38t90.5 -55.5t64.5 -67.5t39 -74t12.5 -73q0 -46 -27 -69.5t-71 -23.5q-18 0 -29.5 6t-20 17.5t-14.5 24.5t-13 29 q-15 32 -33.5 65t-48 61t-75 45.5t-112.5 17.5q-54 0 -103 -18.5t-86 -54t-59 -86t-22 -114.5q0 -35 6.5 -73t18 -77t27 -78.5t35.5 -74.5h246q36 0 54.5 -11.5t18.5 -36.5q0 -48 -73 -48h-215q15 -35 23 -69q11 -33 11 -49q4 -102 -45 -193.5t-151 -184.5q55 21 106.5 30.5 t99.5 9.5t95.5 -7t98.5 -17q35 -8 70 -16.5t76 -8.5q22 0 41.5 4.5t38.5 11t38 11.5t37 5q30 0 49 -23.5t19 -58.5t-16 -58.5t-41.5 -39.5t-58.5 -23t-65 -7q-39 0 -84 9q-43 10 -101 26q-66 17 -132.5 31.5t-139.5 14.5q-59 0 -111 -14.5t-96 -44.5q-15 -11 -29.5 -14.5 t-25.5 -3.5q-33 0 -52.5 24t-19.5 67q0 32 21 64.5t54 66.5q24 26 53.5 57t55 67.5t43 79.5t17.5 92q0 35 -11.5 77t-28.5 84h-176q-25 0 -40.5 11.5t-15.5 36.5z" />
<glyph unicode="&#xa5;" horiz-adv-x="1201" d="M76 1381q0 21 8.5 37.5t25 29t38.5 19.5q24 6 51 6q20 0 35.5 -8t26.5 -18t18 -22t12 -20l311 -614l309 615q3 7 11 19t19 23t27 19t36 8q27 0 50 -7.5t39.5 -20.5t25 -29t8.5 -37q0 -14 -5 -30q-5 -14 -15 -31l-310 -535h200q21 0 34.5 -13t13.5 -33.5t-13.5 -35 t-34.5 -14.5h-257l-30 -52v-106h287q22 0 35 -15t13 -32.5t-13 -33t-35 -15.5h-287v-339q0 -49 -28 -80t-80 -31q-53 0 -82 30q-29 32 -29 81v339h-285q-24 0 -36 14.5t-12 33.5t13 33.5t35 14.5h285v106l-30 52h-255q-22 0 -35 14.5t-13 35t13 33.5t35 13h200l-310 535 q-10 17 -15 32t-5 29z" />
<glyph unicode="&#xa9;" horiz-adv-x="1626" d="M48 721q0 105 28 203t78 181t119.5 152t154 118t182 76t200.5 27q104 0 200.5 -27t181 -76t154.5 -118t119.5 -152t77 -181t27.5 -203q0 -108 -27.5 -207t-77 -183t-119.5 -152t-154.5 -116t-181 -73t-200.5 -25q-103 0 -200.5 25t-182 73t-154 116t-119.5 152t-78 182.5 t-28 207.5zM210 721q0 -134 44 -249.5t124 -198.5t190.5 -130t241.5 -47q85 0 162.5 21.5t144 61t121 95.5t93 125.5t59 150.5t20.5 171q0 91 -20.5 171t-59 149t-93 124.5t-121 94t-144 59.5t-162.5 21q-87 0 -165.5 -21t-145.5 -59.5t-121 -94t-91 -124.5t-57 -149 t-20 -171zM409 715q0 97 27.5 178.5t80 142t128.5 95t173 34.5q78 0 140.5 -22.5t105.5 -57t66 -76.5t23 -80q0 -21 -7 -35.5t-16 -23.5t-19 -13t-16 -4q-18 0 -29.5 5t-20 13t-15.5 19t-12 22q-12 24 -26.5 45t-37.5 38.5t-56.5 29.5t-79.5 12q-54 0 -100 -22t-78.5 -63 t-51.5 -99.5t-19 -131.5q0 -70 19 -130t52 -102t79 -67t102 -25q43 0 75.5 11.5t54 29.5t37.5 39.5t30 42.5q7 13 15 25.5t17.5 21t22.5 14.5t29 6q27 0 43 -16t16 -47q0 -23 -10.5 -50t-30 -55.5t-49 -55.5t-66.5 -47.5t-83 -33.5t-101 -13q-94 0 -170 35t-130 94.5 t-83 141.5t-29 175z" />
<glyph unicode="&#xab;" horiz-adv-x="938" d="M72 568q0 35 15 66.5t41 51.5l202 146q10 8 23 14.5t28 6.5q13 0 24 -6t19 -16t13 -23q4 -11 4 -25q0 -24 -14 -43q-15 -19 -36 -33l-201 -139l203 -139q20 -13 34 -32.5t14 -43.5q0 -13 -4.5 -25.5t-12.5 -22.5t-19 -16t-24 -6q-16 0 -27.5 6t-23.5 15h1h-1l-202 146 q-27 20 -41.5 51.5t-14.5 66.5zM467 568q0 35 14.5 66.5t41.5 51.5l201 146q10 8 24 14.5t29 6.5q13 0 24 -6t18 -16t12 -23q6 -11 6 -25q0 -24 -14 -43t-36 -33l-203 -139l204 -139q21 -13 35 -32.5t14 -43.5q0 -13 -5.5 -25.5t-12.5 -22.5t-19 -16t-23 -6q-16 0 -28.5 6 t-22.5 15h1h-3l-201 146q-28 20 -42 51.5t-14 66.5z" />
<glyph unicode="&#xad;" horiz-adv-x="938" d="M82 549q0 16 6.5 30t17.5 25.5t25 17.5q12 6 30 6h619q16 0 29.5 -6t24.5 -17.5t17.5 -26t6.5 -29.5q0 -18 -6.5 -32.5t-17.5 -24.5t-25.5 -16t-28.5 -6h-619q-18 0 -31 6t-24 16t-17.5 24.5t-6.5 32.5z" />
<glyph unicode="&#xae;" horiz-adv-x="1617" d="M48 721q0 105 28 203t78 181t119.5 152t154 118t182 76t200.5 27q104 0 200.5 -27t181 -76t154.5 -118t119.5 -152t77 -181t27.5 -203q0 -108 -27.5 -207t-77 -183t-119.5 -152t-154.5 -116t-181 -73t-200.5 -25q-103 0 -200.5 25t-182 73t-154 116t-119.5 152t-78 182.5 t-28 207.5zM210 721q0 -134 44 -249.5t124 -198.5t190.5 -130t241.5 -47q85 0 162.5 21.5t144 61t121 95.5t93 125.5t59 150.5t20.5 171q0 91 -20.5 171t-59 149t-93 124.5t-121 94t-144 59.5t-162.5 21q-87 0 -165.5 -21t-145.5 -59.5t-121 -94t-91 -124.5t-57 -149 t-20 -171zM515 383v657q0 20 7 34.5t18.5 25t26 15.5t29.5 5h268q67 0 121.5 -12t92 -39.5t58.5 -74.5q20 -48 20 -118q0 -55 -18 -97t-48 -70.5t-67 -43.5q-36 -14 -77 -17l152 -209q23 -32 25.5 -62t-28.5 -56q-20 -17 -39 -20t-36.5 3.5t-34 20.5t-27.5 31l-205 292h-77 v-265q0 -44 -23 -64q-25 -20 -57 -20t-57 21q-24 19 -24 63zM676 771h191q27 0 50 4.5t40.5 17.5t28 35t10.5 57t-10.5 56t-28 33.5t-40.5 17t-50 4.5h-191v-225z" />
<glyph unicode="&#xbb;" horiz-adv-x="938" d="M102 353q0 24 14 43q15 20 36 33l203 139l-203 139q-21 14 -35.5 33t-14.5 43q0 14 4.5 26t13 22t19 16t25 6t27.5 -7.5t22 -13.5l202 -146q26 -19 42 -50.5t16 -67.5q0 -35 -15 -67q-14 -31 -43 -51l-202 -146q-10 -9 -22.5 -15t-26.5 -6t-25 6t-19.5 16t-13 22.5 t-4.5 25.5zM496 353q0 24 15 43.5t35 32.5l204 139l-204 139q-20 14 -35 33t-15 43q0 14 5.5 26t13.5 22t19 16t24 6q14 0 27.5 -7.5t23.5 -13.5l201 -146q27 -19 42 -50.5t15 -67.5q0 -35 -14 -67q-15 -31 -43 -51l-201 -146h-2q-10 -9 -21.5 -15t-27.5 -6q-13 0 -24 6 t-19 16t-13.5 22.5t-5.5 25.5z" />
<glyph unicode="&#xbc;" horiz-adv-x="1703" d="M136 1200q1 -25 20 -39.5t43 -12.5q52 2 94.5 12.5t77.5 30.5v-578q0 -28 18 -44q17 -17 43 -17t44.5 16.5t18.5 44.5v765q0 12 -5 23t-13 19t-19 13t-23 5q-20 0 -35 -12.5t-20 -29.5q-12 -38 -30.5 -61.5t-42.5 -38t-54.5 -22t-65.5 -10.5q-12 -1 -22 -7t-16.5 -14.5 t-10.5 -19.5t-2 -23zM475 25q-1 10 2 22q2 11 8 20l721 1358q13 26 34 37q21 10 45 1q14 -6 20 -16t7.5 -22t-1.5 -23.5t-9 -23.5l-718 -1358q-15 -26 -38 -34.5t-48 4.5q-12 6 -17 15.5t-6 19.5zM955 263q0 -34 22 -56.5t57 -22.5h312v-143q0 -28 18 -45q17 -18 43.5 -18 t44.5 17.5t18 45.5v143h70q27 0 43 17.5t16 40.5q0 24 -16 41.5t-43 17.5h-70v509q0 27 -18 46.5t-47 19.5q-18 0 -31 -7.5t-22 -18.5l-384 -540q-13 -21 -13 -47zM1095 301l251 338v-338h-251z" />
<glyph unicode="&#xbd;" horiz-adv-x="1703" d="M136 1200q1 -25 20 -39.5t43 -12.5q52 2 94.5 12.5t77.5 30.5v-578q0 -28 18 -44q17 -17 43 -17t44.5 16.5t18.5 44.5v765q0 12 -5 23t-13 19t-19 13t-23 5q-20 0 -35 -12.5t-20 -29.5q-12 -38 -30.5 -61.5t-42.5 -38t-54.5 -22t-65.5 -10.5q-12 -1 -22 -7t-16.5 -14.5 t-10.5 -19.5t-2 -23zM446 25q-1 10 2 22q2 11 8 20l721 1358q13 26 34 37q21 10 45 1q14 -6 20 -16t7.5 -22t-1.5 -23.5t-9 -23.5l-718 -1358q-15 -26 -38.5 -34.5t-47.5 4.5q-12 6 -17 15.5t-6 19.5zM1068 59q4 -17 12.5 -30t23 -21t33.5 -8h449q11 0 21.5 4.5t17.5 11.5 t11.5 17.5t4.5 21.5q0 12 -4.5 22.5t-11.5 19t-17.5 13t-21.5 4.5h-377q7 26 29.5 52.5t52.5 51t66 48.5q36 23 72.5 46.5t74.5 51t68 62.5t49.5 80.5t19.5 105.5q0 61 -22 108.5t-60 80.5t-88 49q-49 17 -107 17q-63 0 -115 -19t-90 -54t-59 -84q-21 -47 -24 -106 q0 -13 3.5 -25.5t11.5 -21t19 -14.5t23 -7q26 -2 46.5 15.5t23.5 41.5q3 32 14.5 61t31.5 51t47 36t62 14q30 0 57 -9.5t47.5 -28.5t32.5 -45.5t12 -58.5q0 -39 -13.5 -69t-38 -56.5t-64.5 -54.5q-39 -30 -92 -65q-35 -23 -70 -49.5t-65.5 -58.5t-55.5 -73t-38 -94 q-6 -17 -2 -34z" />
<glyph unicode="&#xbe;" horiz-adv-x="1703" d="M152 785q7 -56 31 -101t60.5 -74t87.5 -44q49 -16 110 -16q60 0 114.5 15.5t97 47t67.5 82t25 120.5q0 76 -33 131.5t-102 78.5q44 28 72 71t28 95q0 62 -20.5 108.5t-57 77t-86.5 45.5t-107 15q-58 0 -105.5 -17.5t-81 -50t-53.5 -76.5q-21 -46 -27 -99q-1 -13 2.5 -24 t11.5 -21t19 -16t23 -6q28 -3 47.5 14.5t22.5 42.5q3 28 14 53.5t29 45t42 31.5t56 12q31 0 56.5 -9t44 -25.5t29.5 -41t11 -56.5t-12.5 -55.5t-33 -40t-47 -24.5t-56.5 -8h-11q-24 0 -39 -14.5t-15 -38.5q0 -22 14 -37t40 -15h25q35 0 66.5 -9t53.5 -28t35 -46.5t13 -65.5 q0 -37 -12.5 -65.5t-35 -47.5t-54.5 -29t-70 -10q-35 0 -61.5 10t-47.5 27.5t-34 42.5q-12 25 -18 56q-3 25 -23 42.5t-45 15.5q-15 -1 -26 -7t-19.5 -16t-12.5 -22t-2 -24zM570.5 23.5q-1.5 11.5 1.5 23t9 23.5l718 1356q15 27 38.5 40t49.5 1q16 -7 24 -18t10.5 -23.5 t-1.5 -27t-10 -26.5l-718 -1354q-15 -30 -41 -40t-55 4q-13 8 -18.5 19t-7 22.5zM1019 263q0 -34 23 -56q21 -23 56 -23h312v-143q0 -28 19 -45.5t45.5 -17.5t44 17.5t17.5 45.5v143h70q26 0 42 17.5t16 40.5q0 24 -16 41.5t-42 17.5h-70v509q0 27 -19 46.5t-45 19.5 q-18 0 -31 -7.5t-22 -18.5l-385 -540q-15 -21 -15 -47zM1159 301l251 338v-338h-251z" />
<glyph unicode="&#xd7;" horiz-adv-x="1046" d="M63 929.5q0 15.5 5.5 30t17.5 26.5q12 11 26.5 17t30 6t30 -5t26.5 -17l327 -327l327 328q11 12 26 18t31 6t30.5 -5t26.5 -17q11 -12 16 -26.5t5 -30.5t-5 -30.5t-16 -26.5l-330 -328l328 -329q12 -12 17.5 -26.5t5.5 -29t-5.5 -29t-17.5 -26.5t-26.5 -17.5t-29.5 -5.5 t-30 5.5t-26 17.5l-327 327l-326 -324q-12 -12 -26.5 -17.5t-30 -5.5t-30 5t-25.5 17q-12 11 -18 25.5t-6 30t6 30t18 26.5l325 326l-327 325q-12 12 -17.5 26.5t-5.5 30z" />
<glyph unicode="&#xf7;" horiz-adv-x="1216" d="M82 549q0 16 6.5 30t17.5 25.5t25 17.5q12 6 30 6h892q16 0 30.5 -6t24.5 -17.5t17 -26t7 -29.5q0 -18 -7 -32.5t-17 -24.5t-24.5 -16t-30.5 -6h-892q-18 0 -31 6t-24 16t-17.5 24.5t-6.5 32.5zM473 128q0 30 10 54.5t29 44.5t44 31t51 11q30 0 54 -11t43 -31t30 -44.5 t11 -54.5q0 -24 -11 -47t-29.5 -41t-43 -29t-51.5 -11q-26 0 -51 10t-44.5 27.5t-30.5 41t-11 49.5zM473 967q0 27 10 52t29 43t44 30t51 12q30 0 54 -12t43 -30t30 -43.5t11 -52t-11 -51t-29.5 -43.5t-43 -29.5t-51.5 -10.5q-26 0 -51 10.5t-44.5 29.5t-30.5 43.5t-11 51.5 z" />
<glyph unicode="&#xe01;" horiz-adv-x="1255" d="M52 900q1 14 9 36q24 61 66 119t107 101.5t153.5 70t205.5 26.5q103 0 183.5 -20t141 -54t102 -82.5t67.5 -105.5t37.5 -120.5t11.5 -128.5v-657q0 -24 -8 -42t-22 -30.5t-31.5 -20t-37.5 -7.5q-21 0 -40 7.5t-32 19t-21 30.5t-8 43v680q0 57 -17 113t-57.5 101.5 t-106.5 73t-162 30.5q-57 0 -104.5 -10t-85 -27.5t-65.5 -41t-47 -47t-29.5 -46.5t-13.5 -41q21 -12 38.5 -33t28.5 -48t17 -60q7 -34 7 -69v-575q0 -24 -8 -42t-22 -30.5t-31.5 -20t-38.5 -7.5q-20 0 -37.5 7.5t-31.5 19t-22 30.5t-8 43v578q0 39 -8 79.5t-33 75.5 q-14 20 -26 33t-17 24t-4 25z" />
<glyph unicode="&#xe02;" horiz-adv-x="1059" d="M12 1150q0 15 5.5 29.5t16 25t24.5 16.5q15 5 30 5h210q30 0 48.5 -21.5t24.5 -54.5l210 -960l210 969q11 47 42 67.5t72 11.5q21 -3 37.5 -13t27.5 -24.5t15.5 -33.5t-1.5 -43l-231 -1004q-5 -29 -22 -54t-40.5 -43.5t-52.5 -27.5q-28 -10 -60 -10t-60.5 10.5t-51 28.5 t-39.5 43q-18 26 -24 56l-221 954h-94q-15 0 -29.5 6t-25 16.5t-16 23.5t-5.5 27z" />
<glyph unicode="&#xe03;" horiz-adv-x="1130" d="M61 1155.5q3 19.5 11 35t22 28t33 18.5q18 5 36 4.5t34 -9.5t29 -23q13 -15 19 -35q11 -32 35 -52.5t65 -20.5q38 0 64 19.5t38 51.5q11 30 37 49.5t59 19.5q21 0 40 -9t33.5 -22t21.5 -32t7 -41v-150q0 -41 -13 -73t-36.5 -60.5t-52.5 -56.5t-61 -61q-29 -32 -51 -58.5 t-36.5 -54t-22 -57t-7.5 -67.5v-81q0 -65 16 -114.5t46.5 -84.5t72.5 -53q43 -17 93 -17q46 0 86.5 13t70.5 43t46 78q17 47 17 117v742q0 23 8 41.5t21.5 30.5t31 19.5t37.5 7.5t38.5 -7.5t32.5 -20.5t21 -30.5t7 -40.5v-762q0 -106 -34 -183t-92 -127.5t-133.5 -74.5 t-157.5 -24q-85 0 -164 26t-138 77.5t-94.5 128t-35.5 177.5v59q0 50 2.5 88t8.5 68t17 55t28 48t41 45t56 48q17 15 44 34t50.5 46.5t38.5 63.5q17 34 11 81q-5 -14 -21.5 -26t-38 -22t-46 -16.5t-47.5 -6.5t-59 6.5t-71 24.5t-65.5 52.5t-45.5 89.5q-6 18 -3 37.5z" />
<glyph unicode="&#xe04;" horiz-adv-x="1267" d="M120 85v648q0 66 9.5 129.5t32 121.5t61 107t95.5 85t135 56.5t180.5 20.5t180 -20.5t134 -56.5t95.5 -85t62.5 -107t33 -121.5t9.5 -129.5v-648q0 -24 -7.5 -42t-22 -30.5t-32 -20t-38.5 -7.5q-20 0 -39 7.5t-32 19t-21 30.5t-8 43v674q0 38 -7 76t-21.5 74.5t-39 68 t-60 55t-81 37t-105.5 13.5t-107 -13.5t-82 -37t-59 -55t-40 -68t-22.5 -74.5t-6.5 -76v-274q52 102 132 162t190 73q18 3 35 -2.5t29 -15.5t19.5 -25.5t8.5 -32.5q2 -18 -3 -33t-15.5 -27.5t-25 -20.5t-31.5 -10q-91 -8 -155 -41t-105 -88.5t-60 -131.5t-19 -169v-38 q0 -24 -8 -42t-21.5 -30.5t-31 -20t-37.5 -7.5t-38.5 7.5t-32.5 19t-21 30.5t-7 43z" />
<glyph unicode="&#xe05;" horiz-adv-x="1278" d="M120 85v664q0 76 11.5 148t42 135.5t82 112.5t129.5 78q11 3 27 7.5t34 4.5t37 -6q16 -7 34 -25l122 -127l116 129q14 16 32.5 22.5t37.5 6.5t35 -4.5t28 -7.5q81 -27 134 -75.5t83.5 -110.5t42 -135.5t11.5 -152.5v-664q0 -24 -7 -42t-22 -30.5t-32.5 -20t-37.5 -7.5 t-39 7.5t-32.5 19t-20.5 30.5t-7 43v680q0 38 -6 82.5t-21.5 84.5t-41 72.5t-63.5 45.5l-166 -171l-10 -8t-13.5 -4t-15 4t-11.5 8l-168 171q-38 -15 -62 -47t-38.5 -72t-21 -84t-6.5 -82v-280q52 102 132 162t190 73q18 3 35 -2.5t29 -15.5t19.5 -25.5t8.5 -32.5 q2 -18 -3 -33t-15.5 -27.5t-25 -20.5t-31.5 -10q-91 -8 -155 -41t-105 -88.5t-60 -131.5t-19 -169v-38q0 -24 -8 -42t-21.5 -30.5t-31 -20t-37.5 -7.5t-38.5 7.5t-32.5 19t-21 30.5t-7 43z" />
<glyph unicode="&#xe06;" horiz-adv-x="1264" d="M61 1155.5q3 19.5 11 35t22 28t33 18.5q18 5 36 4.5t34 -9.5t29 -23q13 -15 19 -35q11 -32 35 -52.5t65 -20.5q38 0 63 19q27 19 39 52q11 30 37 49.5t59 19.5q21 0 40 -9t33.5 -22t21.5 -32t7 -41v-150q0 -54 -17.5 -95t-43.5 -72.5t-55 -55.5q-27 -25 -50 -46 q-32 -29 -54 -52.5t-35 -48t-19 -59.5q-6 -32 -6 -85q0 -61 26.5 -119.5t73 -104t112 -73t144.5 -27.5q53 0 95 18t70.5 51t44 78.5t15.5 100.5v745q0 23 7.5 41.5t21 30.5t32 19.5t38.5 7.5q21 0 39 -7.5t32 -20.5t21.5 -30.5t7.5 -40.5v-730q0 -86 -22 -166t-71.5 -141 t-128.5 -97.5t-190 -36.5q-131 0 -223 55.5t-154 170.5v-115q0 -21 -8 -38.5t-21 -30.5t-31.5 -20.5t-37.5 -7.5q-20 0 -37.5 7.5t-30.5 20.5t-21 32q-8 16 -8 37v349q0 46 1.5 82t5 65t11.5 52.5t24 47t40 47.5q24 23 59 52q38 32 66 54t47.5 46t28.5 56q9 31 7 83 q-6 -14 -21 -26t-35 -22t-43.5 -16.5t-46.5 -6.5t-59 6.5t-71 24.5t-65.5 52.5t-45.5 89.5q-6 18 -3 37.5z" />
<glyph unicode="&#xe07;" horiz-adv-x="930" d="M83.5 641.5q1.5 19.5 8.5 36.5t21.5 30t32.5 19t37.5 6t36.5 -8t30 -22t19 -34l165 -465q13 -32 36 -48t50 -16q44 0 68 26q25 27 25 62v838h-105q-16 0 -30.5 5.5t-25.5 16t-17.5 25t-6.5 32t6.5 33t16.5 26.5t25 16.5t32 5.5h226q16 0 30 -6.5t24.5 -16.5t16 -24 t5.5 -30v-883q0 -79 -22.5 -134.5t-62 -92t-93.5 -52.5t-115 -16t-106.5 15t-80 45t-58.5 72t-41 94l-143 407q-6 18 -4.5 37.5z" />
<glyph unicode="&#xe08;" horiz-adv-x="1147" d="M105.5 969q1.5 21 11.5 40q29 55 73 99.5t103 75.5t132 48q74 18 159 18q54 0 109 -8t106.5 -27t97 -50.5t78 -78t51.5 -111t18 -146.5q-2 -73 -21 -156t-49.5 -173.5t-70 -184t-80.5 -187.5q-14 -32 -31.5 -58t-41 -45t-52.5 -29.5t-64 -10.5t-64.5 10.5t-53.5 31 t-42 46.5q-16 26 -27 58l-151 434h-97q-33 0 -54.5 22t-21.5 54q0 16 5.5 30t16 24t24 16.5t30.5 6.5h198q26 0 45 -14q16 -15 25 -38l164 -489q19 43 41 96t43.5 109t43 113.5t37.5 113t25 106.5q11 51 11 95q3 136 -65.5 204.5t-207.5 68.5q-96 0 -159 -41 q-64 -43 -93 -122q-9 -21 -23.5 -35.5t-35 -21.5t-43.5 -6.5t-44 10.5q-21 9 -34 25t-18 36t-3.5 41z" />
<glyph unicode="&#xe09;" horiz-adv-x="1255" d="M117 963.5q0 20.5 9 39.5q23 53 62.5 99t99 79.5t141 52.5t184.5 19q105 0 184 -20t137.5 -54t97 -82.5t62 -105.5t33 -120.5t9.5 -128.5v-660q0 -21 -7.5 -38.5t-20.5 -30.5t-31 -20q-17 -8 -37 -8q-21 0 -38.5 7.5t-30.5 20.5t-21 32q-8 16 -8 37v115 q-62 -115 -162 -170.5t-240 -55.5q-122 0 -202.5 32.5t-128.5 92t-68.5 142.5t-20.5 184v180q0 20 8 37.5t22 30.5t31.5 21t37.5 8t37.5 -8t31 -21t21.5 -30.5t8 -37.5v-205q0 -128 60.5 -188t177.5 -60q92 0 162.5 29t119 81t74 123t25.5 152v231q0 57 -15.5 114t-52 102 t-99 73.5t-156.5 28.5q-71 0 -123 -13t-87 -35t-57 -51t-34 -58q-8 -21 -21.5 -34t-31.5 -20.5t-39 -7.5q-19 0 -39 8t-35 22t-22 31.5t-7 38z" />
<glyph unicode="&#xe0a;" horiz-adv-x="1118" d="M43 1144.5q1 14.5 6.5 26.5t16.5 22t25 16q24 9 49.5 16t50 11.5t44 6t31.5 1.5q64 0 116 -15.5t87 -47t51 -77.5q14 -47 9 -111q-6 -44 -20 -78.5t-35 -67t-46.5 -67.5t-53.5 -76q-21 -32 -31 -57t-15 -50t-6 -52.5t-2 -62.5v-64q0 -65 19.5 -114.5t53 -84.5t77.5 -52.5 t95 -17.5q48 0 90.5 13t74.5 43t50 78q19 47 19 117v82q0 70 -13.5 112.5t-37.5 65.5t-57.5 32t-74.5 12q-17 0 -32.5 5.5t-26.5 17.5t-18.5 26.5t-7.5 33.5q0 35 23 58q24 22 62 25q98 10 145.5 82.5t57.5 197.5q3 24 12.5 41.5t24 29t33.5 16t40 3.5q20 -3 37.5 -12.5 t29 -24.5t18.5 -34q8 -19 5 -39q-6 -61 -22.5 -116.5t-49.5 -101t-84 -77.5t-129 -44q60 -6 102.5 -24t71.5 -43.5t46.5 -57t26.5 -64.5t12 -63.5t3 -56.5v-102q0 -106 -36.5 -183t-96.5 -127.5t-137.5 -74.5t-160.5 -24q-85 0 -164.5 26t-141.5 77.5t-99 128t-37 177.5v102 q0 48 2.5 83t8 62t14 49t21.5 43t30 43.5t40 50.5q19 25 34.5 45.5t26.5 39.5t18 38q9 19 12 39q9 56 -17.5 86.5t-78.5 30.5q-30 0 -54.5 -8.5t-46.5 -14.5q-15 -5 -28 -2.5t-24.5 8t-20.5 17.5t-13 23q-5 15 -4 29.5z" />
<glyph unicode="&#xe0b;" horiz-adv-x="1147" d="M38 1155.5q3 19.5 11 35t22 28t33 18.5q17 5 35.5 4.5t34.5 -9.5t28 -23q14 -15 20 -35q10 -32 34 -52.5t65 -20.5q38 0 64 19q27 19 38 52q12 30 37.5 49.5t59.5 19.5q20 0 39 -9t33 -22t22 -32t8 -41v-150q0 -41 -13 -73t-36.5 -60.5t-52.5 -56.5t-62 -61 q-30 -32 -49 -70t-29.5 -80.5t-14 -85t-3.5 -82.5q0 -65 19 -114.5t52.5 -84.5t77.5 -52.5t93 -17.5t91 13t73.5 43t50.5 78q19 47 19 117v82q0 64 -9.5 106.5t-29 67t-49.5 35.5q-29 10 -71 13q-18 0 -33 5.5t-26 17.5t-17.5 26.5t-6.5 33.5q0 35 21.5 57.5t61.5 25.5 q50 6 82.5 28t53 57.5t31 84.5t15.5 110q3 24 12 41.5t24 29t33.5 16t40.5 3.5q20 -3 37 -12.5t29.5 -24.5t19 -34t3.5 -39q-6 -61 -20 -116.5t-43.5 -101t-79.5 -77.5t-126 -44q60 -6 101.5 -24t68.5 -43.5t42.5 -57t23 -64.5t9 -63.5t1.5 -56.5v-102q0 -70 -16.5 -128 t-46 -104t-70.5 -79.5t-89.5 -55.5t-101.5 -32t-109 -10q-84 0 -164.5 26t-141.5 77.5t-99 128t-38 177.5q0 74 2.5 133t14.5 108t38 90.5t76 79.5q12 9 28 21.5t32.5 27t33 33t28.5 40t18 48t2 55.5q-6 -14 -22 -26t-37.5 -22t-45.5 -16.5t-47.5 -6.5t-59 6.5t-70.5 24.5 t-66 52.5t-45 89.5q-6 18 -3 37.5z" />
<glyph unicode="&#xe0c;" horiz-adv-x="1898" d="M53 899.5q0 14.5 8 36.5q24 61 66 119t103.5 101.5t144.5 70t191 26.5q100 0 177.5 -20t135 -54t97.5 -82.5t64 -105.5t35 -120.5t11 -128.5v-208q0 -83 19 -153t57 -122t94.5 -81t127.5 -29q44 0 80.5 13t62 42.5t39.5 76.5q14 46 14 116v745q0 23 7 41.5t21 30.5 t32.5 19.5t38.5 7.5t38.5 -7.5t32.5 -20.5t21 -30.5t7 -40.5v-720q0 -108 -17.5 -192t-59.5 -141.5t-114 -87.5t-177 -30q-58 0 -107.5 18t-92 49.5t-74.5 72.5t-56 86v-115q0 -21 -8 -38.5t-21 -30.5t-31 -20.5t-39 -7.5q-20 0 -37.5 7.5t-31 20.5t-20.5 30.5t-7 38.5v683 q0 57 -16 113t-52.5 101.5t-98 73t-150.5 30.5q-76 0 -133.5 -19t-97 -51t-61.5 -70t-28 -73q21 -12 38.5 -33t28.5 -48t17 -60q7 -34 7 -69v-508h76q16 0 29.5 -6t24 -16t16.5 -24t6 -30t-6 -30t-16.5 -24t-24 -16t-29.5 -6h-197q-17 0 -30.5 6t-24.5 16t-17 24t-6 30v587 q0 39 -8 79.5t-33 75.5q-14 19 -24.5 31t-16 24t-5.5 26.5z" />
<glyph unicode="&#xe0d;" horiz-adv-x="1898" d="M53 899.5q0 14.5 8 36.5q24 61 66 119t103.5 101.5t144.5 70t191 26.5q100 0 177.5 -20t135 -54t97.5 -82.5t64 -105.5t35 -120.5t11 -128.5v-240q0 -70 13.5 -116.5t38 -76t61 -42.5t80.5 -13q71 0 127.5 29t94.5 82t58.5 123t20.5 151v503q0 23 7 41.5t21 30.5 t32.5 19.5t38.5 7.5t38.5 -7.5t32.5 -20.5t21 -30.5t7 -40.5v-888q0 -85 -8 -149t-22 -113t-31 -84q-18 -34 -37 -60q-35 -52 -79.5 -88t-95.5 -58.5t-107 -32.5q-58 -11 -116 -11q-67 0 -131.5 15t-118.5 44t-95 73t-64 102q-6 17 -6 36t7.5 34.5t21.5 28t31 18.5 q35 13 68 -1t49 -52q14 -35 40 -62.5t58 -45t68 -27.5q34 -9 69 -9q58 0 103.5 13.5t79.5 37t57.5 55.5t38 68.5t21.5 76t7 77.5v162q-24 -45 -57.5 -86t-75 -71.5t-92 -49t-108.5 -18.5q-105 0 -176 30t-114 87t-61 141q-17 83 -17 191v239q0 57 -16 113t-52.5 101.5 t-98 73t-150.5 30.5q-76 0 -133.5 -19t-98 -49.5t-62 -68.5t-26.5 -76q21 -12 38.5 -33t28.5 -48t17 -60q7 -34 7 -69v-508h76q16 0 29.5 -6t24 -16t16.5 -24t6 -30t-6 -30t-16.5 -24t-24 -16t-29.5 -6h-197q-17 0 -30.5 6t-24.5 16t-17 24t-6 30v587q0 39 -8 79.5t-33 75.5 q-14 19 -24.5 31t-16 24t-5.5 26.5z" />
<glyph unicode="&#xe0e;" horiz-adv-x="1306" d="M50 76q0 16 5.5 30t16 24t25 16t29.5 6h65v511q0 39 -8 79.5t-33 75.5q-14 20 -25 33t-17 24t-5 25t9 36q24 61 67 119t107 101.5t153.5 70t202.5 26.5q104 0 185 -20t141.5 -54t102.5 -82.5t68 -105.5t37 -120.5t11 -128.5v-1027q0 -26 -9.5 -49.5t-27 -40t-41 -27 t-49.5 -10.5q-29 0 -52.5 12t-43.5 31q-62 58 -129 85t-149 27q-41 0 -76 -11.5t-67 -31.5t-60 -45q-27 -23 -54 -49q-10 -10 -24 -15.5t-29 -4t-29 7.5t-24 18q-21 26 -18 53q5 25 25 52q29 35 68 67t85.5 57t98.5 39.5t104 14.5q91 0 164 -23.5t137 -68.5v962 q0 57 -17.5 113t-57 101.5t-105.5 73.5q-68 27 -165 30q-57 0 -103.5 -10t-83.5 -27.5t-65.5 -41t-47.5 -47t-30 -46.5t-13 -41q21 -12 37.5 -33t28.5 -48t18 -60q5 -34 5 -69v-584q0 -16 -5.5 -30t-16 -24t-25 -16t-29.5 -6h-186q-16 0 -30 6t-24.5 16t-16 24t-5.5 30z" />
<glyph unicode="&#xe0f;" horiz-adv-x="1306" d="M50 76q0 16 5.5 30t16 24t25 16t29.5 6h65v511q0 39 -8 79.5t-33 75.5q-14 20 -25 33t-17 24t-5 25t9 36q24 61 67 119t107 101.5t153.5 70t202.5 26.5q104 0 185 -20t141.5 -54t102.5 -82.5t68 -105.5t37 -120.5t11 -128.5v-1040q0 -23 -9.5 -44.5t-24 -36.5t-35.5 -24 q-23 -9 -46 -9q-34 0 -61 17.5t-42 44.5q-8 17 -20 33t-28.5 29.5t-38 20.5t-47.5 7t-48.5 -7t-39.5 -20.5t-28.5 -29.5t-19.5 -33q-10 -27 -33.5 -44.5t-53.5 -17.5q-31 0 -54.5 17.5t-33.5 44.5q-6 16 -15.5 32.5t-24.5 30t-36.5 22t-50.5 8.5q-26 0 -44.5 -7.5t-32 -19.5 t-24 -29t-14.5 -34q-6 -18 -17.5 -32.5t-27 -22.5t-33.5 -10q-20 -3 -37.5 3t-30.5 17.5t-22 27t-11 33.5q-4 19 2 36q15 50 40.5 86.5t59.5 59.5t76.5 35t90.5 12q79 0 138 -34.5t92 -100.5q17 33 40.5 57t51 39t57 22.5t53.5 7.5q38 0 66.5 -8.5t52 -22t39 -28t25.5 -27.5 v962q0 57 -17.5 113t-57 101.5t-105.5 73.5q-68 27 -165 30q-57 0 -103.5 -10t-83.5 -27.5t-65.5 -41t-47.5 -47t-30 -46.5t-13 -41q21 -12 37.5 -33t28.5 -48t18 -60q5 -34 5 -69v-584q0 -16 -5.5 -30t-16 -24t-25 -16t-29.5 -6h-186q-16 0 -30 6t-24.5 16t-16 24t-5.5 30z " />
<glyph unicode="&#xe10;" horiz-adv-x="1141" d="M105.5 969q1.5 21 11.5 40q29 55 73 99.5t103 75.5t132 48q74 18 159 18q50 0 101 -7.5t100 -21.5q50 2 78 27q28 22 39 54q9 21 26 37.5t38 24.5t44.5 5.5t46.5 -19.5q18 -11 28 -28.5t13 -37.5t-2 -39q-7 -19 -19 -36q-20 -29 -52 -52.5t-79 -35.5q47 -49 73 -120.5 t25 -171.5q-2 -73 -21 -156t-49.5 -173.5t-70 -184t-80.5 -187.5q-14 -32 -31.5 -58t-41 -45t-52.5 -29.5t-64 -10.5t-64.5 10.5t-53.5 31t-42 46.5q-16 26 -27 58l-151 434h-97q-33 0 -54.5 22t-21.5 54q0 16 5.5 30t16 24t24 16.5t30.5 6.5h198q26 0 45 -14q16 -15 25 -38 l164 -489q19 43 41 96t43.5 109t43 113.5t37.5 113t25 106.5q11 51 11 95q3 136 -65.5 204.5t-207.5 68.5q-96 0 -159 -41q-64 -43 -93 -122q-9 -21 -23.5 -35.5t-35 -21.5t-43.5 -6.5t-44 10.5q-21 9 -34 25t-18 36t-3.5 41zM114 -333q9 53 32 88t52.5 55.5t59.5 29t53 8.5 q28 0 51 -6.5t42 -16.5t35 -24q14 -14 25 -29q15 24 32.5 38.5t35 22.5t33.5 11.5t31 3.5q23 0 43.5 -6t38 -13t32 -17.5t23.5 -21.5v23q0 21 7.5 38.5t22 32t32 21.5t38 7t39.5 -7t32 -21.5t21 -32t8 -38.5v-120q0 -23 -9.5 -44t-24 -36.5t-36 -24t-44.5 -8.5 q-32 0 -59 16.5t-42 44.5q-29 57 -90 57q-41 0 -66 -21.5t-31 -53.5q-4 -19 -19.5 -31t-37.5 -12q-20 0 -35.5 11.5t-20.5 31.5q-8 32 -29 53.5t-59 21.5q-31 0 -49 -18.5t-27 -44.5q-7 -29 -32.5 -45t-55.5 -10q-29 7 -43.5 32.5t-8.5 54.5z" />
<glyph unicode="&#xe11;" horiz-adv-x="1264" d="M61 1155.5q3 19.5 11 35t22 28t33 18.5q18 5 36 4.5t34 -9.5t29 -23q13 -15 19 -35q11 -32 35 -52.5t65 -20.5q38 0 63 19q27 19 39 52q11 30 37 49.5t59 19.5q21 0 40 -9t33.5 -22t21.5 -32t7 -41v-30q50 42 98 70.5t90.5 46t79 25t65.5 7.5q53 0 85 -18.5t51 -52 t25 -81t6 -105.5v-914q0 -24 -7.5 -42t-22 -30.5t-32 -20t-38.5 -7.5q-20 0 -39 7.5t-32 19t-21 30.5t-8 43v836q0 28 -1 53.5t-5.5 45.5t-14.5 30.5t-30 10.5q-25 0 -61 -19.5t-81 -54.5t-95.5 -86t-103.5 -116q-38 -46 -67.5 -79.5t-51 -61.5t-35.5 -51.5t-22.5 -49.5 t-11.5 -56.5t-3 -74.5v-327q0 -24 -8 -42t-22 -30.5t-31.5 -20t-37.5 -7.5q-21 0 -40 7.5t-32 19t-21.5 30.5t-8.5 43v303q0 47 1.5 82t5.5 63.5t13 52.5t23 49t35 51t50 62q34 37 66.5 69.5t56 63t35 62.5t4.5 73q-6 -14 -21 -26t-35 -22t-43.5 -16.5t-46.5 -6.5t-59 6.5 t-71 24.5t-65.5 52.5t-45.5 89.5q-6 18 -3 37.5z" />
<glyph unicode="&#xe12;" horiz-adv-x="1949" d="M120 111v638q0 76 9.5 148t38 135.5t78 112.5t128.5 78q10 3 25.5 7.5t33.5 4.5t36.5 -6.5t35.5 -24.5l123 -127l114 129q14 16 33 22.5t37.5 6.5t35 -4.5t28.5 -7.5q82 -27 132 -75.5t78.5 -110.5t39 -135.5t10.5 -152.5v-215q0 -83 19.5 -153t58.5 -122t94.5 -81 t126.5 -29q47 0 82.5 13t60.5 42.5t38 76.5q13 46 13 116v745q0 23 8 41.5t22 30.5t32.5 19.5t38.5 7.5q21 0 39 -7.5t31 -20.5t22 -30.5t9 -40.5v-720q0 -108 -18.5 -192t-61.5 -141.5t-113 -87.5t-175 -30q-58 0 -109.5 18t-92 49.5t-74.5 72.5t-57 86v-115 q0 -21 -7.5 -38.5t-20.5 -30.5t-31 -20q-17 -8 -37 -8q-21 0 -38.5 7.5t-30.5 20.5t-21 32q-8 16 -8 37v703q0 38 -3.5 79t-16 77.5t-36 66t-61.5 42.5l-168 -171q-3 -4 -8.5 -8t-14.5 -4t-16.5 4t-9.5 8l-168 171q-38 -15 -61 -44t-35 -65.5t-16.5 -77t-4.5 -78.5v-543 l258 332h-60q-32 0 -54 22t-22 54q0 16 6 30t16.5 24t24 16.5t29.5 6.5h186q19 0 35.5 -7.5t30 -20.5t20.5 -29.5t7 -35.5q0 -35 -22 -60l-430 -545q-18 -20 -43 -32t-54 -12q-26 0 -48.5 8t-39.5 23.5t-27 39t-10 55.5z" />
<glyph unicode="&#xe13;" horiz-adv-x="1898" d="M53 899.5q0 14.5 8 36.5q24 61 66 119t103.5 101.5t144.5 70t191 26.5q100 0 177.5 -20t135 -54t97.5 -82.5t64 -105.5t35 -120.5t11 -128.5v-345q0 -70 13.5 -116.5t38 -76t61 -42.5t80.5 -13q71 0 127.5 29t94.5 81t58.5 123t20.5 152v608q0 23 7 41.5t21 30.5 t32.5 19.5t38.5 7.5t38.5 -7.5t32.5 -20.5t21 -30.5t7 -40.5v-1060q0 -21 -7 -38.5t-20.5 -30.5t-31 -20.5t-37.5 -7.5q-21 0 -38.5 7.5t-30.5 20.5t-20 32q-7 16 -7 37v115q-24 -45 -57.5 -86t-75 -72.5t-92 -49.5t-108.5 -18q-105 0 -176 30t-114 87.5t-60.5 141.5 t-17.5 192v343q0 57 -16 113t-52.5 101.5t-98 73t-150.5 30.5q-76 0 -133.5 -19t-98 -49.5t-62 -68.5t-26.5 -76q21 -12 38.5 -33t28.5 -48t17 -60q7 -34 7 -69v-508h76q16 0 29.5 -6t24 -16t16.5 -24t6 -30t-6 -30t-16.5 -24t-24 -16t-29.5 -6h-197q-17 0 -30.5 6t-24.5 16 t-17 24t-6 30v587q0 39 -8 79.5t-33 75.5q-14 19 -24.5 31t-16 24t-5.5 26.5z" />
<glyph unicode="&#xe14;" horiz-adv-x="1278" d="M120 111v625q0 66 9.5 129.5t32.5 121t62 106.5t96.5 84t136.5 55q77 21 182 21q103 0 181.5 -20.5t136.5 -55.5t96.5 -84t62 -106.5t33.5 -121t10 -129.5v-651q0 -24 -7 -42t-22 -30.5t-32.5 -20t-37.5 -7.5t-39 7.5t-32.5 19t-20.5 30.5t-7 43v677q0 38 -6 76t-20 74 t-38 67t-59 54t-84 36q-50 14 -115 14t-114 -13.5t-85.5 -36.5t-60 -54t-38 -67t-19.5 -74t-5 -76v-520l279 332h-62q-32 0 -54 22t-22 54q0 16 6 30t16.5 24t25 16.5t28.5 6.5h187q19 0 36 -7.5t30 -20.5t20.5 -29.5t7.5 -35.5q0 -35 -24 -60l-449 -545q-18 -20 -43 -32 t-54 -12q-26 0 -48.5 7.5t-39.5 23.5t-27 39.5t-10 55.5z" />
<glyph unicode="&#xe15;" horiz-adv-x="1287" d="M120 111v638q0 76 13 148t43.5 135.5t83 112.5t131.5 78q11 3 27 7.5t34 4.5t36 -6q17 -7 35 -25l122 -127l116 129q14 16 32.5 22.5t37.5 6.5t35 -4.5t28 -7.5q81 -27 134.5 -76t85 -112.5t43.5 -136.5t12 -149v-664q0 -24 -8 -42t-21 -30.5t-31 -20t-39 -7.5 q-20 0 -38.5 7.5t-31.5 19t-20.5 30.5t-7.5 43v689q0 38 -7 81.5t-23 84.5t-42.5 72.5t-64.5 44.5l-165 -171l-12 -8q-7 -3 -13 -3q-8 0 -15 3.5t-11 7.5l-168 171q-38 -15 -63.5 -47t-41 -71.5t-22.5 -83t-7 -81.5v-532l279 332h-62q-32 0 -54 22t-22 54q0 16 6 30t16.5 24 t25 16.5t28.5 6.5h187q19 0 36 -7.5t30 -20.5t20.5 -29.5t7.5 -35.5q0 -35 -24 -60l-449 -545q-18 -20 -43 -32t-54 -12q-26 0 -48.5 7.5t-39.5 23.5t-27 39.5t-10 55.5z" />
<glyph unicode="&#xe16;" horiz-adv-x="1232" d="M52 900q1 14 9 36q24 61 64.5 119t103.5 101.5t149 70t203 26.5q104 0 183.5 -20t138.5 -54t99 -82.5t65 -105.5t35.5 -120.5t10.5 -128.5v-657q0 -24 -7.5 -42t-21.5 -30.5t-32 -20t-39 -7.5q-20 0 -37.5 7.5t-31.5 19t-22 30.5t-8 43v680q0 57 -15.5 113t-54 101.5 t-103 73t-160.5 30.5q-60 0 -107.5 -10t-84 -28.5t-62.5 -41t-43.5 -47.5t-25.5 -46.5t-10 -39.5q21 -12 38.5 -33t28.5 -48t17 -60q7 -34 7 -69v-508h76q16 0 29.5 -6t24 -16t16.5 -24t6 -30t-6 -30t-16.5 -24t-24 -16t-29.5 -6h-197q-17 0 -30.5 6t-24.5 16t-17 24t-6 30 v587q0 39 -8 79.5t-33 75.5q-14 20 -26 33t-17 24t-4 25z" />
<glyph unicode="&#xe17;" horiz-adv-x="1255" d="M120 85v1061q0 21 7 37.5t20.5 29.5t29.5 21q16 7 36 7q21 0 38.5 -7.5t29.5 -20.5t19.5 -30.5t7.5 -36.5v-115q64 114 165 169q102 56 239 56q123 0 205 -34t130 -92t68.5 -141.5t20.5 -181.5v-722q0 -24 -8 -42t-22 -30.5t-31.5 -20t-37.5 -7.5q-21 0 -40 7.5t-32 19 t-21 30.5t-8 43v744q0 57 -17.5 103t-50.5 78t-79 49.5t-104 17.5q-92 0 -160.5 -29t-114 -81t-68 -122t-22.5 -151v-609q0 -24 -8 -42t-21.5 -30.5t-32.5 -20t-39 -7.5t-37.5 7.5t-31.5 19t-22 30.5t-8 43z" />
<glyph unicode="&#xe18;" horiz-adv-x="1189" d="M120 350v173q0 20 7 37.5t21 31.5t32.5 22t38.5 8t37.5 -8t31 -22t21.5 -31.5t8 -37.5v-173q0 -58 25.5 -97.5t65 -64t89 -35t99.5 -10.5q43 0 92 9t91 31.5t69.5 62.5t27.5 104q0 35 -3 62t-14.5 51.5t-35 45t-61.5 40t-95 40.5t-138 45q-49 14 -97.5 28t-95.5 31.5 t-86.5 40t-68.5 52.5t-46 70t-15 96q1 52 21 95.5t52 76t74.5 56.5t90.5 39.5t97.5 23t97.5 7.5q88 0 165.5 -14.5t139.5 -45.5t104 -80.5t63 -118.5q6 -20 3 -40.5t-13.5 -37.5t-26.5 -30t-36.5 -19t-40 -3t-36.5 13.5t-30 26.5t-19 36q-10 40 -32.5 67t-56 44.5 t-76.5 25.5q-42 9 -90 9q-50 0 -96 -5.5t-81 -20.5t-56 -38t-21 -55q0 -28 14.5 -49t39.5 -39t57.5 -30t70.5 -24t77.5 -23t77.5 -22q70 -24 130 -44.5t106.5 -46t82.5 -56t60 -70.5t35.5 -91t11.5 -119q0 -67 -19 -121t-51.5 -95.5t-78 -71.5t-99.5 -49t-114.5 -27.5 t-121.5 -8.5q-65 0 -124.5 8.5t-112 27.5t-96.5 49.5t-76 71.5t-49.5 95t-17.5 121z" />
<glyph unicode="&#xe19;" horiz-adv-x="1255" d="M123 422v720q0 23 7 41.5t21 30.5t32 19.5t39 7.5q20 0 38.5 -7.5t32.5 -20.5t21 -30.5t7 -40.5v-745q0 -55 13 -100.5t41 -78.5t72 -51t105 -18q92 0 162.5 29t120.5 81t75.5 123t25.5 152v608q0 23 8 41.5t21 30.5t32 19.5t40 7.5q20 0 37.5 -7.5t31.5 -20.5t22 -30.5 t8 -40.5v-1060q0 -22 -7.5 -39.5t-20.5 -30t-31 -19.5q-17 -8 -37 -8q-21 0 -38.5 7.5t-30.5 20.5t-21 30.5t-8 38.5v115q-62 -115 -162 -170.5t-240 -55.5q-122 0 -202.5 32.5t-128.5 92t-67 142.5t-19 184z" />
<glyph unicode="&#xe1a;" horiz-adv-x="1255" d="M120 493v649q0 23 8 41.5t22 30.5t31.5 19.5t37.5 7.5t39 -7.5t32.5 -20.5t21.5 -30.5t8 -40.5v-672q0 -38 6.5 -77.5t20.5 -76t37 -67.5t57.5 -54.5t80.5 -37.5t106 -14t106 14t80 37.5t57.5 54.5t37.5 67.5t20.5 76t6.5 77.5v672q0 23 8 41.5t21 30.5t32 19.5t40 7.5 q20 0 37.5 -7.5t31.5 -20.5t22 -30.5t8 -40.5v-649q0 -65 -9.5 -129.5t-32 -122t-60.5 -107t-93.5 -85.5t-133 -55.5t-179.5 -19.5t-179.5 19.5t-134.5 55.5t-94.5 85.5t-60 107t-31 122t-8.5 129.5z" />
<glyph unicode="&#xe1b;" horiz-adv-x="1255" d="M120 493v649q0 23 8 41.5t22 30.5t31.5 19.5t37.5 7.5t39 -7.5t32.5 -20.5t21.5 -30.5t8 -40.5v-672q0 -38 6.5 -77.5t20.5 -76t37 -67.5t57.5 -54.5t80.5 -37.5t106 -14t106 14t80 37.5t57.5 54.5t37.5 67.5t20.5 76t6.5 77.5v1208q0 23 8 41t21 30.5t32 19t40 6.5 q20 0 37.5 -6.5t31.5 -19t22 -31.5t8 -40v-1185q0 -65 -9.5 -129.5t-32 -122t-60.5 -107t-93.5 -85.5t-133 -55.5t-179.5 -19.5t-179.5 19.5t-134.5 55.5t-94.5 85.5t-60 107t-31 122t-8.5 129.5z" />
<glyph unicode="&#xe1c;" horiz-adv-x="1347" d="M120 339v810q0 16 5.5 30t16 24t24.5 16.5t30 6.5h227q16 0 30 -5.5t26 -16.5t17.5 -26.5t5.5 -33t-6.5 -32t-17.5 -25t-25.5 -16t-29.5 -5.5h-103v-678q0 -128 31.5 -186.5t93.5 -58.5q48 0 74.5 23.5t38 63.5t14.5 94t3 115v92q0 24 7.5 43t21.5 30.5t32 19t39 7.5 q20 0 38 -7.5t32 -20t21.5 -30.5t7.5 -42v-92q0 -61 3 -115t16.5 -94t40.5 -63.5t77 -23.5q61 0 89 58.5t28 186.5v754q0 23 8.5 41.5t22 30.5t31.5 19.5t39 7.5q20 0 38.5 -7.5t31.5 -20.5t21.5 -30.5t8.5 -40.5v-803q0 -94 -20.5 -162.5t-58 -113t-90.5 -65.5t-118 -21 q-97 0 -167.5 46.5t-104.5 134.5q-28 -88 -91 -135q-65 -46 -164 -46q-68 0 -122 21t-92.5 65.5t-59.5 113t-21 162.5z" />
<glyph unicode="&#xe1d;" horiz-adv-x="1347" d="M120 339v810q0 16 5.5 30t16 24t24.5 16.5t30 6.5h227q16 0 30 -5.5t26 -16.5t17.5 -26.5t5.5 -33t-6.5 -32t-17.5 -25t-25.5 -16t-29.5 -5.5h-103v-678q0 -128 31.5 -186.5t93.5 -58.5q48 0 74.5 23.5t38 63.5t14.5 94t3 115v92q0 24 7.5 43t21.5 30.5t32 19t39 7.5 q20 0 38 -7.5t32 -20t21.5 -30.5t7.5 -42v-92q0 -61 3 -115t16.5 -94t40.5 -63.5t77 -23.5q61 0 89 58.5t28 186.5v1290q0 23 8.5 41t22 30.5t31.5 19t39 6.5q20 0 38.5 -6.5t31.5 -19t21.5 -31.5t8.5 -40v-1339q0 -94 -20.5 -162.5t-58 -113t-90.5 -65.5t-118 -21 q-97 0 -167.5 46.5t-104.5 134.5q-28 -88 -91 -135q-65 -46 -164 -46q-68 0 -122 21t-92.5 65.5t-59.5 113t-21 162.5z" />
<glyph unicode="&#xe1e;" horiz-adv-x="1587" d="M72.5 1154q3.5 21 13 38t25.5 29q17 13 38 17q20 4 40.5 2t38 -12t31 -27.5t18.5 -44.5l193 -925l196 905q4 22 16 41.5t28.5 32.5t37.5 22t45 9q23 0 44 -9t39 -22t29.5 -32.5t17.5 -41.5l195 -905l193 925q6 27 18.5 44.5t30 27.5t38.5 12t42 -2q20 -4 37 -16.5 t27 -29.5t13 -37q4 -22 -2 -42l-259 -1022q-12 -50 -48 -78t-82 -28q-24 0 -45 7.5t-38.5 20.5t-30.5 32t-18 46l-200 908l-201 -908q-6 -25 -17.5 -45t-29 -33t-39.5 -20.5t-46 -7.5q-46 0 -81 28t-47 78l-260 1022q-4 20 -0.5 41z" />
<glyph unicode="&#xe1f;" horiz-adv-x="1587" d="M72.5 1154q3.5 21 13 38t25.5 29q17 13 38 17q20 4 40.5 2t38 -12t31 -27.5t18.5 -44.5l193 -925l196 905q4 22 16 41.5t28.5 32.5t37.5 22t45 9q23 0 44 -9t39 -22t29.5 -32.5t17.5 -41.5l195 -905l282 1463q6 26 18.5 43.5t30 27t38 11.5t42.5 -2q20 -4 37 -16.5 t27 -29.5t13 -37.5t-3 -40.5l-347 -1559q-12 -50 -48 -78t-82 -28q-24 0 -45 7.5t-38.5 20.5t-30.5 32t-18 46l-200 908l-201 -908q-6 -25 -17.5 -45t-29 -33t-39.5 -20.5t-46 -7.5q-46 0 -81 28t-47 78l-260 1022q-4 20 -0.5 41z" />
<glyph unicode="&#xe20;" horiz-adv-x="1306" d="M50 76q0 16 5.5 30t16 24t25 16t29.5 6h65v511q0 39 -8 79.5t-33 75.5q-14 20 -25 33t-17 24t-5 25t9 36q24 61 67 119t107 101.5t153.5 70t202.5 26.5q104 0 185 -20t141.5 -54t102.5 -82.5t68 -105.5t37 -120.5t11 -128.5v-657q0 -24 -8 -42t-21 -30.5t-32 -20 t-40 -7.5q-20 0 -37.5 7.5t-31.5 19t-22 30.5t-8 43v680q0 57 -17.5 113t-57 101.5t-105.5 73.5q-68 27 -165 30q-57 0 -103.5 -10t-83.5 -27.5t-65.5 -41t-47.5 -47t-30 -46.5t-13 -41q21 -12 37.5 -33t28.5 -48t18 -60q5 -34 5 -69v-584q0 -16 -5.5 -30t-16 -24t-25 -16 t-29.5 -6h-186q-16 0 -30 6t-24.5 16t-16 24t-5.5 30z" />
<glyph unicode="&#xe21;" horiz-adv-x="1255" d="M123 82v1060q0 23 7 40.5t21 30.5t32 20.5t39 7.5q20 0 38.5 -7.5t32.5 -19.5t21 -30.5t7 -41.5v-608q0 -83 26.5 -153t75.5 -122t120.5 -81t163.5 -29q61 0 105 18t71.5 51t40 78.5t12.5 100.5v745q0 23 8 40.5t21 30.5t32 20.5t40 7.5q20 0 37.5 -7.5t31.5 -19.5 t22 -30.5t8 -41.5v-720q0 -99 -20 -183t-68 -143.5t-129 -92t-202 -32.5q-140 0 -240 55.5t-162 170.5v-115q0 -21 -7 -38.5t-20.5 -30.5t-31 -20.5t-37.5 -7.5t-37.5 7.5t-31 20t-20.5 30.5t-7 39z" />
<glyph unicode="&#xe22;" horiz-adv-x="1222" d="M99 377q0 52 8 96.5t28 82t52 65t79 45.5q-54 20 -86.5 52t-50 68.5t-22.5 74.5t-5 75q0 58 14.5 101t39.5 75.5t57 54t68.5 35t74.5 19t72 5.5h99q18 0 33 -7t27 -19t17.5 -26.5t5.5 -31.5q0 -18 -5.5 -32.5t-17.5 -26t-27 -18.5t-33 -7h-48q-19 0 -48 -2t-56.5 -15 t-47 -39.5t-19.5 -74.5q0 -54 14 -87.5t38.5 -52.5t59 -26.5t73.5 -10.5h34q18 0 33 -6.5t27 -17.5t17.5 -25.5t5.5 -31.5q0 -18 -5.5 -33.5t-17.5 -26t-27 -16.5t-33 -6h-34q-40 -3 -75 -10.5t-58.5 -27.5t-37.5 -58t-14 -106q0 -61 25 -107t66.5 -76.5t95.5 -46t112 -15.5 q65 0 119 17.5t93 56.5t61 101t22 152v675q0 23 9 40.5t22 30.5t31.5 20.5t38.5 7.5t38.5 -7.5t31.5 -19.5t22 -30.5t9 -41.5v-717q0 -111 -39.5 -196.5t-107.5 -142.5t-157.5 -86t-192.5 -29q-64 0 -126.5 10t-118 32t-104.5 55.5t-84 79t-55 102.5t-20 127z" />
<glyph unicode="&#xe23;" horiz-adv-x="1052" d="M76 308q3 19 13 36.5t26 29t37 17.5q20 6 40 3t36.5 -13t28.5 -26t17 -37q21 -90 86.5 -132.5t176.5 -42.5q25 0 53 3.5t54 11.5t50 21.5t43 34.5t29 50q11 31 11 69q0 44 -16 74t-50 54.5t-85 47t-121 50.5q-57 24 -108.5 45t-96 44.5t-80.5 49.5t-62.5 59t-41 74 t-14.5 93q0 57 15.5 103t44 82t68 63t84 43.5t92.5 25.5t96 9q82 0 152 -13.5t125.5 -44t95 -81t58.5 -124.5q6 -20 2 -39t-14 -36.5t-25.5 -29.5t-35.5 -18t-40 -3t-37 13.5t-29 26.5t-18 36q-12 41 -31 70.5t-46.5 47t-62.5 26t-76 8.5q-35 0 -73 -8.5t-69 -27.5 t-50.5 -50t-19.5 -76q0 -44 18.5 -71t54 -49t86.5 -41q53 -18 117 -42q79 -29 139 -57t103.5 -55.5t73 -56.5t47 -63t24.5 -72q7 -37 7 -84q0 -99 -35 -168.5t-96.5 -112t-143 -60.5t-177.5 -18q-82 0 -153.5 16t-130 51t-100 90.5t-63.5 134.5q-6 20 -3 39z" />
<glyph unicode="&#xe24;" horiz-adv-x="1232" d="M52 900q1 14 9 36q24 61 64.5 119t103.5 101.5t149 70t203 26.5q104 0 183.5 -20t138.5 -54t99 -82.5t65 -105.5t35.5 -120.5t10.5 -128.5v-1056q0 -23 -7.5 -41.5t-21.5 -31t-32 -19t-39 -6.5q-20 0 -37.5 6.5t-31.5 19t-22 31t-8 41.5v1079q0 57 -15.5 113t-54 101.5 t-103 73t-160.5 30.5q-60 0 -107.5 -10t-84 -28.5t-62.5 -41t-43.5 -47.5t-25.5 -46.5t-10 -39.5q21 -12 38.5 -33t28.5 -48t17 -60q7 -34 7 -69v-508h76q16 0 29.5 -6t24 -16t16.5 -24t6 -30t-6 -30t-16.5 -24t-24 -16t-29.5 -6h-197q-17 0 -30.5 6t-24.5 16t-17 24t-6 30 v587q0 39 -8 79.5t-33 75.5q-14 20 -26 33t-17 24t-4 25z" />
<glyph unicode="&#xe25;" horiz-adv-x="1224" d="M85 314q0 70 16 122.5t44.5 91t67 65.5t85.5 45.5t96.5 31.5t101.5 24q46 8 94.5 13t94 12.5t86.5 17t71.5 26.5t48 44t17.5 66q0 47 -11 80.5t-30.5 57t-46 37t-56.5 21.5t-62.5 11t-64.5 3q-56 0 -105 -9.5t-87 -30.5t-64 -54.5t-38 -84.5q-6 -21 -18.5 -36t-30 -25.5 t-36.5 -13.5t-39 3t-36.5 18.5t-26.5 29t-13 37t3 41.5q23 82 71.5 137t115.5 89.5t149 50t169 15.5q54 0 109 -6.5t106 -23t94.5 -42.5t76 -65.5t51.5 -93.5q19 -55 19 -125v-809q0 -24 -8 -42t-22 -30.5t-31.5 -20t-38.5 -7.5q-20 0 -39 7.5t-32 19t-21 30.5t-8 43v549 q-30 -21 -73 -33.5t-91.5 -20.5t-101.5 -13.5t-103 -14.5t-96 -23.5t-80.5 -40t-55 -64.5t-20.5 -94q0 -58 27 -97t69.5 -60t94.5 -26q52 -7 104 -1q16 3 31.5 -1.5t27 -13t19.5 -23.5t9.5 -32.5t-3 -32.5t-14 -27.5t-22.5 -20.5t-27 -11q-28 -6 -55 -8t-59 -2 q-82 0 -155 17.5t-128.5 58.5t-87.5 105.5t-32 158.5z" />
<glyph unicode="&#xe26;" horiz-adv-x="1306" d="M50 76q0 16 5.5 30t16 24t25 16t29.5 6h65v511q0 39 -8 79.5t-33 75.5q-14 20 -25 33t-17 24t-5 25t9 36q24 61 67 119t107 101.5t153.5 70t202.5 26.5q104 0 185 -20t141.5 -54t102.5 -82.5t68 -105.5t37 -120.5t11 -128.5v-1056q0 -23 -8 -41.5t-21 -31t-32 -19 t-40 -6.5q-20 0 -37.5 6.5t-31.5 19t-22 31t-8 41.5v1079q0 57 -17.5 113t-57 101.5t-105.5 73.5q-68 27 -165 30q-57 0 -103.5 -10t-83.5 -27.5t-65.5 -41t-47.5 -47t-30 -46.5t-13 -41q21 -12 37.5 -33t28.5 -48t18 -60q5 -34 5 -69v-584q0 -16 -5.5 -30t-16 -24t-25 -16 t-29.5 -6h-186q-16 0 -30 6t-24.5 16t-16 24t-5.5 30z" />
<glyph unicode="&#xe27;" horiz-adv-x="1112" d="M93.5 347.5q2.5 20.5 12 36.5t25 27.5t35.5 17.5q21 6 41.5 4.5t38 -11.5t30 -26t16.5 -37q10 -54 32.5 -95t55 -68t72.5 -41q39 -15 85 -15q67 0 120 28t89.5 86t56 147.5t19.5 212t-19.5 211.5t-56 147.5t-89.5 87.5t-120 29q-45 0 -85 -14t-72.5 -41t-55 -67.5 t-32.5 -96.5q-3 -20 -16 -36t-30.5 -25.5t-38 -12t-41 3.5t-36 17.5t-25 28.5t-12 36.5t2.5 41.5q21 73 60.5 134.5t95.5 105t128.5 68t156.5 24.5q127 0 220 -47t154 -131t90.5 -202t29.5 -263q0 -144 -29.5 -262.5t-90.5 -202.5t-153 -129t-221 -45q-84 0 -157 23t-130 67 t-96.5 104.5t-57.5 136.5q-5 22 -2.5 42.5z" />
<glyph unicode="&#xe28;" horiz-adv-x="1267" d="M120 85v648q0 66 9.5 129.5t32 121.5t61 107t95.5 85t135 56.5t181 20.5q73 0 131 -9t108 -25q26 0 46.5 8t36.5 20t26.5 26.5t16.5 28.5q8 21 24.5 37.5t36.5 24.5t43.5 5.5t48.5 -19.5q17 -11 27.5 -28.5t12.5 -37.5t-2 -39t-16 -36q-21 -29 -56 -54t-84 -37 q32 -35 54 -76.5t35 -90.5t19 -103.5t6 -114.5v-648q0 -24 -7.5 -42t-22 -30.5t-32 -20t-38.5 -7.5q-20 0 -39 7.5t-32 19t-21 30.5t-8 43v674q0 38 -7 76t-21.5 74.5t-39 68t-60 55t-81 37t-105.5 13.5t-107 -13.5t-82 -37t-59 -55t-40 -68t-22.5 -74.5t-6.5 -76v-274 q52 102 132 162t190 73q18 3 35 -2.5t29 -15.5t19.5 -25.5t8.5 -32.5q2 -18 -3 -33t-15.5 -27.5t-25 -20.5t-31.5 -10q-91 -8 -155 -41t-105 -88.5t-60 -131.5t-19 -169v-38q0 -24 -8 -42t-21.5 -30.5t-31 -20t-37.5 -7.5t-38.5 7.5t-32.5 19t-21 30.5t-7 43z" />
<glyph unicode="&#xe29;" horiz-adv-x="1255" d="M120 493v649q0 23 8 41.5t22 30.5t31.5 19.5t37.5 7.5t39 -7.5t32.5 -20.5t21.5 -30.5t8 -40.5v-672q0 -38 6.5 -77.5t20.5 -76t37 -67.5t57.5 -54.5t80.5 -37.5t106 -14t106 14t80 37.5t57.5 54.5t37.5 67.5t20.5 76t6.5 77.5v126h-257q-21 0 -39 7t-31 20.5t-20.5 31.5 t-7.5 39v77q0 20 7.5 37.5t20.5 30t31 19t39 6.5q20 0 38.5 -6.5t31.5 -19t20.5 -30t7.5 -37.5v-21h159v392q0 23 8 41.5t21 30.5t32 19.5t40 7.5q20 0 37.5 -7.5t31.5 -20.5t22 -30.5t8 -40.5v-392h50q32 0 54 -22q21 -24 21 -56q0 -33 -21.5 -54.5t-53.5 -21.5h-50v-103 q0 -65 -9.5 -129.5t-32 -122t-60.5 -107t-93.5 -85.5t-133 -55.5t-179.5 -19.5t-179.5 19.5t-134.5 55.5t-94.5 85.5t-60 107t-31 122t-8.5 129.5z" />
<glyph unicode="&#xe2a;" horiz-adv-x="1224" d="M85 314q0 70 16 122.5t44.5 91t67 65.5t85.5 45.5t96.5 31.5t101.5 24q46 8 94.5 13t94 12.5t86.5 17t71.5 26.5t48 44t17.5 66q0 47 -11 80.5t-30.5 57t-46 37t-56.5 21.5t-62.5 11t-64.5 3q-56 0 -105 -9.5t-87 -30.5t-64 -54.5t-38 -84.5q-6 -21 -18.5 -36t-30 -25.5 t-36.5 -13.5t-39 3t-36.5 18.5t-26.5 29t-13 37t3 41.5q23 82 71.5 137t115.5 89.5t149 50t169 15.5q56 0 112 -8q55 -7 107 -24v1q26 0 47.5 8t36.5 20t25.5 26.5t16.5 28.5q8 21 25 37.5t38 24.5t44.5 5.5t46.5 -19.5q18 -11 28 -28.5t13 -37.5t-2 -39q-6 -19 -18 -36 q-21 -29 -55 -54q-33 -25 -82 -37h-3q35 -41 55 -95q21 -56 21 -129v-809q0 -24 -8 -42t-22 -30.5t-31.5 -20t-38.5 -7.5q-20 0 -39 7.5t-32 19t-21 30.5t-8 43v549q-30 -21 -73 -33.5t-91.5 -20.5t-101.5 -13.5t-103 -14.5t-96 -23.5t-80.5 -40t-55 -64.5t-20.5 -94 q0 -58 27 -97t69.5 -60t94.5 -26q52 -7 104 -1q16 3 31.5 -1.5t27 -13t19.5 -23.5t9.5 -32.5t-3 -32.5t-14 -27.5t-22.5 -20.5t-27 -11q-28 -6 -55 -8t-59 -2q-82 0 -155 17.5t-128.5 58.5t-87.5 105.5t-32 158.5z" />
<glyph unicode="&#xe2b;" horiz-adv-x="1227" d="M120 85v1057q0 23 8 41.5t22 30.5t31.5 19.5t37.5 7.5t39 -7.5t32.5 -20.5t21.5 -30.5t8 -40.5v-394l655 474q15 12 34 15.5t37 1.5t35 -11.5t29 -24.5q11 -16 15 -34.5t0 -34.5t-14 -32t-25 -26l-160 -115q55 -27 90 -65.5t56.5 -89.5t29.5 -113t8 -134v-474 q0 -24 -8 -42t-22 -30.5t-31.5 -20t-38.5 -7.5q-20 0 -39 7.5t-32 19t-21 30.5t-8 43v499q0 53 -8 95t-26 75t-47 55q-29 20 -70 32l-439 -318v-438q0 -24 -8 -42t-21.5 -30.5t-32.5 -20t-39 -7.5t-37.5 7.5t-31.5 19t-22 30.5t-8 43z" />
<glyph unicode="&#xe2c;" horiz-adv-x="1566" d="M72.5 1154q3.5 21 13 38t25.5 29q17 13 38 17q20 4 40.5 2t38 -12t31 -27.5t18.5 -44.5l155 -925l210 683q8 23 20.5 43.5t30.5 35t39 23.5t48 9q24 0 46 -9t40.5 -23.5t31.5 -35t19 -43.5l201 -683l123 579q13 60 17.5 109.5t-3.5 87t-30 61.5t-63 31q-28 6 -47.5 23 t-19.5 43q0 28 19 46t48 21q76 10 125.5 41.5t76.5 90.5q11 26 30 44t42.5 25t48.5 2.5t45 -25.5q18 -14 26.5 -32.5t10 -39t-4.5 -40t-20 -37.5q-41 -45 -95 -69t-113 -33q38 -11 67.5 -36t45.5 -64.5t17.5 -92t-16.5 -116.5l-192 -759q-12 -50 -48 -78t-82.5 -28t-81 28 t-48.5 78l-216 715l-225 -715q-15 -49 -48.5 -77.5t-80 -28.5t-83 28t-47.5 78l-223 1022q-4 20 -0.5 41z" />
<glyph unicode="&#xe2d;" horiz-adv-x="1207" d="M77 602q0 16 6 29.5t17 24t24 17t31 6.5h390q16 0 29.5 -6.5t24 -17t17 -23.5t6.5 -30t-6.5 -30.5t-17 -24t-24 -16t-29.5 -5.5h-262q0 -87 23.5 -157.5t66.5 -121.5t102 -79t132 -28q76 0 137.5 32t104 92t65 147t22.5 199q0 114 -21 202.5t-62 148.5t-104 91t-145 31 q-54 0 -101 -13t-86.5 -35.5t-67.5 -55.5t-44 -74q-16 -44 -49 -63q-34 -21 -78 -10q-22 6 -37 19t-24 29t-10.5 36.5t7.5 41.5q26 68 70 123t105 94.5t140 60t175 20.5q146 0 248.5 -50t166.5 -136.5t92 -204t28 -255.5q0 -84 -12.5 -164.5t-39.5 -152t-69.5 -130 t-101.5 -101t-135.5 -65.5t-173 -23t-174 23t-136.5 65.5t-100.5 101t-68 128.5t-39 148t-12.5 162z" />
<glyph unicode="&#xe2e;" horiz-adv-x="1201" d="M77 602q0 16 6 29.5t17 24t24 17t31 6.5h390q16 0 29.5 -6.5t24 -17t17 -23.5t6.5 -30t-6.5 -30.5t-17 -24t-24 -16t-29.5 -5.5h-262q0 -87 23.5 -157.5t66.5 -121.5t102 -79t132 -28q76 0 137.5 32t104 92t65 147t22.5 199q0 114 -21 202.5t-62 148.5t-104 91t-145 31 q-54 0 -101 -13t-86.5 -35.5t-67.5 -55.5t-44 -74q-16 -44 -49 -63q-34 -21 -78 -10q-22 6 -37 19t-24 29t-10.5 36.5t7.5 41.5q26 68 70 123t105 94.5t140 60t175 20.5q62 0 116 -10q54 -8 99 -25q23 2 41.5 9.5t32.5 19t23.5 25t14.5 27.5q9 21 25 37.5t36.5 24.5t44 5.5 t48.5 -19.5q17 -11 27.5 -28.5t12.5 -37.5t-2 -39q-5 -19 -16 -36q-21 -28 -54 -52q-31 -24 -78 -36q44 -44 74.5 -99t51 -121t29.5 -139t9 -152q0 -84 -12.5 -164.5t-39.5 -152t-69.5 -130t-101.5 -101t-135.5 -65.5t-173 -23t-174 23t-136.5 65.5t-100.5 101t-68 128.5 t-39 148t-12.5 162z" />
<glyph unicode="&#xe2f;" horiz-adv-x="1232" d="M93 885q0 64 16.5 114.5t44.5 88.5t67 64t81.5 43t89 24t90.5 7h103q18 0 33.5 -7t27 -19t17.5 -26.5t6 -31.5q0 -18 -6 -32.5t-17.5 -26t-27 -18.5t-33.5 -7h-103q-95 0 -139 -43t-44 -133q0 -41 12.5 -82t43 -73t82 -52.5t131.5 -20.5q168 0 256 65.5t88 207.5v215 q0 23 8.5 41.5t21.5 30.5t32 19.5t39 7.5q21 0 38.5 -7.5t31 -20.5t22 -30.5t8.5 -40.5v-1057q0 -24 -8.5 -42t-22 -30.5t-31 -20t-38.5 -7.5q-20 0 -39 7.5t-32 19t-21.5 30.5t-8.5 43v543q-26 -32 -62.5 -58.5t-81 -44t-94.5 -26.5q-52 -8 -105 -8q-119 0 -208 27.5 t-149 79.5t-89.5 124t-29.5 163z" />
<glyph unicode="&#xe30;" horiz-adv-x="702" d="M120 305v76q0 21 7 37.5t20.5 29.5t31 20.5t37.5 7.5q21 0 37.5 -7.5t29 -20.5t20.5 -30.5t8 -36.5v-16h229q16 0 30 -6t25 -17t17.5 -24.5t6.5 -31.5q0 -16 -6.5 -30t-17.5 -24t-25 -16t-30 -6h-324q-20 0 -37.5 7.5t-31 20.5t-20.5 30.5t-7 36.5zM120 911v76 q0 20 7 37.5t20.5 31t31 20.5t37.5 7q21 0 37.5 -7t29 -20.5t20.5 -31t8 -37.5v-15h229q16 0 30 -6.5t25 -17.5t17.5 -24.5t6.5 -29.5q0 -17 -6.5 -30.5t-17.5 -24t-25 -17t-30 -6.5h-324q-20 0 -37.5 8t-31 20.5t-20.5 30.5q-7 16 -7 36z" />
<glyph unicode="&#xe31;" d="M-736 1527v91q0 20 7.5 37.5t20.5 30.5t30.5 20.5t38.5 7.5q20 0 37 -7.5t29 -20.5t20 -30.5t8 -37.5v-30h533q16 0 30 -6.5t25 -17.5t17.5 -24.5t6.5 -29.5t-6.5 -30t-17.5 -24.5t-25 -17t-30 -6.5h-627q-21 0 -38.5 8t-30.5 20.5t-21 30.5q-7 16 -7 36z" />
<glyph unicode="&#xe32;" horiz-adv-x="985" d="M30 946q-1 21 5 41q20 66 62 114.5t96.5 81.5t120.5 50t133 17q90 0 167 -25t133 -74.5t88 -125.5t32 -178v-762q0 -24 -8.5 -42t-22 -30.5t-31.5 -20t-39 -7.5q-20 0 -38 7.5t-31.5 19t-22 30.5t-8.5 43v719q0 146 -55.5 212.5t-163.5 66.5q-82 0 -136 -38t-74 -114 q-6 -20 -19.5 -36t-31 -26.5t-38 -13t-40.5 2.5q-20 6 -37.5 19.5t-28 31t-12.5 37.5z" />
<glyph unicode="&#xe33;" horiz-adv-x="985" d="M-451 1624q0 42 16 80t44.5 65.5t65 44.5t80.5 17q41 0 79 -17t65.5 -44.5t45 -65.5t17.5 -80q0 -44 -17.5 -80.5t-45 -65t-65.5 -44.5t-79 -16q-44 0 -80.5 16t-65 44.5t-44.5 65t-16 80.5zM-330 1624q0 -18 7.5 -32.5t19 -26.5t26 -19t32.5 -7q17 0 31.5 7t26.5 19 t19 26.5t7 32.5q0 17 -7 31.5t-19 26.5t-26.5 19t-31.5 7q-18 0 -32.5 -7t-26 -19t-19 -26.5t-7.5 -31.5zM30 946q-1 21 5 41q20 66 62 114.5t96.5 81.5t120.5 50t133 17q90 0 167 -25t133 -74.5t88 -125.5t32 -178v-762q0 -24 -8.5 -42t-22 -30.5t-31.5 -20t-39 -7.5 q-20 0 -38 7.5t-31.5 19t-22 30.5t-8.5 43v719q0 146 -55.5 212.5t-163.5 66.5q-82 0 -136 -38t-74 -114q-6 -20 -19.5 -36t-31 -26.5t-38 -13t-40.5 2.5q-20 6 -37.5 19.5t-28 31t-12.5 37.5z" />
<glyph unicode="&#xe34;" d="M-1150 1508q0 16 5.5 30t16.5 25t25 17t31 6h888q16 0 30.5 -6t25.5 -17t17 -25t6 -30q0 -32 -23 -54q-24 -22 -56 -22h-888q-32 0 -55 21.5t-23 54.5z" />
<glyph unicode="&#xe35;" d="M-1150 1508q0 16 5.5 30t16.5 25t25 17t31 6h761v106q0 21 8 37.5t20.5 29.5t29.5 21q16 7 37 7q20 0 37.5 -7.5t31 -20.5t20.5 -30.5t7 -36.5v-184q0 -32 -22 -54q-24 -22 -57 -22h-873q-32 0 -55 21.5t-23 54.5z" />
<glyph unicode="&#xe36;" d="M-1150 1508q0 16 5.5 30t16.5 25t25 17t31 6h596q-3 11 -3 21.5v18.5q0 41 15.5 76t41.5 61.5t62 42t77 15.5t76 -15.5t61 -42t40.5 -61.5t14.5 -76q0 -40 -14.5 -75.5t-40.5 -61.5t-62 -41q-34 -16 -75 -16h-789q-32 0 -55 21.5t-23 54.5zM-362 1626q0 -14 6 -28.5 t17.5 -24t25.5 -15.5q15 -6 30 -6q14 0 29 6t25 15.5t16 24t6 28.5q0 18 -6 32t-16 25t-25 16.5t-29 5.5q-15 0 -29.5 -5.5t-26 -16.5t-17.5 -25t-6 -32z" />
<glyph unicode="&#xe37;" d="M-1150 1508q0 16 5.5 30t16.5 25t25 17t31 6h444v106q0 21 7.5 37.5t20.5 29.5t30 21q15 7 36 7q20 0 37.5 -7.5t30 -20.5t20 -30.5t7.5 -36.5v-106h131v106q0 21 7.5 37.5t19.5 29.5t29.5 20.5t38.5 7.5q20 0 36 -7.5t29.5 -20.5t20.5 -30.5t7 -36.5v-184q0 -32 -22 -54 q-24 -22 -57 -22h-873q-32 0 -55 21.5t-23 54.5z" />
<glyph unicode="&#xe38;" d="M-438 -234q0 15 6 28t16 23.5t23 16t29 5.5h171q15 0 28 -5.5t23.5 -16t16 -23.5t5.5 -28v-286q0 -20 -7 -37.5t-20.5 -29.5t-29.5 -19t-36 -7q-21 0 -38.5 7t-29.5 19t-19.5 29.5t-7.5 37.5v212h-56q-14 0 -28 6t-24 16t-16 23q-6 15 -6 29z" />
<glyph unicode="&#xe39;" d="M-873 -234q0 15 6 28t16 23.5t23 16t28 5.5h172q15 0 29 -5.5t24 -16t16 -23.5t6 -28v-74q0 -70 30 -105t92 -35q123 0 123 140v67q0 21 7.5 37.5t19.5 29.5t29.5 20.5t38.5 7.5q20 0 36 -7.5t29.5 -20.5t20.5 -30.5t7 -36.5v-67q0 -58 -16 -111.5t-52.5 -93t-96.5 -63 t-146 -23.5q-84 0 -144 21.5t-97.5 60t-55 91t-17.5 118.5h-55q-15 0 -28 6t-23 16t-16 23q-6 15 -6 29z" />
<glyph unicode="&#xe3a;" d="M-368 -254q0 29 11.5 56t31.5 47t47 31.5t56 11.5t55.5 -11.5t46 -31.5t31.5 -47t12 -56t-12 -55.5t-31.5 -46t-46 -30.5t-55.5 -11q-31 0 -57 11t-46 30.5t-31.5 46t-11.5 55.5z" />
<glyph unicode="&#xe3e;" />
<glyph unicode="&#xe3f;" horiz-adv-x="1389" d="M158 102v1256q0 20 8.5 39t21.5 32t32 22t40 9h362v158q0 20 13 37.5t34 17.5q23 0 35 -17q13 -18 13 -38v-158h28q118 0 209 -14.5t154 -54t95 -111.5q32 -74 32 -188q0 -117 -49 -194q-50 -77 -149 -124q64 -18 113 -50t81.5 -77t49.5 -102t17 -123q0 -79 -29 -154 t-85.5 -135t-139.5 -96.5t-191 -36.5h-136v-175q0 -21 -13 -37q-15 -16 -35 -16q-22 0 -34.5 16t-12.5 37v175h-362q-21 0 -40 8t-32 22t-21.5 33t-8.5 39zM362 174h260v486h-260v-486zM362 838h260v444h-260v-444zM717 174h108q64 0 114.5 17.5t85.5 50t52.5 81t17.5 108.5 q0 68 -27.5 112.5t-71.5 70t-99 36.5q-56 10 -112 10h-68v-486zM717 838h13q82 0 139 16t93.5 46.5t54 74.5t17.5 102q0 52 -10.5 86t-28 57.5t-43.5 36t-59 18t-70.5 6.5t-77.5 1h-28v-444z" />
<glyph unicode="&#xe40;" horiz-adv-x="499" d="M149 85v1057q0 23 8.5 41.5t22 30.5t31.5 19.5t39 7.5q20 0 38.5 -7.5t31.5 -20.5t21.5 -30.5t8.5 -40.5v-1057q0 -24 -8.5 -42t-21.5 -30.5t-31.5 -20t-38.5 -7.5q-21 0 -39 7.5t-31.5 19t-22 30.5t-8.5 43z" />
<glyph unicode="&#xe41;" horiz-adv-x="851" d="M120 85v1057q0 23 8 41.5t22 30.5t31.5 19.5t37.5 7.5t39 -7.5t32.5 -20.5t21.5 -30.5t8 -40.5v-1057q0 -24 -8 -42t-21.5 -30.5t-32.5 -20t-39 -7.5t-37.5 7.5t-31.5 19t-22 30.5t-8 43zM533 85v1057q0 23 8 41.5t21 30.5t32 19.5t40 7.5q20 0 37.5 -7.5t31.5 -20.5 t22 -30.5t8 -40.5v-1057q0 -24 -8 -42t-22 -30.5t-31.5 -20t-37.5 -7.5q-21 0 -40 7.5t-32 19t-21 30.5t-8 43z" />
<glyph unicode="&#xe42;" horiz-adv-x="585" d="M6 1686q0 18 7 34t19 27.5t28 18t33 6.5h503q16 0 31 -5.5t25.5 -16.5t17 -25.5t6.5 -30.5q0 -18 -6.5 -32t-17 -25t-25 -16.5t-31.5 -5.5h-297q19 -15 33.5 -37t25 -46.5t16.5 -52.5t6 -53v-1274h67q16 0 30 -6t24 -16t16 -24t6 -30t-6 -30t-16 -24t-25 -16t-29 -6h-187 q-16 0 -30 6t-25 16t-17 24t-6 30v1345q0 38 -9 67.5t-24.5 53t-37.5 38.5q-20 16 -47 25q-25 8 -41.5 31t-16.5 50z" />
<glyph unicode="&#xe43;" horiz-adv-x="585" d="M-53 1597q14 59 45 102.5t73.5 73t93 44t104.5 14.5q57 0 110 -13t94 -41t65 -73t24 -107q0 -32 -9.5 -57t-25.5 -47.5t-40 -46.5t-53 -59q-18 -20 -28 -46.5t-14.5 -55t-5 -56t-0.5 -51.5v-1026h67q16 0 30 -6t24 -16t16 -24t6 -30t-6 -30t-16 -24t-25 -16t-29 -6h-187 q-16 0 -30 6t-25 16t-17 24t-6 30v1102q0 50 4 87t14 68.5t30.5 61.5t55.5 65q13 13 30 28.5t31 33t23.5 35t9.5 36.5q0 16 -6 32t-19 27.5t-35 19.5t-57 8q-57 0 -90 -32.5t-43 -92.5q-3 -19 -14 -33.5t-26.5 -24t-33.5 -13.5t-37 2q-19 5 -33.5 15t-25 25.5t-13 33 t-0.5 37.5z" />
<glyph unicode="&#xe44;" horiz-adv-x="585" d="M-114 1694q0 16 6 30.5t17.5 25.5t25.5 17q12 5 30 5h504q17 0 33 -6.5t28 -18t18.5 -27.5t6.5 -34q0 -27 -16 -49t-40 -32q-26 -9 -48 -24.5t-38 -39t-24.5 -54t-8.5 -66.5v-1269h67q16 0 30 -6t24 -16t16 -24t6 -30t-6 -30t-16 -24t-25 -16t-29 -6h-187q-16 0 -30 6 t-25 16t-17 24t-6 30v1350q0 27 5.5 54t15.5 51.5t25.5 46.5t34.5 37h-298q-18 0 -31 5.5t-24.5 16.5t-17.5 25t-6 32z" />
<glyph unicode="&#xe45;" horiz-adv-x="985" d="M30 946q-1 21 5 41q20 66 62 114.5t96.5 81.5t120.5 50t133 17q90 0 167 -25t133 -74.5t88 -125.5t32 -178v-1161q0 -23 -8.5 -41.5t-22 -31t-31.5 -19t-39 -6.5q-20 0 -38 6.5t-31.5 19t-22 31t-8.5 41.5v1118q0 146 -55.5 212.5t-163.5 66.5q-82 0 -136 -38t-74 -114 q-6 -20 -19.5 -36t-31 -26.5t-38 -13t-40.5 2.5q-20 6 -37.5 19.5t-28 31t-12.5 37.5z" />
<glyph unicode="&#xe46;" horiz-adv-x="1159" d="M82 803q0 76 10 143t40 122.5t82 96.5t135 64q9 3 22.5 5.5t30 1.5t32.5 -7q16 -8 30 -23l101 -105l92 108q15 17 34 23t36.5 6t33.5 -4q16 -3 27 -6q82 -24 131.5 -69.5t74.5 -108t32.5 -134.5t7.5 -150v-1080q0 -23 -7.5 -41.5t-21.5 -31t-32 -19t-39 -6.5 q-20 0 -38.5 6.5t-32 19t-21 31t-7.5 41.5v1105q0 38 -3 82t-12.5 83.5t-30.5 67t-59 33.5l-140 -146q-10 -10 -25.5 -11t-27.5 11l-143 146q-38 -15 -61 -39.5t-36.5 -58t-16.5 -72.5q-6 -39 -3 -81q0 -29 6 -57t18.5 -51t34.5 -38t57 -15q42 -1 61 -26.5t16 -63.5 q-1 -22 -10 -37.5t-23 -25.5t-31.5 -16t-34.5 -6q-59 -1 -111.5 21.5t-92 65t-62.5 104.5t-23 142z" />
<glyph unicode="&#xe47;" d="M-975 1683q0 70 26 118.5t68.5 78.5t98.5 44q58 13 116 13h517q32 0 51 -20t19 -50q0 -29 -20 -49q-18 -21 -50 -21h-496q-50 0 -80 -11.5t-44.5 -28.5t-18 -37.5t-3.5 -36.5q0 -11 3 -26t11.5 -28.5t26 -22.5t46.5 -9q38 0 61 20q23 21 30 53q6 24 25 40t43 16 q27 0 46 -16q17 -16 23 -41q7 -32 29 -52t59 -20q73 0 77 62q3 32 26.5 50t58.5 15t51.5 -27t16.5 -62q-1 -49 -19.5 -84.5t-46 -58.5t-64 -34t-74.5 -11t-68.5 12.5t-54 33t-38 43.5t-17.5 47q-3 -24 -20 -47t-43 -43.5t-60.5 -33t-69.5 -12.5q-67 0 -114 23.5t-75 59 t-40.5 76.5t-12.5 77z" />
<glyph unicode="&#xe48;" d="M-311 1991v161q0 20 8 38.5t20.5 31t29.5 19.5q16 7 37 7q20 0 37.5 -7t31 -19.5t20.5 -30.5q7 -19 7 -39v-161q0 -20 -7 -37.5t-20.5 -30.5t-31 -20.5t-37.5 -7.5q-21 0 -37.5 7.5t-29 20.5t-20.5 30.5t-8 37.5z" />
<glyph unicode="&#xe49;" d="M-660 2170q0 14 6 27t16 23.5t23 16.5t28 6h140q15 0 28 -6t23.5 -16.5t16 -23.5t5.5 -27v-110q114 0 184 36.5t98 103.5q6 18 18.5 30.5t27.5 19.5t32 7t34.5 -6t29 -17.5t19 -27t7.5 -32t-6 -34.5q-19 -46 -56 -88.5t-93.5 -73t-131.5 -48t-169 -17.5h-87 q-15 0 -28 5.5t-23.5 16t-16 23.5t-5.5 28v111h-47q-15 0 -28 5t-23 14.5t-16 23.5q-6 15 -6 30z" />
<glyph unicode="&#xe4a;" d="M-689 1987q0 51 16 90.5t41.5 66t58.5 41t65 14.5q45 0 82.5 -22.5t54.5 -59.5q18 34 56 58t87 24q28 0 53.5 -10.5t46.5 -29.5t36 -46t20 -62q12 9 23 24.5t21 34.5t19 40t13 44q3 18 13.5 30.5t24 19.5t30 9.5t30.5 -2.5q16 -4 28.5 -13.5t20.5 -24t10.5 -30.5 t-0.5 -31q-11 -44 -32.5 -85t-51.5 -73t-65 -54t-72 -30h-77q-24 0 -43 15t-24 39q-3 14 -7 27.5t-10.5 24t-15 16.5t-23.5 6q-19 0 -30 -11.5t-11 -40.5q0 -15 -5.5 -26.5t-15 -21t-22 -15t-25.5 -5.5q-15 0 -26.5 5.5t-21 15t-14.5 20.5q-7 12 -7 27q0 8 -3 18.5t-8 17.5 t-13 11.5t-20 4.5q-23 0 -36 -19t-13 -57q0 -17 -8.5 -30.5t-21.5 -22t-29.5 -11.5t-31.5 -1q-32 5 -49.5 29.5t-17.5 60.5z" />
<glyph unicode="&#xe4b;" d="M-510 2140q0 31 21 52q22 21 54 21h124v79q0 21 8 38.5t20.5 30.5t29.5 20q16 6 37 6q20 0 37.5 -6.5t31 -19.5t20.5 -30.5t7 -38.5v-79h126q16 0 29 -5.5t22.5 -16t15.5 -23.5t6 -29q0 -31 -20.5 -52t-52.5 -21h-126v-79q0 -20 -7 -38.5t-20.5 -31t-31 -19t-37.5 -6.5 q-21 0 -37.5 6.5t-29 19t-20.5 30t-8 39.5v79h-124q-16 0 -30 6t-24 15.5t-15 22.5q-6 16 -6 30z" />
<glyph unicode="&#xe4c;" d="M-461 1851q-3 19 3 40q11 49 40.5 89.5t73 69.5t98.5 45q53 16 118 19q33 2 56 -17q25 -18 28 -50q2 -18 -3.5 -32.5t-14 -24.5t-21.5 -17.5t-29 -7.5q-72 -3 -116 -33.5t-52 -87.5q-3 -19 -15 -32t-26.5 -22t-33.5 -12t-36 2q-19 3 -34.5 13t-24 24.5t-11.5 33.5z" />
<glyph unicode="&#xe4d;" d="M-451 1624q0 42 16 80t44.5 65.5t65 44.5t80.5 17q41 0 79 -17t65.5 -44.5t45 -65.5t17.5 -80q0 -44 -17.5 -80.5t-45 -65t-65.5 -44.5t-79 -16q-44 0 -80.5 16t-65 44.5t-44.5 65t-16 80.5zM-330 1624q0 -18 7.5 -32.5t19 -26.5t26 -19t32.5 -7q17 0 31.5 7t26.5 19 t19 26.5t7 32.5q0 17 -7 31.5t-19 26.5t-26.5 19t-31.5 7q-18 0 -32.5 -7t-26 -19t-19 -26.5t-7.5 -31.5z" />
<glyph unicode="&#xe4e;" d="M-520 1527q3 37 19 69.5t42.5 58t62.5 44.5q37 21 84 30q5 38 24 70t50 58t72.5 41t93.5 18q36 1 58.5 -16t28.5 -49q3 -17 -1.5 -31.5t-13.5 -26.5t-22 -19t-28 -9q-35 -3 -56.5 -11.5t-32.5 -25.5t-15 -42t-4 -57q0 -14 -8.5 -23t-32.5 -9q-35 0 -61 -7t-42 -20.5 t-25.5 -34t-12.5 -46.5q-3 -19 -13.5 -33.5t-25.5 -24t-32.5 -12.5t-36.5 0q-41 9 -58 37.5t-14 70.5z" />
<glyph unicode="&#xe4f;" horiz-adv-x="1480" d="M91 610q0 89 22.5 171.5t64.5 153.5t101.5 130t131.5 100t154.5 64.5t173.5 23.5q87 0 169 -23.5t153.5 -64.5t130 -100t99.5 -130t64 -153.5t23 -171.5t-23 -171.5t-64 -154t-99.5 -130t-130 -100t-153.5 -64t-169 -22.5q-91 0 -173.5 22.5t-154.5 64t-131.5 100 t-101.5 130t-64.5 154t-22.5 171.5zM257 616q0 -66 17.5 -127t48 -114.5t74.5 -98t97.5 -76t115.5 -49t129 -17.5q64 0 125.5 17.5t114 49t96 76t74.5 98t48.5 114.5t17.5 127t-17.5 126.5t-48.5 113t-74.5 96.5t-96 74.5t-114 48t-125.5 17.5q-67 0 -129 -17.5t-115.5 -48 t-97.5 -74.5t-74.5 -96.5t-48 -113t-17.5 -126.5zM394 616q0 69 28 130t74.5 107t109.5 74t133 28q68 0 129 -28t106 -74t72 -107t27 -130q0 -70 -27 -133t-72 -109t-106 -73t-129 -27q-70 0 -133 27t-109.5 73t-74.5 109t-28 133zM540 616q0 -41 15.5 -77.5t41.5 -62.5 t62 -42t80 -16q39 0 73.5 16t60 42t40 62.5t14.5 77.5q0 40 -14.5 74t-40 60.5t-60 41.5t-73.5 15q-44 0 -80 -15t-62 -41.5t-41.5 -60.5t-15.5 -74z" />
<glyph unicode="&#xe50;" horiz-adv-x="1295" d="M93 565q0 115 38 210t109.5 162t175.5 105t232.5 38t232 -38t175 -105t109.5 -162t38 -210q0 -111 -20.5 -198t-56 -152.5t-86 -110t-112 -73t-133 -40t-147.5 -11.5t-146.5 12t-132.5 40.5t-113.5 74t-87 110.5t-55.5 151t-20 197zM283 523q0 -84 26.5 -153t74.5 -119.5 t115 -79t149 -28.5t149 28.5t114 79t73 119.5t26 153q0 106 -29 181.5t-78.5 122t-115.5 67t-139 20.5t-138.5 -20.5t-116 -67t-80.5 -121t-30 -182.5z" />
<glyph unicode="&#xe51;" horiz-adv-x="1284" d="M70 175.5q3 17.5 12 34.5q11 16 26 27t32.5 16t36.5 1.5t38 -17.5q41 -30 82.5 -49.5t85 -32t90.5 -17t98 -4.5q92 0 168 28t130.5 83.5t84.5 135.5t30 184q0 82 -20.5 148.5t-63 114t-108 73.5t-155.5 26q-73 0 -133 -19.5t-102.5 -51t-65 -72.5t-22.5 -85 q0 -36 11.5 -69.5t39.5 -58.5t74 -39.5t113 -11.5q36 1 59 -19q23 -22 25.5 -54t-17.5 -55.5t-55 -27.5q-59 -9 -115 -4t-108 22.5t-96 45.5t-76 65.5t-49.5 86t-17.5 102.5q0 71 20.5 129t58.5 102.5t87.5 76.5t109 52.5t124 30.5t129.5 10q117 0 220.5 -28.5t179.5 -90.5 t120.5 -159.5t44.5 -236.5q0 -131 -42.5 -238.5t-122 -185t-195 -120t-258.5 -42.5q-55 0 -113.5 1.5t-117.5 10.5t-118 29q-60 21 -115 57q-16 12 -27 27.5t-15.5 33t-1.5 35z" />
<glyph unicode="&#xe52;" horiz-adv-x="1458" d="M3 1129.5q0 16.5 6 32.5q6 18 17.5 31t26 20.5t33.5 10t37 -2.5q84 -21 131.5 -96t47.5 -204v-460q0 -64 28.5 -119.5t85.5 -97t143 -65.5t200 -24q108 0 185 22.5t124 59.5t69 85.5t22 99.5v311q0 41 -10 70t-28.5 51t-42.5 33.5t-53 17.5l-155 -140l-155 131 q-19 0 -40 -8.5t-38.5 -28t-27.5 -49t-10 -68.5v-94q-2 -35 -1 -70t10.5 -62t30.5 -43.5t60 -16.5h13q36 0 57 -23q21 -24 21 -56t-21 -55t-57 -23h-33q-64 0 -110 17.5t-77 46t-48.5 65t-27 74.5t-12.5 75q-4 36 -4 65v82q0 60 19.5 113.5t55.5 98.5t87 78.5t114 51.5 q9 3 21.5 4.5t27 0t30.5 -7.5t32 -21l83 -73l79 73q18 18 35.5 24.5t34 7.5t30.5 -2t26 -6q61 -15 112 -43.5t88.5 -68.5t58.5 -89.5t21 -108.5v-298q0 -81 -20.5 -148.5t-55.5 -120t-84.5 -91t-109 -64t-127 -37.5t-139.5 -12h-104q-144 0 -257 35t-191.5 101t-118.5 157 q-40 93 -40 204v400q0 74 -11 116t-44 56q-17 6 -27.5 17.5t-16.5 26.5t-6 31.5z" />
<glyph unicode="&#xe53;" horiz-adv-x="1318" d="M102 482v86q0 109 20.5 192.5t60 143.5t98 98.5t131.5 58.5q11 3 28.5 5.5t39 -0.5t44.5 -13q25 -11 48 -31l85 -80l96 80q18 15 36 26.5t39.5 17.5t46 5t56.5 -10q73 -20 127.5 -57t89.5 -88.5t52.5 -112.5t17.5 -127v-591q0 -22 -8 -40.5t-22 -31.5t-31.5 -20.5 t-38.5 -7.5q-20 0 -37.5 7.5t-31.5 20.5t-22 30.5t-8 41.5v591q0 44 -14.5 84t-39.5 69t-57 47t-64 15q-21 -18 -45.5 -38.5t-48 -41t-47.5 -39.5q-26 -19 -46 -36l-172 155q-29 -3 -61.5 -18t-60 -51.5t-46 -97.5t-18.5 -153v-86q0 -38 1.5 -76t6.5 -74.5t14.5 -68 t26.5 -55t41 -37t59 -13.5q10 0 26.5 1.5t36.5 2.5q18 1 34 -4t28 -16t20.5 -25.5t9.5 -31.5q1 -18 -4 -34t-16 -28.5t-25.5 -20.5t-31.5 -11q-94 -12 -162 3t-115.5 47t-76.5 80t-44.5 106.5t-20.5 123t-5 128.5z" />
<glyph unicode="&#xe54;" horiz-adv-x="1318" d="M93 464v123q0 121 39.5 209.5t112.5 147t176 86.5q102 28 230 28h207q38 0 64.5 7.5t45.5 21.5t29 33t15 42q4 22 16 39t29.5 26.5t36.5 12.5q20 4 40 -2q21 -6 36.5 -17.5t25.5 -27.5t13 -36.5t0 -43.5q-9 -46 -32.5 -86t-64 -70.5t-100.5 -49.5t-145 -19h-236 q-79 0 -142 -17.5t-107.5 -52t-68.5 -85t-24 -114.5v-146q0 -64 18.5 -121t55.5 -98t95.5 -64.5t140.5 -23.5h49q-17 15 -33 36t-28 46.5t-20 58t-8 67.5q0 14 2.5 36t10.5 47t23 51t41.5 47.5t66 36.5t94.5 20q35 3 61.5 -17t32.5 -58q4 -35 -16 -61q-19 -26 -57 -32 q-28 -5 -42.5 -15.5t-20.5 -24.5t-6.5 -28t-0.5 -23q0 -25 9 -49t24.5 -44.5t34.5 -37t38 -29t36.5 -20t30.5 -7.5h229q19 0 34.5 -5.5t26.5 -17.5t17.5 -27t6.5 -33q0 -17 -6.5 -32.5t-17.5 -26.5t-26.5 -17.5t-34.5 -6.5h-579q-95 0 -167.5 20.5t-125.5 55.5t-88 81 t-57 98t-31 105q-9 55 -9 104z" />
<glyph unicode="&#xe55;" horiz-adv-x="1318" d="M93 464v123q0 107 28 185t79 132t122 87q72 34 157 53q-5 9 -8 25q-4 17 -4 32q0 42 15.5 79.5t42.5 65t63.5 44.5t77.5 17q44 0 82.5 -17t66 -44.5t43 -65.5t15.5 -79q0 -6 -0.5 -15t-2.5 -14q-1 -8 -3 -14q70 2 103 29.5t42 74.5q4 22 16 39t29.5 26.5t36.5 12.5 q20 4 40 -2q21 -6 36.5 -17.5t25.5 -27.5t13 -36.5t0 -43.5q-9 -46 -32.5 -86t-64 -70.5t-100.5 -49.5t-145 -19h-225q-78 0 -142.5 -15t-111 -47t-73 -83t-26.5 -124v-146q0 -64 18.5 -121t55.5 -98t95.5 -64.5t140.5 -23.5h49q-17 15 -33 36t-28 46.5t-20 58t-8 67.5 q0 14 2.5 36t10.5 47t23 51t41.5 47.5t66 36.5t94.5 20q35 3 61.5 -17t32.5 -58q4 -35 -16 -61q-19 -26 -57 -32q-28 -5 -42.5 -15.5t-20.5 -24.5t-6.5 -28t-0.5 -23q0 -25 9 -49t24.5 -44.5t34.5 -37t38 -29t36.5 -20t30.5 -7.5h229q19 0 34.5 -5.5t26.5 -17.5t17.5 -27 t6.5 -33q0 -17 -6.5 -32.5t-17.5 -26.5t-26.5 -17.5t-34.5 -6.5h-579q-95 0 -167.5 20.5t-125.5 55.5t-88 81t-57 98t-31 105q-9 55 -9 104zM593 1107q0 -35 19 -57t51 -22q36 0 57.5 22t21.5 57t-20.5 56t-58.5 21q-32 0 -51 -21t-19 -56z" />
<glyph unicode="&#xe56;" horiz-adv-x="1324" d="M79 1052.5q-3 17.5 0.5 34.5t13.5 31q12 15 27 24q16 8 32.5 11t34 -0.5t32.5 -13.5t23 -26l84 -138q35 18 73.5 35.5t86.5 31.5t105 23.5t130 11.5q102 3 182.5 -15t139.5 -52.5t99.5 -82.5t66 -105.5t36.5 -122.5t11 -131v-77q0 -103 -36 -197t-107.5 -164t-179 -109.5 t-248.5 -35.5q-105 3 -191.5 29.5t-148.5 72.5t-95 110q-34 66 -34 145q0 73 25 127t70 88t108.5 51t142.5 17h15q16 0 30.5 -6t24.5 -17t17 -25.5t7 -30.5q0 -17 -7 -31t-17 -24.5t-24.5 -17t-30.5 -6.5h-6q-48 0 -79 -8.5t-48.5 -26t-24.5 -43.5q-7 -24 -7 -56 q0 -38 20.5 -70t58.5 -57t90 -39q53 -15 115 -15q70 -2 135 19.5t115 63.5t80 105.5t30 147.5v74q0 91 -23 156t-65 107t-102 62q-60 18 -136 18q-102 -1 -200 -28t-199 -87q-8 -6 -22 -13.5t-28.5 -9t-32 8t-33.5 36.5l-124 207q-9 16 -12 33.5z" />
<glyph unicode="&#xe57;" horiz-adv-x="1554" d="M120 482v77q0 207 80 330q80 121 229 165q12 3 28 6t36.5 0t42.5 -14t45 -36l61 -68l69 68q23 24 44.5 35.5t40.5 13.5t33.5 0t23.5 -5q84 -23 141 -68.5t90.5 -109t47 -141.5t13.5 -167v-86q-2 -35 -4 -79t-7 -85.5t-16 -78.5q-8 -38 -26 -59q44 13 76 47t52.5 81.5 t29.5 102.5q9 53 9 109v409q0 128 46.5 204t132.5 96q18 5 36 2.5t34 -9.5t28 -20.5t17 -30.5q6 -16 4.5 -33t-6.5 -31.5t-16 -26t-27 -17.5q-33 -15 -43.5 -57t-10.5 -115v-351q0 -111 -27 -207t-83 -169t-143 -119q-88 -45 -208 -57q-26 -3 -48 6t-38 25.5t-25 38t-9 46.5 q0 35 21 65q23 35 35.5 71.5t19 74.5t8 77.5t1.5 83.5v92q0 77 -13.5 134t-36 95t-51.5 58.5t-61 26.5l-154 -155l-146 158q-27 -2 -58.5 -20t-58.5 -56t-44.5 -99.5t-17.5 -147.5v-77q0 -38 0.5 -77t6.5 -74.5t14.5 -67.5t25.5 -55.5t42 -36.5q26 -13 61 -13q6 0 9 0.5 t6 1.5t8.5 1t16.5 1q17 1 34 -4t28.5 -16t20.5 -25.5t9 -31.5q1 -18 -4 -34t-15.5 -28.5t-25 -20.5t-31.5 -11q-86 -9 -149.5 6t-108.5 47t-73 80t-44.5 105t-22 121.5t-5.5 128.5z" />
<glyph unicode="&#xe58;" horiz-adv-x="1315" d="M117 388v202q0 109 32 196t96.5 148.5t160 94t222.5 32.5h267q38 0 65 7t44.5 20t28.5 32t15 42q5 22 16.5 39t28.5 26.5t37 12.5q20 4 41 -2q20 -6 36 -17.5t25.5 -27.5t13.5 -36.5t-2 -43.5q-9 -46 -31.5 -86.5t-62.5 -72t-101.5 -50.5t-144.5 -19h-297q-77 0 -133 -22 t-91.5 -58.5t-52 -84.5t-16.5 -98v-234q0 -43 15.5 -81t41 -68t56 -48.5t61.5 -21.5q42 38 90 79q47 41 88 80l192 -159q34 0 62.5 12t50.5 36t33.5 64t11.5 99q0 26 -2 53t-13 49.5t-31.5 37t-57.5 14.5q-35 0 -56 22t-21 56q0 16 6 30.5t16 24.5t24.5 16t30.5 8 q66 3 114.5 -9.5t81 -36t53 -54t31.5 -66.5t15.5 -73t4.5 -72q0 -161 -63 -259t-197 -124q-15 -3 -35.5 -5t-45 0t-49.5 11t-45 26l-111 91l-100 -91q-17 -17 -36.5 -24.5t-37.5 -10.5t-33 -1.5t-24 4.5q-79 18 -138.5 54.5t-99 88t-60 115t-20.5 133.5z" />
<glyph unicode="&#xe59;" horiz-adv-x="1290" d="M99 482v80q0 127 19 223.5t64.5 160.5t118.5 97.5t181 33.5q20 0 43.5 -0.5t47.5 -2.5t46 -7q20 -4 38 -11q32 -16 55.5 -39.5t46.5 -58.5l102 100q5 5 15 12q9 7 23 7h47q41 0 69.5 4.5t48 14t30 26.5t14.5 40q5 22 16.5 39t27.5 25.5t35 11.5t41 0q22 -4 38 -16 t24.5 -28.5t11.5 -37.5q3 -20 -3 -43q-10 -46 -31 -83t-59 -65t-96.5 -44t-143.5 -16q-20 0 -29.5 -5.5t-18.5 -14.5l-68 -72l327 -696q17 -40 5.5 -74t-49.5 -49q-38 -14 -73 -3.5t-51 45.5l-327 700q-41 83 -90 126t-116 43q-40 0 -73.5 -15t-57.5 -54t-38 -103t-14 -162 v-86q0 -38 2.5 -77t8 -74.5t16.5 -67.5t28.5 -55.5t43 -36.5t61.5 -13q5 0 8 0.5t7.5 1.5t9.5 1t15 1q35 3 61 -19.5t28 -57.5q2 -18 -3 -34t-16 -28.5t-25.5 -20.5t-32.5 -11q-86 -9 -149.5 6t-109 47t-74.5 80t-46.5 105t-23.5 121.5t-6 128.5z" />
<glyph unicode="&#xe5a;" horiz-adv-x="1646" d="M93 885q0 64 16.5 114.5t44.5 88.5t67 64t81.5 43t89 24t90.5 7h103q18 0 33.5 -7t27 -19t17.5 -26.5t6 -31.5q0 -18 -6 -32.5t-17.5 -26t-27 -18.5t-33.5 -7h-103q-95 0 -139 -43t-44 -133q0 -41 12.5 -82t43 -73t82 -52.5t131.5 -20.5q168 0 256 65.5t88 207.5v215 q0 23 8.5 41.5t21.5 30.5t32 19.5t39 7.5q21 0 38.5 -7.5t31 -20.5t22 -30.5t8.5 -40.5v-1057q0 -24 -8.5 -42t-22 -30.5t-31 -20t-38.5 -7.5q-20 0 -39 7.5t-32 19t-21.5 30.5t-8.5 43v543q-26 -32 -62.5 -58.5t-81 -44t-94.5 -26.5q-52 -8 -105 -8q-119 0 -208 27.5 t-149 79.5t-89.5 124t-29.5 163zM1329 85v1057q0 23 7 41.5t21 30.5t32 19.5t39 7.5q20 0 38.5 -7.5t32.5 -20.5t21 -30.5t7 -40.5v-1057q0 -24 -7 -42t-21 -30.5t-32.5 -20t-38.5 -7.5q-21 0 -39 7.5t-32 19t-21 30.5t-7 43z" />
<glyph unicode="&#xe5b;" horiz-adv-x="2591" d="M108 634q0 67 15.5 136.5t45.5 134t75 121.5t102.5 99.5t128.5 67.5t156 25q102 0 181 -31.5t133.5 -83.5t86 -119t38.5 -140q3 -19 -2 -36.5t-16.5 -31.5t-27 -24t-34.5 -12q-19 -3 -37.5 2.5t-32 16t-23 26t-12.5 36.5q-15 99 -73.5 148.5t-157.5 55.5 q-82 0 -145.5 -32t-108 -87t-67 -128.5t-22.5 -158.5q0 -82 30 -156.5t83 -131.5t128.5 -90.5t168.5 -33.5q85 0 153 25t119.5 70t89.5 106.5t63 136t37 157.5q11 83 14 171q0 22 9 41t23.5 33t33.5 22.5t39 8.5q24 0 45 -10t36 -28q26 -32 51.5 -65.5t47.5 -65.5t41 -63 t32 -55q23 38 53 84t62 94q12 17 29.5 26.5t35.5 11t36.5 -7t31.5 -27.5q32 -50 60 -97q26 -48 47 -84l111 150h408q21 0 38.5 -8t30.5 -21t21 -31.5t8 -37.5q0 -20 -8 -37.5t-21 -31t-30.5 -21.5t-38.5 -8h-350q-28 -41 -57 -83t-57 -89q-9 -19 -23.5 -28.5t-30.5 -9.5 t-31 10q-14 11 -26 31q-29 54 -57.5 103t-56.5 87q-32 -41 -65 -98t-68 -136q-10 -19 -24.5 -27t-30.5 -8t-30 10q-12 11 -21 28q-35 79 -71.5 140.5t-71.5 109.5q-6 -97 -32.5 -184.5t-68.5 -162.5t-99 -135.5t-127 -104t-150.5 -66.5t-168.5 -23q-96 0 -179 24.5 t-150.5 69t-118.5 104.5t-86 129.5t-52.5 145.5t-17.5 152z" />
<glyph unicode="&#x2000;" horiz-adv-x="1193" />
<glyph unicode="&#x2001;" horiz-adv-x="2387" />
<glyph unicode="&#x2002;" horiz-adv-x="1193" />
<glyph unicode="&#x2003;" horiz-adv-x="2387" />
<glyph unicode="&#x2004;" horiz-adv-x="795" />
<glyph unicode="&#x2005;" horiz-adv-x="596" />
<glyph unicode="&#x2006;" horiz-adv-x="397" />
<glyph unicode="&#x2007;" horiz-adv-x="397" />
<glyph unicode="&#x2008;" horiz-adv-x="298" />
<glyph unicode="&#x2009;" horiz-adv-x="477" />
<glyph unicode="&#x200a;" horiz-adv-x="132" />
<glyph unicode="&#x200b;" />
<glyph unicode="&#x2010;" horiz-adv-x="938" d="M82 549q0 16 6.5 30t17.5 25.5t25 17.5q12 6 30 6h619q16 0 29.5 -6t24.5 -17.5t17.5 -26t6.5 -29.5q0 -18 -6.5 -32.5t-17.5 -24.5t-25.5 -16t-28.5 -6h-619q-18 0 -31 6t-24 16t-17.5 24.5t-6.5 32.5z" />
<glyph unicode="&#x2011;" horiz-adv-x="938" d="M82 549q0 16 6.5 30t17.5 25.5t25 17.5q12 6 30 6h619q16 0 29.5 -6t24.5 -17.5t17.5 -26t6.5 -29.5q0 -18 -6.5 -32.5t-17.5 -24.5t-25.5 -16t-28.5 -6h-619q-18 0 -31 6t-24 16t-17.5 24.5t-6.5 32.5z" />
<glyph unicode="&#x2012;" horiz-adv-x="938" d="M82 549q0 16 6.5 30t17.5 25.5t25 17.5q12 6 30 6h619q16 0 29.5 -6t24.5 -17.5t17.5 -26t6.5 -29.5q0 -18 -6.5 -32.5t-17.5 -24.5t-25.5 -16t-28.5 -6h-619q-18 0 -31 6t-24 16t-17.5 24.5t-6.5 32.5z" />
<glyph unicode="&#x2013;" horiz-adv-x="1024" d="M7 569q0 18 6.5 32.5t17.5 25t26 17.5q13 7 31 7h849q18 0 32 -7t24.5 -17.5t17.5 -25.5q7 -14 7 -32q0 -17 -7 -31.5t-17.5 -25.5t-25.5 -18q-13 -6 -31 -6h-849q-18 0 -32 6.5t-25 17.5t-17.5 25.5t-6.5 31.5z" />
<glyph unicode="&#x2014;" horiz-adv-x="2026" d="M15 569q0 18 6.5 32.5t17.5 25t25.5 17.5t31.5 7h1836q17 0 31 -7t25.5 -17.5t17.5 -25.5q6 -14 6 -32q0 -17 -6 -31.5t-17.5 -25.5t-26 -17.5t-30.5 -6.5h-1836q-17 0 -31.5 6.5t-25.5 17.5t-17.5 25.5t-6.5 31.5z" />
<glyph unicode="&#x2018;" horiz-adv-x="562" d="M134 1124q0 76 19 139t66 118q15 18 34.5 34.5t40 29t41.5 20t39 7.5q20 0 30.5 -10.5t13.5 -24.5q2 -18 -11 -33q-16 -16 -39 -30q-21 -12 -41 -28.5t-37.5 -41.5t-28 -59.5t-11.5 -80.5q17 10 33 11q15 2 27 2q26 0 48 -10.5t36.5 -26.5t21.5 -39.5t7 -46.5 q0 -26 -10 -50t-27.5 -42.5t-41.5 -28.5q-26 -10 -52 -10q-41 0 -70 15t-48 42t-29.5 63.5t-10.5 80.5z" />
<glyph unicode="&#x2019;" horiz-adv-x="562" d="M137 1340q0 27 10.5 51.5t28.5 42t42 28t51 10.5q41 0 70 -15t49.5 -42.5t29 -64t8.5 -78.5q0 -76 -19 -139q-19 -64 -65 -120q-15 -17 -34 -33t-39.5 -29.5t-41 -20.5t-39.5 -7q-20 0 -30 11q-9 9 -12 24q-3 17 10 33t37 31q20 12 42 28.5t38 40.5t27 59q11 36 12 82 q-17 -10 -33 -12t-28 -2q-26 0 -47.5 10t-36 27t-22.5 39.5t-8 45.5z" />
<glyph unicode="&#x201c;" horiz-adv-x="864" d="M102 1124q0 76 19 139t66 118q14 18 33 34.5t39.5 29t41 20t39.5 7.5q21 0 31 -11q9 -10 12 -24q2 -18 -11 -33.5t-36 -29.5q-21 -12 -42.5 -28.5t-38 -41.5t-27 -59.5t-12.5 -80.5q18 10 34 11.5t27 1.5q27 0 48 -10.5t35.5 -26.5t22.5 -39.5t8 -46.5q0 -26 -10 -50 t-28.5 -42.5t-42.5 -28.5t-50 -10q-41 0 -70 15t-49.5 42t-29.5 63.5t-9 80.5zM466 1124q0 76 19 139t65 118q15 18 34.5 34.5t40 29t41 20t38.5 7.5q20 0 30.5 -10.5t13.5 -24.5q2 -18 -11 -33.5t-38 -29.5q-20 -12 -41 -28.5t-38 -41.5t-28 -59.5t-11 -80.5q18 10 34 11.5 t26 1.5q26 0 47.5 -10.5t36 -26.5t22.5 -39.5t8 -46.5q0 -26 -10.5 -50t-28.5 -42.5t-41.5 -28.5t-51.5 -10q-40 0 -69.5 15t-49 42t-29 63.5t-9.5 80.5z" />
<glyph unicode="&#x201d;" horiz-adv-x="864" d="M110 1340q0 27 10 51.5t28 42t41.5 28t51.5 10.5q41 0 70 -15t49 -42.5t29.5 -64t9.5 -78.5q0 -76 -19 -139q-19 -64 -66 -120q-15 -17 -34.5 -33t-40 -29.5t-41 -20.5t-37.5 -7q-21 0 -31 11q-10 9 -13 24q-3 17 10 33t38 31q20 12 41.5 28.5t38 40.5t27.5 59 q11 36 11 82q-17 -10 -33 -12t-27 -2q-26 0 -47 10t-35.5 27t-22.5 39.5t-8 45.5zM473 1340q0 27 10 51.5t28.5 42t42.5 28t50 10.5q41 0 70.5 -15t50 -42.5t29 -64t8.5 -78.5q0 -76 -19 -139q-19 -64 -66 -120q-14 -17 -33 -33t-39.5 -29.5t-41 -20.5t-39.5 -7 q-20 0 -31 11q-8 9 -11 24q-3 17 10 33t37 31q20 12 42 28.5t38 40.5t27 59q11 36 12 82q-17 -10 -33 -12t-28 -2q-26 0 -47.5 10t-36 27t-22.5 39.5t-8 45.5z" />
<glyph unicode="&#x2022;" horiz-adv-x="735" d="M54 628q0 58 24 112t66.5 95t99.5 65t121 24t122.5 -24t101 -65t68 -95t25.5 -112q0 -63 -25.5 -117.5t-68 -95.5t-101 -65t-122.5 -24t-121 24t-99.5 65t-66.5 95.5t-24 117.5z" />
<glyph unicode="&#x2026;" horiz-adv-x="1391" d="M222 333q0 105 44 246.5t140 316.5q73 136 149.5 240.5t152 174.5t148.5 105t140 35q93 0 175 -44l38 -19q12 -8 13 -29.5t-7 -50.5t-24 -63q-16 -33 -39 -68t-46 -64.5t-43.5 -48.5t-36.5 -27.5t-23 -4.5l-48 26q-13 9 -24 11.5t-23 2.5q-35 0 -73 -22t-77.5 -61 t-77.5 -90.5t-68 -110.5q-44 -84 -64.5 -158.5t-20.5 -134.5q0 -41 15 -74q13 -33 42 -50l48 -24q9 -2 12.5 -20.5t-1 -46t-14.5 -63.5t-26 -75q-16 -40 -35 -73.5t-38 -55.5t-36.5 -33.5t-30.5 -5.5l-43 23q-93 50 -145.5 131.5t-52.5 204.5z" />
<glyph unicode="&#x202f;" horiz-adv-x="477" />
<glyph unicode="&#x2039;" horiz-adv-x="1322" d="M59.5 853.5q-1.5 22.5 10.5 47.5q23 38 52.5 52t70.5 5q3 -2 8 -3.5t17.5 -5.5t35.5 -12t62.5 -22t99.5 -35q60 -22 145 -51v368q0 24 7 44t19.5 35t31 23.5t42.5 8.5q27 0 45 -8.5t30.5 -24.5t19.5 -36q6 -18 6 -42v-371l327 117q37 15 74 15t69 -24q13 -11 20.5 -27 t9.5 -33.5t-2 -35t-15 -32.5q-27 -32 -74 -47l-364 -106l253 -330q15 -21 19 -43t0 -41.5t-16 -37t-31 -29.5q-20 -11 -41.5 -12.5t-41 4t-37.5 17.5t-30 29l-221 333l-223 -333q-13 -17 -31.5 -29.5t-39 -17.5t-41.5 -3q-21 1 -38 12q-21 13 -32.5 31.5t-14 39t2 41 t19.5 39.5l252 330q-96 27 -185 53.5t-180 52.5q-24 9 -44.5 22t-32.5 31.5t-13.5 41z" />
<glyph unicode="&#x205f;" horiz-adv-x="596" />
<glyph unicode="&#x20ac;" horiz-adv-x="1569" d="M39 615q0 19 14 33.5t35 14.5h116v29v32q0 50 3 97h-119q-22 0 -35.5 14.5t-13.5 35t14 33.5t35 13h134q23 125 77 232t137.5 183.5t197.5 119.5t254 43q99 0 189.5 -23.5t165 -70t128.5 -114.5t86 -157q6 -20 4.5 -39t-10.5 -36.5t-24 -31.5q-14 -13 -34 -19 q-21 -5 -41 -3.5t-37 10t-30 23t-19 35.5q-21 64 -56.5 110.5t-84.5 79t-109.5 47.5t-130.5 15q-100 0 -177 -31t-134 -86.5t-93.5 -128.5t-55.5 -158h454q20 0 35 -13t15 -33.5t-15 -35t-35 -14.5h-469q-3 -21 -3.5 -41.5t-0.5 -41t1.5 -39.5t1.5 -36h470q22 0 36 -15.5 t14 -33t-14 -33t-36 -15.5h-457q17 -90 53 -169t94.5 -136t137 -89t181.5 -32q84 0 152 26.5t118.5 73t82.5 111t47 140.5q3 20 14.5 36t27.5 27t35 14.5t40 0.5q20 -4 36 -15.5t26.5 -27t14.5 -35.5q4 -18 1 -38q-23 -117 -74 -207t-128 -151t-179.5 -92.5t-228.5 -31.5 q-146 0 -260.5 43.5t-197 123.5t-132.5 189q-49 111 -68 239h-127q-24 0 -36.5 15t-12.5 34z" />
<glyph unicode="&#x2122;" horiz-adv-x="1862" d="M188 1405q0 8 4 17.5t10.5 17.5t17.5 14t25 6h418q14 0 24.5 -6t17.5 -13t10 -17.5t3 -19t-3 -19t-10 -18.5t-17.5 -13t-24.5 -5h-137v-549q0 -26 -8 -42t-19 -25t-24.5 -12.5t-20.5 -3.5q-9 0 -21.5 3.5t-24 12.5t-20 25t-8.5 42v549h-135q-14 0 -25 5t-17.5 13 t-10.5 18.5t-4 19.5zM829 800v545q0 38 11 62t28 38t37.5 19t37.5 5q56 0 96.5 -28t58.5 -86l139 -412l138 413q19 57 60 85q40 28 95 28q18 0 38 -5t37 -19t28 -39t11 -61v-545q0 -26 -7.5 -42t-19 -25t-24.5 -12.5t-22 -3.5q-10 0 -23.5 3.5t-24 12.5t-18 25t-7.5 42v518 l-32 -92l-153 -438q-12 -35 -32 -53t-44 -18t-43 19q-20 17 -32 52l-155 438l-30 92v-518q0 -26 -8 -42t-20 -25t-24 -12q-14 -4 -23 -4q-10 0 -22.5 3.5t-24 12.5t-19 25t-7.5 42z" />
<glyph unicode="&#x25cc;" horiz-adv-x="1363" d="M317 590l117 55q-5 -26 -6.5 -55t6.5 -59zM415 333l49 115q16 -25 34.5 -45t41.5 -35zM437 847l119 -43q-32 -16 -54 -34q-20 -17 -35 -40zM622 835l60 117l54 -114q-29 6 -60 4.5t-54 -7.5zM628 333q26 -7 49 -7q24 1 56 10l-51 -114zM816 807l132 40l-52 -120 q-16 25 -37 44.5t-43 35.5zM819 365q25 15 44 34t33 40l34 -109zM933 534q9 25 9.5 52t-6.5 56l111 -55z" />
<glyph unicode="&#x25fc;" horiz-adv-x="1076" d="M0 0v1077h1077v-1077h-1077z" />
<glyph unicode="&#xf700;" horiz-adv-x="1141" d="M105.5 969q1.5 21 11.5 40q29 55 73 99.5t103 75.5t132 48q74 18 159 18q50 0 101 -7.5t100 -21.5q50 2 78 27q28 22 39 54q9 21 26 37.5t38 24.5t44.5 5.5t46.5 -19.5q18 -11 28 -28.5t13 -37.5t-2 -39q-7 -19 -19 -36q-20 -29 -52 -52.5t-79 -35.5q47 -49 73 -120.5 t25 -171.5q-2 -73 -21 -156t-49.5 -173.5t-70 -184t-80.5 -187.5q-14 -32 -31.5 -58t-41 -45t-52.5 -29.5t-64 -10.5t-64.5 10.5t-53.5 31t-42 46.5q-16 26 -27 58l-151 434h-97q-33 0 -54.5 22t-21.5 54q0 16 5.5 30t16 24t24 16.5t30.5 6.5h198q26 0 45 -14q16 -15 25 -38 l164 -489q19 43 41 96t43.5 109t43 113.5t37.5 113t25 106.5q11 51 11 95q3 136 -65.5 204.5t-207.5 68.5q-96 0 -159 -41q-64 -43 -93 -122q-9 -21 -23.5 -35.5t-35 -21.5t-43.5 -6.5t-44 10.5q-21 9 -34 25t-18 36t-3.5 41z" />
<glyph unicode="&#xf701;" d="M-1276 1508q0 16 6 30t16 25t24.5 17t30.5 6h644q16 0 30.5 -6t25.5 -17t17 -25t6 -30q0 -32 -23 -54q-24 -22 -56 -22h-644q-32 0 -54.5 21.5t-22.5 54.5z" />
<glyph unicode="&#xf702;" d="M-1276 1508q0 16 6 30t16 25t24.5 17t30.5 6h517v106q0 21 8 37.5t20.5 29.5t30.5 21q16 7 36 7q21 0 38.5 -7.5t30.5 -20.5t20 -30.5t7 -36.5v-184q0 -32 -22 -54q-24 -22 -56 -22h-630q-32 0 -54.5 21.5t-22.5 54.5z" />
<glyph unicode="&#xf703;" d="M-1276 1508q0 16 6 30t16 25t24.5 17t30.5 6h343q-2 11 -2 21.5v18.5q0 41 15 76t41.5 61.5t62 42t76.5 15.5t75.5 -15.5t60 -42t40 -61.5t14.5 -76q0 -40 -14.5 -75.5t-40 -61.5t-60.5 -41q-34 -16 -75 -16h-536q-32 0 -54.5 21.5t-22.5 54.5zM-742 1626q0 -32 22 -53 t57 -21q32 0 52.5 21t20.5 53q0 35 -21 57q-20 22 -52 22q-35 0 -57 -22t-22 -57z" />
<glyph unicode="&#xf704;" d="M-1276 1508q0 16 6 30t16 25t24.5 17t30.5 6h200v106q0 21 7.5 37.5t20.5 29.5t30 21q15 7 36 7q20 0 37.5 -7.5t30 -20.5t20 -30.5t7.5 -36.5v-106h131v106q0 21 7.5 37.5t20 29.5t30 20.5t37.5 7.5t36.5 -7.5t29.5 -20.5t20 -30.5t7 -36.5v-184q0 -32 -22 -54 q-24 -22 -56 -22h-630q-32 0 -54.5 21.5t-22.5 54.5z" />
<glyph unicode="&#xf705;" d="M-682 1510v230q0 22 8 39t20.5 30t30.5 20q16 6 36 6q21 0 38.5 -6.5t30.5 -19.5t20 -30.5t7 -38.5v-230q0 -22 -7 -39t-20 -30t-30.5 -19.5t-38.5 -6.5q-20 0 -37 6.5t-29.5 19.5t-20.5 30.5t-8 38.5z" />
<glyph unicode="&#xf706;" d="M-1127 1688q0 14 6 28t16 23.5t23 15.5t28 6h140q15 0 28 -6t23 -15.5t16 -23.5t6 -28v-108q114 0 185 36.5t98 103.5q6 17 17.5 29t28 19t32.5 8q17 -1 34.5 -6.5t29.5 -17.5t18.5 -26.5t6.5 -31.5q0 -18 -6 -35q-19 -47 -56.5 -88.5t-93 -72.5t-130.5 -48 q-76 -18 -170 -18h-87q-15 0 -28 5t-23.5 15.5t-16 23.5t-5.5 29v110h-47q-15 0 -28 5.5t-23 15t-16 23.5t-6 29z" />
<glyph unicode="&#xf707;" d="M-1171 1510q0 49 15.5 88.5t40 66.5t56 41t63.5 14q22 0 42 -6t37.5 -17.5t30.5 -26t22 -32.5q8 16 23 31.5t32.5 26.5t39 17.5t45.5 6.5q26 0 51 -10.5t45.5 -29.5t34 -45t19.5 -61q22 19 43 57t30 85q3 17 12.5 29.5t22.5 19.5t29 10q17 3 31 -3q16 -4 28 -13.5 t19 -23.5t9.5 -30.5t-0.5 -31.5q-11 -44 -32 -84t-48.5 -73t-63 -54.5t-70.5 -27.5h-74q-23 0 -41.5 14.5t-21.5 37.5q-3 15 -7 28t-9.5 23.5t-14 17t-21.5 6.5q-19 0 -31.5 -14t-12.5 -34q-3 -28 -20.5 -48t-45.5 -20q-26 0 -44 20q-16 20 -19 48q-1 20 -12 34t-33 14 q-17 0 -32.5 -20t-15.5 -56q0 -18 -7.5 -31.5t-20.5 -21.5t-28 -12q-17 -4 -32 -1q-32 6 -48 30q-16 23 -16 61z" />
<glyph unicode="&#xf708;" d="M-1028 1661q0 31 20.5 52t54.5 21h124v79q0 21 8 38.5t20.5 30.5t30 19.5t37.5 6.5q21 0 38.5 -6.5t29.5 -19.5t20 -30.5t8 -38.5v-79h125q16 0 29 -5.5t23 -16t16 -23.5t6 -29q0 -31 -20.5 -52t-53.5 -21h-125v-79q0 -20 -8 -38.5t-20 -31t-29.5 -19t-38.5 -6.5 q-20 0 -37.5 6.5t-30 19t-20.5 30t-8 39.5v79h-124q-16 0 -29.5 6t-23.5 15.5t-16 23.5q-6 15 -6 29z" />
<glyph unicode="&#xf709;" d="M-891 1492q-3 19 3 40q12 49 40.5 89t71.5 69.5t98.5 45.5t119.5 19q34 1 56.5 -17t25.5 -50q2 -18 -2.5 -32.5t-14 -24.5t-23 -17.5t-27.5 -7.5q-72 -3 -115 -34q-46 -30 -54 -87q-3 -19 -13.5 -32t-26.5 -22t-34 -12q-20 -3 -37 2q-19 3 -33 13t-23 24.5t-12 33.5z" />
<glyph unicode="&#xf70a;" d="M-311 1510v230q0 22 8 39t20.5 30t29.5 20q16 6 37 6q20 0 37.5 -6.5t31 -19.5t20.5 -30.5t7 -38.5v-230q0 -22 -7 -39t-20.5 -30t-31 -19.5t-37.5 -6.5q-21 0 -37.5 6.5t-29 19.5t-20.5 30.5t-8 38.5z" />
<glyph unicode="&#xf70b;" d="M-793 1691q0 14 6 28t16 23.5t23 15.5q15 6 30 6h138q15 0 29 -6t24 -15.5t16 -23.5t6 -28v-108q114 0 183 36.5t97 103.5q6 17 19 29t27.5 19t32.5 8q18 -1 35.5 -6.5t29 -17.5t18 -26.5t7.5 -32t-5 -35.5q-19 -46 -56.5 -87.5t-94.5 -72.5t-131.5 -48.5t-167.5 -17.5 h-88q-14 0 -28 5t-24 15.5t-16 23.5t-6 29v110h-45q-15 0 -29 5.5t-24 15t-16 23.5t-6 29z" />
<glyph unicode="&#xf70c;" d="M-987 1518q0 56 17.5 99t46 72t64.5 44.5t71 15.5q24 0 48.5 -6.5t43.5 -19t35 -28.5t24 -36q9 17 26 34.5t37.5 29t44.5 19t53 7.5q31 0 58.5 -11t50 -32t39 -50.5t23.5 -67.5q12 11 25 27t24 36.5t19.5 43.5t14.5 50q3 19 14.5 32.5t26.5 21.5t32.5 10.5t34.5 -2.5 q18 -5 32.5 -15.5t22.5 -25.5t11 -33q3 -19 -2 -36q-11 -47 -34.5 -91.5t-56.5 -80.5t-71.5 -60.5t-79.5 -30.5h-86q-26 0 -46.5 16t-26.5 42q-3 15 -6.5 29.5t-11 26t-16 19t-25.5 7.5q-23 0 -36 -15q-13 -14 -15 -38q-3 -30 -22 -53t-51 -23q-14 0 -27.5 6t-23.5 16.5 t-16 23.5q-6 16 -6 30q-1 24 -13.5 38.5t-37.5 14.5q-20 0 -37.5 -22t-17.5 -63q0 -19 -9.5 -33.5t-23.5 -24t-32 -13t-36 -0.5q-36 6 -54.5 33t-18.5 67z" />
<glyph unicode="&#xf70d;" d="M-510 1659q0 30 21 51q22 22 54 22h124v78q0 21 8 38.5t20.5 30.5t29.5 20q16 8 37 8q20 0 37.5 -7.5t31 -20.5t20.5 -30.5t7 -38.5v-78h126q16 0 29 -6t22.5 -16.5t15.5 -23.5t6 -27q0 -31 -20.5 -52t-52.5 -21h-126v-79q0 -21 -7 -39t-20.5 -30.5t-31 -20t-37.5 -7.5 q-21 0 -37.5 7.5t-29 20t-20.5 29.5q-8 19 -8 40v79h-124q-16 0 -30 5.5t-24 15t-15.5 23.5t-5.5 29z" />
<glyph unicode="&#xf70e;" d="M-461 1492q-3 19 3 40q11 49 40.5 89t72.5 69.5t97.5 45.5t119.5 19q33 1 55.5 -17t27.5 -50q1 -18 -3.5 -32.5t-14 -24.5t-22.5 -18q-14 -7 -29 -7q-71 -3 -114.5 -33.5t-53.5 -87.5q-3 -19 -14 -32t-26 -22t-33.5 -12t-37.5 2q-19 3 -33.5 13t-23 24.5t-11.5 33.5z" />
<glyph unicode="&#xf70f;" horiz-adv-x="1898" d="M53 899.5q0 14.5 8 36.5q24 61 66 119t103.5 101.5t144.5 70t191 26.5q100 0 177.5 -20t135 -54t97.5 -82.5t64 -105.5t35 -120.5t11 -128.5v-342q0 -64 20.5 -113.5t55.5 -83.5t80.5 -51.5t94.5 -17.5t92 16t76.5 48.5t53.5 82.5q21 49 21 119v742q0 23 7 41.5t21 30.5 t32.5 19.5t38.5 7.5t38.5 -7.5t32.5 -20.5t21 -30.5t7 -40.5v-762q0 -106 -36.5 -183t-98.5 -127.5t-141.5 -74.5t-164.5 -24q-89 0 -170.5 26t-144.5 77.5t-100 128t-37 177.5v385q0 57 -16 113t-52.5 101.5t-98 73t-150.5 30.5q-76 0 -133.5 -19t-98 -49.5t-62 -68.5 t-26.5 -76q21 -12 38.5 -33t28.5 -48t17 -60q7 -34 7 -69v-508h76q16 0 29.5 -6t24 -16t16.5 -24t6 -30t-6 -30t-16.5 -24t-24 -16t-29.5 -6h-197q-17 0 -30.5 6t-24.5 16t-17 24t-6 30v587q0 39 -8 79.5t-33 75.5q-14 19 -24.5 31t-16 24t-5.5 26.5z" />
<glyph unicode="&#xf710;" d="M-864 1527v91q0 20 7 37.5t20.5 30.5t31 20.5t37.5 7.5t37 -7.5t29.5 -20.5t20.5 -30.5t8 -37.5v-30h728q17 0 31.5 -6.5t25.5 -17.5t16.5 -24.5t5.5 -29.5t-5.5 -30t-16.5 -24.5t-25 -17t-32 -6.5h-823q-20 0 -37.5 8t-31 20.5t-20.5 30.5q-7 16 -7 36z" />
<glyph unicode="&#xf711;" d="M-888 1624q0 42 16 80t44 65.5t66 44.5t80 17q41 0 79 -17t66.5 -44.5t44.5 -65.5t16 -80q0 -44 -16 -80.5t-44.5 -65t-65.5 -44.5t-80 -16q-44 0 -81 16t-65 44.5t-44 65t-16 80.5zM-765 1624q0 -18 6.5 -32.5t17.5 -26.5t27 -19t32 -7q18 0 33 7t26 19t17.5 26.5 t6.5 32.5q0 17 -6.5 31.5t-17.5 26.5t-27 19t-32 7q-17 0 -32.5 -7t-26.5 -19t-17.5 -26.5t-6.5 -31.5z" />
<glyph unicode="&#xf712;" d="M-1209 1683q0 70 26.5 118.5t68.5 78.5t97.5 43.5t115.5 13.5h517q32 0 51 -20t19 -50q0 -29 -19.5 -49.5t-50.5 -20.5h-496q-50 0 -80 -11.5t-44.5 -28.5t-18 -37.5t-3.5 -36.5q0 -11 2.5 -26t12 -28.5t27 -22.5t47.5 -9q38 0 60 20q21 21 30 53q6 24 24 40q17 16 43 16 q27 0 46 -16t24 -41q8 -32 29 -52t59 -20q73 0 76 62q3 32 26.5 50t58.5 15t52.5 -27t15.5 -62q-1 -49 -18.5 -84.5t-46 -58.5t-64.5 -34t-74 -11t-69 12.5t-54 33t-37.5 43.5t-18.5 47q-3 -24 -20 -47t-43 -43.5t-59.5 -33t-69.5 -12.5q-67 0 -113.5 23.5t-76 59t-41 76.5 t-11.5 77z" />
<glyph unicode="&#xf713;" d="M-682 1991v161q0 20 8 38.5t20.5 31t30.5 19.5q16 7 36 7q21 0 38.5 -7t30.5 -19.5t20 -30.5q7 -19 7 -39v-161q0 -20 -7 -37.5t-20 -30.5t-30.5 -20.5t-38.5 -7.5q-20 0 -37 7.5t-29.5 20.5t-20.5 30.5t-8 37.5z" />
<glyph unicode="&#xf714;" d="M-1013 2170q0 14 5.5 27t16 23.5t23.5 16.5t28 6h140q15 0 28 -6t23 -16.5t16 -23.5t6 -27v-110q114 0 184 36.5t98 103.5q6 18 18 30.5t27.5 19.5t32.5 7t34.5 -6t29 -17.5t19 -27t7.5 -32t-6 -34.5q-19 -46 -56.5 -88.5t-93.5 -73t-131 -48t-169 -17.5h-88 q-14 0 -27 5.5t-23.5 16t-16.5 23.5t-6 28v111h-46q-15 0 -28 5t-23.5 14.5t-15.5 23.5q-6 15 -6 30z" />
<glyph unicode="&#xf715;" d="M-1037 1987q0 51 17 90.5t42.5 66t57.5 41t66 14.5q45 0 81.5 -22.5t55.5 -59.5q18 34 56.5 58t88.5 24q27 0 53 -10.5t46 -29.5t35 -46t20 -62q12 9 23.5 24.5t22 34.5t18.5 40t12 44q3 18 13.5 30.5t23.5 19.5t29 9.5t34 -2.5q16 -4 28.5 -13.5t19.5 -24t9 -30.5 q1 -16 -2 -31q-10 -44 -31 -85t-50.5 -73t-64.5 -54t-73 -30h-77q-24 0 -43 15q-17 15 -23 39q-3 14 -7.5 27.5t-10 24t-16 16.5t-21.5 6q-19 0 -30 -11.5t-14 -40.5q0 -15 -6 -26.5t-14.5 -21t-20.5 -15t-26 -5.5q-15 0 -26.5 5.5t-20.5 15t-15 21t-6 26.5q0 8 -2.5 18.5 t-8.5 17.5t-15 11.5t-20 4.5q-24 0 -36 -19t-12 -57q0 -17 -8.5 -30.5t-21.5 -22t-29 -11.5t-33 -1q-33 5 -50.5 29.5t-17.5 60.5z" />
<glyph unicode="&#xf716;" d="M-880 2140q0 31 20 52q22 21 54 21h124v79q0 21 8 38.5t20.5 30.5t30.5 20q16 6 36 6q21 0 38.5 -6.5t30.5 -19.5t20 -30.5t7 -38.5v-79h126q16 0 29 -5.5t22.5 -16t15.5 -23.5t6 -29q0 -31 -20.5 -52t-52.5 -21h-126v-79q0 -20 -7 -38.5t-20 -31t-30.5 -19t-38.5 -6.5 q-20 0 -37 6.5t-29.5 19t-20.5 30t-8 39.5v79h-124q-16 0 -30 6t-24 15.5t-15 22.5q-5 16 -5 30z" />
<glyph unicode="&#xf717;" d="M-639.5 1851q-2.5 19 2.5 40q12 49 41.5 89.5t72.5 69.5t97.5 45t118.5 19q34 2 56.5 -16.5t27.5 -50.5q1 -18 -3.5 -32.5t-14 -24.5t-22.5 -18q-14 -7 -29 -7q-72 -3 -115 -33.5t-53 -87.5q-3 -19 -14 -32t-26 -22t-33.5 -12t-37.5 2q-19 3 -33.5 13t-23.5 24.5 t-11.5 33.5z" />
<glyph unicode="&#xf718;" d="M-438 -572q0 14 6 27.5t16 23.5t23 16t29 6h171q15 0 28 -6t23.5 -16t16 -23.5t5.5 -27.5v-285q0 -20 -7 -37.5t-20.5 -30t-29.5 -20.5q-16 -7 -36 -7q-21 0 -38.5 7.5t-29.5 20t-19.5 29t-7.5 38.5v212h-56q-14 0 -28 5.5t-24 16t-16 23.5t-6 28z" />
<glyph unicode="&#xf719;" d="M-873 -572q0 14 6 27.5t16 23.5t23 16t28 6h172q15 0 29 -6t24 -16t16 -23.5t6 -27.5v-73q0 -70 30 -105t92 -35q123 0 123 140v67q0 20 7.5 36t19.5 29.5t29.5 20.5t38.5 7q20 0 36 -7t29.5 -20.5t20.5 -29.5t7 -36v-67q0 -59 -16 -113t-52.5 -93.5t-96.5 -62 t-146 -22.5q-84 0 -144 21t-97.5 59t-54.5 92q-18 54 -18 119h-55q-15 0 -28 5.5t-23 16t-16 23.5t-6 28z" />
<glyph unicode="&#xf71a;" d="M-368 -625q0 31 11.5 57t31.5 46t47 30t56 10t55.5 -10t46 -30t31.5 -46t12 -57t-12 -57t-31.5 -46t-46 -30t-55.5 -10q-31 0 -57 10t-46 30t-31.5 46t-11.5 57z" />
<glyph unicode="&#xf71d;" horiz-adv-x="1566" d="M72.5 1154q3.5 21 13 38t25.5 29q17 13 38 17q20 4 40.5 2t38 -12t31 -27.5t18.5 -44.5l155 -925l210 683q8 23 20.5 43.5t30.5 35t39 23.5t48 9q24 0 46 -9t40.5 -23.5t31.5 -35t19 -43.5l201 -683l123 579q13 60 17.5 109.5t-3.5 87t-30 61.5t-63 31q-28 6 -47.5 23 t-19.5 43q0 28 19 46t48 21q76 10 125.5 41.5t76.5 90.5q11 26 30 44t42.5 25t48.5 2.5t45 -25.5q18 -14 26.5 -32.5t10 -39t-4.5 -40t-20 -37.5q-41 -45 -95 -69t-113 -33q38 -11 67.5 -36t45.5 -64.5t17.5 -92t-16.5 -116.5l-192 -759q-12 -50 -48 -78t-82.5 -28t-81 28 t-48.5 78l-216 715l-225 -715q-15 -49 -48.5 -77.5t-80 -28.5t-83 28t-47.5 78l-223 1022q-4 20 -0.5 41z" />
<glyph unicode="&#xf881;" horiz-adv-x="1862" d="M52 900q1 14 9 36q24 61 64.5 119t103.5 101.5t149 70t203 26.5q143 0 243 -38t163 -102q29 35 67 60.5t82 42t92 25.5t98 9q90 0 166 -25t131.5 -74.5t87.5 -125.5t32 -178v-1161q0 -23 -7 -41.5t-21 -31t-32.5 -19t-38.5 -6.5t-38.5 6.5t-32.5 19t-21 31t-7 41.5v1118 q0 146 -57 213q-54 66 -162 66q-98 0 -157 -53t-65 -157q3 -33 6 -65.5t3 -65.5v-1056q0 -23 -7.5 -41.5t-21.5 -31t-32 -19t-39 -6.5q-20 0 -38.5 6.5t-32 19t-21 31t-7.5 41.5v1079q0 57 -16 113t-54 101.5t-102.5 73t-160.5 30.5q-90 0 -152.5 -20.5t-101 -51.5 t-57.5 -69t-22 -72q21 -12 38.5 -33t29 -48t17.5 -60q6 -34 6 -69v-508h76q16 0 29.5 -6t24 -16t16.5 -24t6 -30t-6 -30t-16.5 -24t-24 -16t-29.5 -6h-197q-17 0 -30.5 6t-24.5 16t-17 24t-6 30v587q0 39 -8 79.5t-33 75.5q-14 20 -26 33t-17 24t-4 25z" />
<glyph unicode="&#xf882;" horiz-adv-x="1934" d="M50 76q0 16 5.5 30t16 24t25 16t29.5 6h65v511q0 39 -8 79.5t-34 75.5q-15 20 -26 33t-16 24t-5 25t9 36q23 61 67 119t108 101.5t153.5 70t202.5 26.5q73 0 136 -10.5t114 -29.5t92 -45t74 -58q31 35 69 61t82 43.5t90.5 26.5t96.5 9q90 0 167 -25t133 -74.5 t87.5 -125.5t31.5 -178v-1161q0 -23 -8 -41.5t-21.5 -31t-31.5 -19t-38 -6.5q-21 0 -39 6.5t-31.5 19t-21.5 31t-8 41.5v1118q0 146 -56 212.5t-164 66.5q-97 0 -155 -54t-66 -156q6 -32 9 -65t3 -66v-1056q0 -23 -8 -41.5t-21 -31t-32 -19t-40 -6.5q-20 0 -37.5 6.5 t-31.5 19t-22 31t-8 41.5v1079q0 70 -25.5 128.5t-71.5 100t-109 64t-139 25.5q-57 0 -103.5 -10t-83.5 -27.5t-65.5 -41t-47.5 -47t-30 -46.5t-13 -41q21 -12 37.5 -33t28.5 -48t18 -60q5 -34 5 -69v-584q0 -16 -5.5 -30t-16 -24t-25 -16t-29.5 -6h-186q-16 0 -30 6 t-24.5 16t-16 24t-5.5 30z" />
<glyph d="M-894 1527q3 37 19.5 69.5t42.5 58t63 44.5q36 21 81 30q6 38 26 70t50.5 58t71.5 41t93 18q35 1 58.5 -16t27.5 -49q3 -17 -1 -31.5t-13 -26.5t-21.5 -19t-28.5 -9q-35 -3 -56 -11.5t-33 -25.5t-14.5 -42t-2.5 -57q0 -14 -9.5 -23t-33.5 -9q-35 0 -60.5 -7t-42.5 -20.5 t-26 -34t-12 -46.5q-3 -19 -13.5 -33.5t-25 -24t-32.5 -12.5q-20 -3 -37 0q-41 9 -58 37.5t-13 70.5z" />
<glyph horiz-adv-x="985" d="M-888 1624q0 42 16 80t44 65.5t66 44.5t80 17q41 0 79 -17t66.5 -44.5t44.5 -65.5t16 -80q0 -44 -16 -80.5t-44.5 -65t-65.5 -44.5t-80 -16q-44 0 -81 16t-65 44.5t-44 65t-16 80.5zM-765 1624q0 -18 6.5 -32.5t17.5 -26.5t27 -19t32 -7q18 0 33 7t26 19t17.5 26.5 t6.5 32.5q0 17 -6.5 31.5t-17.5 26.5t-27 19t-32 7q-17 0 -32.5 -7t-26.5 -19t-17.5 -26.5t-6.5 -31.5zM30 946q-1 21 5 41q20 66 62 114.5t96.5 81.5t120.5 50t133 17q90 0 167 -25t133 -74.5t88 -125.5t32 -178v-762q0 -24 -8.5 -42t-22 -30.5t-31.5 -20t-39 -7.5 q-20 0 -38 7.5t-31.5 19t-22 30.5t-8.5 43v719q0 146 -55.5 212.5t-163.5 66.5q-82 0 -136 -38t-74 -114q-6 -20 -19.5 -36t-31 -26.5t-38 -13t-40.5 2.5q-20 6 -37.5 19.5t-28 31t-12.5 37.5z" />
<glyph horiz-adv-x="985" d="M-888 1624q0 42 16 80t44 65.5t66 44.5t80 17q41 0 79 -17t66.5 -44.5t44.5 -65.5t16 -80q0 -44 -16 -80.5t-44.5 -65t-65.5 -44.5t-80 -16q-44 0 -81 16t-65 44.5t-44 65t-16 80.5zM-765 1624q0 -18 6.5 -32.5t17.5 -26.5t27 -19t32 -7q18 0 33 7t26 19t17.5 26.5 t6.5 32.5q0 17 -6.5 31.5t-17.5 26.5t-27 19t-32 7q-17 0 -32.5 -7t-26.5 -19t-17.5 -26.5t-6.5 -31.5zM30 946q-1 21 5 41q20 66 62 114.5t96.5 81.5t120.5 50t133 17q90 0 167 -25t133 -74.5t88 -125.5t32 -178v-762q0 -24 -8.5 -42t-22 -30.5t-31.5 -20t-39 -7.5 q-20 0 -38 7.5t-31.5 19t-22 30.5t-8.5 43v719q0 146 -55.5 212.5t-163.5 66.5q-82 0 -136 -38t-74 -114q-6 -20 -19.5 -36t-31 -26.5t-38 -13t-40.5 2.5q-20 6 -37.5 19.5t-28 31t-12.5 37.5z" />
<glyph d="M-952 1508q0 16 6 30t17 25t24.5 17t31.5 6h689q16 0 30.5 -6t25.5 -17t17 -25t6 -30q0 -32 -23 -54q-24 -22 -56 -22h-689q-32 0 -55.5 21.5t-23.5 54.5z" />
<glyph d="M-952 1508q0 16 6 30t17 25t24.5 17t31.5 6h562v106q0 21 8 37.5t20.5 29.5t29.5 21q16 7 37 7q20 0 37.5 -7.5t31 -20.5t20.5 -30.5t7 -36.5v-184q0 -32 -22 -54q-24 -22 -57 -22h-674q-32 0 -55.5 21.5t-23.5 54.5z" />
<glyph d="M-952 1508q0 16 6 30t17 25t24.5 17t31.5 6h397q-3 11 -3 21.5v18.5q0 41 15.5 76t41.5 61.5t62 42t77 15.5t76 -15.5t61 -42t40.5 -61.5t14.5 -76q0 -40 -14.5 -75.5t-40.5 -61.5t-62 -41q-34 -16 -75 -16h-590q-32 0 -55.5 21.5t-23.5 54.5zM-362 1626q0 -14 6 -28.5 t17.5 -24t25.5 -15.5q15 -6 30 -6q14 0 29 6t25 15.5t16 24t6 28.5q0 18 -6 32t-16 25t-25 16.5t-29 5.5q-15 0 -29.5 -5.5t-26 -16.5t-17.5 -25t-6 -32z" />
<glyph d="M-952 1508q0 16 6 30t17 25t24.5 17t31.5 6h245v106q0 21 7.5 37.5t20.5 29.5t30 21q15 7 36 7q20 0 37.5 -7.5t30 -20.5t20 -30.5t7.5 -36.5v-106h131v106q0 21 7.5 37.5t19.5 29.5t29.5 20.5t38.5 7.5q20 0 36 -7.5t29.5 -20.5t20.5 -30.5t7 -36.5v-184q0 -32 -22 -54 q-24 -22 -57 -22h-674q-32 0 -55.5 21.5t-23.5 54.5z" />
<glyph d="M-1518 1508q0 16 5.5 30t16.5 25t25 17t31 6h947q16 0 29.5 -6t24.5 -17t17.5 -25t6.5 -30q0 -32 -23 -54t-55 -22h-947q-32 0 -55 21.5t-23 54.5z" />
<glyph d="M-1518 1508q0 16 5.5 30t16.5 25t25 17t31 6h818v106q0 21 8 37.5t20.5 29.5t30 20.5t37.5 7.5q21 0 38.5 -7.5t30 -20.5t20.5 -30.5t8 -36.5v-184q0 -32 -23.5 -54t-55.5 -22h-932q-32 0 -55 21.5t-23 54.5z" />
<glyph d="M-1518 1508q0 16 5.5 30t16.5 25t25 17t31 6h675q-3 11 -3 21.5v18.5q0 41 14.5 76t41 61.5t62 42t76.5 15.5t75.5 -15.5t60.5 -42t40.5 -61.5t14.5 -76q0 -40 -14.5 -75.5t-40.5 -61.5t-61 -41.5t-75 -15.5h-866q-32 0 -55 21.5t-23 54.5zM-651 1626q0 -32 22 -53 t55 -21q32 0 53.5 21t21.5 53q0 35 -22 57t-53 22q-35 0 -56 -22t-21 -57z" />
<glyph d="M-1518 1508q0 16 5.5 30t16.5 25t25 17t31 6h501v106q0 21 7.5 37.5t20 29.5t30 20.5t37.5 7.5q21 0 37 -7.5t29 -20.5t20.5 -30.5t7.5 -36.5v-106h131v106q0 21 7.5 37.5t20.5 29.5t30 21q15 7 35 7q21 0 38.5 -7.5t30 -20.5t19.5 -30.5t7 -36.5v-184q0 -32 -22.5 -54 t-54.5 -22h-932q-32 0 -55 21.5t-23 54.5z" />
<glyph d="M-622 1991v161q0 20 7.5 38.5t20.5 31t30.5 19.5t37.5 7q21 0 37.5 -7t29 -19.5t20.5 -30.5q8 -19 8 -39v-161q0 -20 -8 -37.5t-20.5 -30.5t-29.5 -21q-16 -7 -37 -7q-20 0 -37.5 7.5t-30.5 20.5t-20.5 30.5t-7.5 37.5z" />
<glyph d="M-923 2170q0 14 6 27t16 23.5t23.5 16.5t27.5 6h140q15 0 28 -6t23.5 -16.5t16 -23.5t5.5 -27v-110q114 0 184 36.5t98 103.5q6 18 18.5 30.5t28 19.5t32 7t34 -6t29.5 -17.5t19 -27t7 -32t-6 -34.5q-19 -46 -56 -88.5t-93.5 -73t-131.5 -48t-168 -17.5h-88 q-15 0 -28 5.5t-23 16t-16 23.5t-6 28v111h-47q-14 0 -27.5 5t-23.5 14.5t-16 23.5q-6 15 -6 30z" />
<glyph d="M-1037 1987q0 51 16.5 90.5t42.5 66t58 41t64 14.5q46 0 83 -22.5t55 -59.5q17 34 56 58t88 24q28 0 53.5 -10.5t46.5 -29.5t36 -46t20 -62q12 9 23 24.5t21 34.5t19 40t13 44q3 18 13.5 30.5t23.5 19.5t29 9.5t32 -2.5q16 -4 28.5 -13.5t20.5 -24t9.5 -30.5t-1.5 -31 q-10 -44 -31 -85t-51 -73t-65 -54q-34 -22 -72 -30h-79q-23 0 -42 15t-23 39q-3 14 -7 27.5t-10.5 24t-16 16.5t-22.5 6q-19 0 -30 -11.5t-12 -40.5q0 -15 -6 -26.5t-14.5 -21t-21.5 -14.5q-11 -6 -25 -6q-15 0 -26.5 5.5t-21 15t-15 21t-6.5 26.5q0 8 -3 18.5t-8 17.5 t-14 11.5t-20 4.5q-24 0 -37 -19t-13 -57q0 -17 -7.5 -30.5t-20.5 -22t-29.5 -11.5t-32.5 -1q-33 5 -50.5 29.5t-17.5 60.5z" />
<glyph d="M-821 2140q0 31 20.5 52t52.5 21h126v79q0 21 7.5 38.5t20.5 30.5t30.5 19.5t37.5 6.5q21 0 37.5 -6.5t29 -19.5t20.5 -30.5t8 -38.5v-79h124q16 0 30 -5.5t24.5 -16t15.5 -23.5t5 -29q0 -31 -21 -52t-54 -21h-124v-79q0 -20 -8 -38.5t-20.5 -31t-29.5 -18.5 q-16 -7 -37 -7q-20 0 -37.5 6.5t-30.5 19t-20.5 30t-7.5 39.5v79h-126q-16 0 -29 6t-22.5 15.5t-15.5 22.5q-6 16 -6 30z" />
<glyph d="M-1498 1508q0 16 6 30t17 25t24.5 17t31.5 6h1235q16 0 30.5 -6t25.5 -17t17 -25t6 -30q0 -32 -23 -54q-24 -22 -56 -22h-1235q-32 0 -55.5 21.5t-23.5 54.5z" />
<glyph d="M-1498 1508q0 16 6 30t17 25t24.5 17t31.5 6h1108v106q0 21 8 37.5t20.5 29.5t29.5 21q16 7 37 7q20 0 37.5 -7.5t31 -20.5t20.5 -30.5t7 -36.5v-184q0 -32 -22 -54q-24 -22 -57 -22h-1220q-32 0 -55.5 21.5t-23.5 54.5z" />
<glyph d="M-1498 1508q0 16 6 30t17 25t24.5 17t31.5 6h943q-3 11 -3 21.5v18.5q0 41 15.5 76t41.5 61.5t62 42t77 15.5t76 -15.5t61 -42t40.5 -61.5t14.5 -76q0 -40 -14.5 -75.5t-40.5 -61.5t-62 -41q-34 -16 -75 -16h-1136q-32 0 -55.5 21.5t-23.5 54.5zM-362 1626q0 -14 6 -28.5 t17.5 -24t25.5 -15.5q15 -6 30 -6q14 0 29 6t25 15.5t16 24t6 28.5q0 18 -6 32t-16 25t-25 16.5t-29 5.5q-15 0 -29.5 -5.5t-26 -16.5t-17.5 -25t-6 -32z" />
<glyph d="M-1498 1508q0 16 6 30t17 25t24.5 17t31.5 6h791v106q0 21 7.5 37.5t20.5 29.5t30 21q15 7 36 7q20 0 37.5 -7.5t30 -20.5t20 -30.5t7.5 -36.5v-106h131v106q0 21 7.5 37.5t19.5 29.5t29.5 20.5t38.5 7.5q20 0 36 -7.5t29.5 -20.5t20.5 -30.5t7 -36.5v-184q0 -32 -22 -54 q-24 -22 -57 -22h-1220q-32 0 -55.5 21.5t-23.5 54.5z" />
<glyph d="M-311 1872v162q0 20 8 38.5t20.5 31t29.5 18.5q16 7 37 7q20 0 37.5 -6.5t31 -19t20.5 -30t7 -39.5v-162q0 -21 -7 -38.5t-20.5 -30.5t-31 -19.5t-37.5 -6.5q-21 0 -37.5 6.5t-29 19.5t-20.5 30.5t-8 38.5z" />
<glyph d="M-660 2050q0 14 6 28t16 23.5t23 15.5t28 6h140q15 0 28 -6t23.5 -15.5t16 -23.5t5.5 -28v-108q114 0 184 36.5t98 103.5q6 17 18.5 29t27.5 19t32 8q17 -1 34.5 -6.5t29 -17.5t19 -26.5t7.5 -32t-6 -34.5q-19 -47 -56 -88.5t-93.5 -72.5t-131.5 -48.5t-169 -17.5h-87 q-15 0 -28 5.5t-23.5 15.5t-16 23t-5.5 29v110h-47q-15 0 -28 6t-23 15.5t-16 23t-6 28.5z" />
<glyph d="M-780 1869q0 51 16 89.5t42.5 65.5t58.5 41t64 14q46 0 83 -22t55 -60q17 34 56 58t88 24q28 0 53.5 -10t46.5 -29t36 -45.5t20 -61.5q12 9 23 23.5t21 33.5t19 41t13 45q3 18 13.5 29.5t23.5 19.5t29 10t32 -3t28.5 -14.5t20.5 -23.5t9.5 -30t-1.5 -32 q-10 -43 -31 -83.5t-51 -73t-65 -54.5q-34 -22 -72 -30h-79q-23 0 -42 15.5t-23 38.5q-3 15 -7 28t-10.5 23.5t-16 17t-22.5 6.5q-19 0 -30 -12.5t-12 -41.5q0 -15 -6 -26.5t-14.5 -20.5t-21.5 -14q-11 -6 -25 -6q-15 0 -26.5 5.5t-21 14.5t-14.5 21q-6 11 -7 26q0 9 -3 19 t-8 17.5t-14 12.5t-20 5q-24 0 -37 -20t-13 -56q0 -18 -7.5 -31.5t-20.5 -22.5t-29.5 -12t-32.5 0q-33 6 -50 30q-18 26 -18 61z" />
<glyph d="M-510 2021q0 30 21 51q22 22 54 22h124v78q0 21 8 38.5t20.5 30.5t29.5 20q16 6 37 6q20 0 37.5 -6.5t31 -19.5t20.5 -30.5t7 -38.5v-78h126q16 0 29 -6t22.5 -16t15.5 -23.5t6 -29.5q0 -30 -20.5 -51.5t-52.5 -21.5h-126v-79q0 -20 -7 -38.5t-20.5 -30.5t-31 -19 t-37.5 -7q-21 0 -37.5 7t-29 19t-20.5 29.5t-8 39.5v79h-124q-16 0 -30 6t-24 15.5t-15 23.5q-6 15 -6 30z" />
<glyph d="M-682 1872v162q0 20 8 38.5t20.5 31t30.5 18.5q16 7 36 7q21 0 38.5 -6.5t30.5 -19t20 -30t7 -39.5v-162q0 -21 -7 -38.5t-20 -30.5t-30.5 -19.5t-38.5 -6.5q-20 0 -37 6.5t-29.5 19.5t-20.5 30.5t-8 38.5z" />
<glyph d="M-984 2047q0 15 6 28.5t16 23t23 15.5t29 6h139q15 0 28.5 -6t24 -15.5t16.5 -23t6 -28.5v-108q113 0 183.5 36.5t97.5 103.5q6 18 18.5 29.5t28 19t32.5 7.5q18 0 35.5 -6t29 -18t17.5 -26.5t7.5 -32t-6.5 -34.5q-19 -47 -56 -88.5t-93 -72.5t-130.5 -48.5t-169.5 -17.5 h-88q-14 0 -28 5.5t-24.5 15.5t-16 23t-5.5 29v110h-46q-14 0 -28 6t-24 15.5t-16 23t-6 28.5z" />
<glyph d="M-1096 1869q0 51 16.5 89.5t41.5 65.5t58 41q34 14 66 14q45 0 82 -22q38 -22 55 -60q18 34 56 58t87 24q28 0 53.5 -10t46 -29t35 -45.5t20.5 -61.5q12 9 23.5 23.5t22 33.5t18.5 41t12 45q3 18 13 29.5t24 19.5t30 10t32 -3t28.5 -14.5t20 -23.5t10.5 -30t-2 -32 q-10 -43 -32 -83.5t-51 -73t-64 -54.5t-73 -30h-76q-23 0 -42 15.5t-25 38.5q-3 15 -7.5 28t-10.5 23.5t-15.5 17t-22.5 6.5q-19 0 -30 -12.5t-12 -41.5q0 -15 -6 -26.5t-15.5 -20.5t-21 -14.5t-26.5 -5.5q-14 0 -26 5.5t-20.5 14.5t-14.5 21q-6 11 -6 26q0 9 -3 19 t-8.5 17.5t-13.5 12.5t-20 5q-23 0 -35.5 -20t-12.5 -56q0 -18 -9 -31.5t-22 -22.5t-29 -12t-32 0q-32 6 -50 30q-17 26 -17 61z" />
<glyph d="M-880 2021q0 30 20 51q22 22 54 22h124v78q0 21 8 38.5t20.5 30.5t30.5 20q16 6 36 6q21 0 38.5 -6.5t30.5 -19.5t20 -30.5t7 -38.5v-78h126q16 0 29 -6t22.5 -16t15.5 -23.5t6 -29.5q0 -30 -20.5 -51.5t-52.5 -21.5h-126v-79q0 -20 -7 -38.5t-20 -30.5t-30.5 -19 t-38.5 -7q-20 0 -37 7t-29.5 19t-20.5 29.5t-8 39.5v79h-124q-16 0 -30 6t-24 15.5t-15 23.5q-5 15 -5 30z" />
<glyph d="M-637 -234q0 15 6 28t16.5 23.5t23.5 16t27 5.5h170q14 0 28 -5.5t24.5 -16t16 -23.5t5.5 -28v-286q0 -20 -7 -37.5t-19.5 -29.5t-30 -19t-38.5 -7q-20 0 -36 7t-29 19t-20.5 29.5t-7.5 37.5v212h-56q-14 0 -27 6t-23.5 16t-16.5 23q-6 15 -6 29z" />
<glyph d="M-915 -234q0 15 5.5 28t16 23.5t23.5 16.5q14 5 29 5h172q15 0 28 -5.5t23.5 -16t16 -23.5t5.5 -28v-74q0 -70 30 -105q29 -35 93 -35q123 0 123 140v67q0 21 7 37.5t20 29.5t31 20.5t36 7.5q21 0 38 -7.5t30 -20.5t20 -30.5t7 -36.5v-67q0 -58 -16 -111.5t-53 -93 t-96 -63t-147 -23.5q-85 0 -144.5 21.5t-97 60t-54 91t-16.5 118.5h-56q-15 0 -28.5 6t-24 16t-16.5 23q-5 15 -5 29z" />
<glyph d="M-613 -254q0 29 11.5 56t31.5 47t47 31.5t56 11.5t55.5 -11.5t46.5 -31.5t31 -47t11 -56t-11 -55.5t-31 -46t-46.5 -30.5t-55.5 -11q-31 0 -57 11t-46 30.5t-31.5 46t-11.5 55.5z" />
<glyph d="M-616 -234q0 15 6 28t16 23.5t23 16t28 5.5h169q15 0 29 -5.5t24 -16t16 -23.5t6 -28v-286q0 -20 -7.5 -37.5t-20 -29.5t-30 -19t-37.5 -7q-21 0 -37 7t-29 19t-20.5 29.5t-7.5 37.5v212h-55q-15 0 -28 6t-23 16t-16 23q-6 15 -6 29z" />
<glyph d="M-1083 -234q0 15 5.5 28t16 23.5t23.5 16t28 5.5h173q15 0 29 -5.5t24 -16t16 -23.5t6 -28v-74q0 -70 29 -105t94 -35q122 0 122 140v67q0 21 7.5 37.5t20 29.5t29 20.5t37.5 7.5q20 0 37 -7.5t29 -20.5t19.5 -30.5t7.5 -36.5v-67q0 -58 -16 -111.5t-52.5 -93t-96.5 -63 t-144.5 -23.5t-144.5 21.5t-98 60t-55.5 91t-17.5 118.5h-55q-15 0 -28 6t-23.5 16t-15.5 23q-6 15 -6 29z" />
<glyph d="M-602 -254q0 29 12 56t32.5 47t46.5 31.5t55.5 11.5t55.5 -11.5t46.5 -31.5t31.5 -47t11 -56t-11 -55.5t-31.5 -46t-46.5 -30.5t-55.5 -11t-55.5 11t-46.5 30.5t-32.5 46t-12 55.5z" />
<glyph d="M-894 1527v91q0 20 7.5 37.5t20.5 30.5t30.5 20.5t36.5 7.5q21 0 37.5 -7.5t30 -20.5t20.5 -30.5t7 -37.5v-30h879q16 0 30.5 -6.5t25.5 -17.5t17 -24.5t6 -29.5t-6 -30t-17 -24.5t-24.5 -17t-31.5 -6.5h-974q-20 0 -37 8t-30 20.5t-20 30.5q-8 16 -8 36z" />
<glyph d="M-651 1991v163q0 20 7 38t20.5 30.5t31 19t36.5 6.5q20 0 37 -6.5t30 -19t20.5 -30t7.5 -38.5v-163q0 -20 -7.5 -37.5t-20.5 -30.5t-30.5 -19.5t-36.5 -6.5q-21 0 -37.5 6.5t-30 19.5t-20.5 30.5t-7 37.5z" />
<glyph d="M-945 2170q0 14 6 27t16.5 23.5t23.5 16.5q14 6 29 6h139q14 0 28 -6t24 -16.5t16 -23.5t6 -27v-110q114 0 183.5 36.5t96.5 103.5q6 18 19 30.5t28 19.5t32.5 7t35 -6t29 -17.5t18 -27t7.5 -32t-5 -34.5q-19 -46 -56.5 -88.5t-94 -73t-131 -48t-168.5 -17.5h-87 q-15 0 -29 5.5t-24 16t-16 23.5t-6 28v111h-45q-15 0 -28.5 5t-24 14.5t-16.5 23.5q-6 15 -6 30z" />
<glyph d="M-946 1987q0 51 16 90.5t41.5 66t58.5 41t65 14.5q45 0 82.5 -22.5t54.5 -59.5q18 34 56 58t87 24q28 0 53.5 -10.5t46.5 -29.5t36 -46t21 -62q11 9 22 24.5t21.5 34.5t19 40t12.5 44q3 18 13.5 30.5t24.5 19.5t30 9.5t30 -2.5q16 -4 28.5 -13.5t20.5 -24t10.5 -30.5 t-0.5 -31q-11 -44 -32.5 -85t-51.5 -73t-65 -54t-72 -30h-77q-24 0 -43 15t-24 39q-3 14 -7 27.5t-10.5 24t-15 16.5t-23.5 6q-19 0 -30 -11.5t-11 -40.5q0 -15 -5.5 -26.5t-15 -21t-22 -15t-25.5 -5.5q-15 0 -26.5 5.5t-21 15t-14.5 20.5q-7 12 -7 27q0 8 -3 18.5t-8 17.5 t-13 11.5t-20 4.5q-23 0 -36 -19t-13 -57q0 -17 -8 -30.5t-21.5 -22t-30 -11.5t-31.5 -1q-32 5 -49.5 29.5t-17.5 60.5z" />
<glyph d="M-850 2140q0 31 20.5 52t52.5 21h126v79q0 21 7 38.5t20.5 30.5t31 19.5t36.5 6.5q20 0 37 -6.5t30 -19.5t20.5 -30.5t7.5 -38.5v-79h125q16 0 30 -5.5t23.5 -16t14.5 -23.5t5 -29q0 -31 -20.5 -52t-52.5 -21h-125v-79q0 -20 -7.5 -38.5t-20.5 -31t-30.5 -19t-36.5 -6.5 q-21 0 -37.5 6.5t-30 19t-20.5 30t-7 39.5v79h-126q-16 0 -30 6t-23.5 15.5t-14.5 22.5q-5 16 -5 30z" />
<glyph d="M-864 1527v91q0 20 7 37.5t20.5 30.5t31 20.5t37.5 7.5t37 -7.5t29.5 -20.5t20.5 -30.5t8 -37.5v-30h728q17 0 31.5 -6.5t25.5 -17.5t16.5 -24.5t5.5 -29.5t-5.5 -30t-16.5 -24.5t-25 -17t-32 -6.5h-823q-20 0 -37.5 8t-31 20.5t-20.5 30.5q-7 16 -7 36z" />
<glyph d="M-858 2155q0 15 5.5 28t16 23t23.5 16t28 6h140q14 0 27.5 -6t23.5 -16t16 -23t6 -28v-110q114 0 184.5 36.5t98.5 104.5q6 17 17.5 29.5t27.5 20t33 7.5t34.5 -6t29 -17.5t18 -27t7.5 -32.5q-1 -17 -6 -34q-19 -47 -56.5 -89.5t-93 -73t-130.5 -47.5q-77 -18 -170 -18 h-88q-14 0 -27.5 6t-23.5 16t-16 23t-6 28v111h-46q-15 0 -28 5t-23.5 14.5t-16.5 23.5q-5 15 -5 30z" />
<glyph d="M-809 1972q0 52 16 91t41.5 65.5t58.5 41t65 14.5q45 0 82.5 -22.5t54.5 -59.5q18 34 56 58t88 24q27 0 52.5 -10t47 -29t36 -46t20.5 -62q11 8 22 23.5t21.5 34.5t19 40t13.5 45q3 17 13 29.5t24 20t30 9.5t30 -2q17 -5 29 -14.5t20 -24t10.5 -30.5t-0.5 -31 q-10 -43 -33 -87t-53.5 -77.5t-67 -55.5t-74.5 -22h-70q-23 0 -42 15.5t-25 38.5q-3 15 -6.5 28t-10 24t-15.5 17t-24 6q-19 0 -29.5 -12t-10.5 -41q0 -15 -6 -26.5t-15.5 -21t-22 -14.5t-25.5 -5q-15 0 -26.5 5t-21 14.5t-14.5 21.5q-7 11 -7 26q0 9 -3 19t-8 17.5t-13 12 t-20 4.5q-23 0 -36 -19t-13 -57q0 -18 -8 -31t-21.5 -22t-30 -12t-31.5 -1q-32 6 -49.5 30t-17.5 60z" />
<glyph d="M-1077 1508q0 16 5.5 30t16.5 25t25 17t31 6h815q16 0 30.5 -6t25.5 -17t17 -25t6 -30q0 -32 -23 -54q-24 -22 -56 -22h-815q-32 0 -55 21.5t-23 54.5z" />
<glyph d="M-1077 1508q0 16 5.5 30t16.5 25t25 17t31 6h688v106q0 21 8 37.5t20.5 29.5t29.5 21q16 7 37 7q20 0 37.5 -7.5t31 -20.5t20.5 -30.5t7 -36.5v-184q0 -32 -22 -54q-24 -22 -57 -22h-800q-32 0 -55 21.5t-23 54.5z" />
<glyph d="M-1077 1508q0 16 5.5 30t16.5 25t25 17t31 6h523q-3 11 -3 21.5v18.5q0 41 15.5 76t41.5 61.5t62 42t77 15.5t76 -15.5t61 -42t40.5 -61.5t14.5 -76q0 -40 -14.5 -75.5t-40.5 -61.5t-62 -41q-34 -16 -75 -16h-716q-32 0 -55 21.5t-23 54.5zM-362 1626q0 -14 6 -28.5 t17.5 -24t25.5 -15.5q15 -6 30 -6q14 0 29 6t25 15.5t16 24t6 28.5q0 18 -6 32t-16 25t-25 16.5t-29 5.5q-15 0 -29.5 -5.5t-26 -16.5t-17.5 -25t-6 -32z" />
<glyph d="M-1077 1508q0 16 5.5 30t16.5 25t25 17t31 6h371v106q0 21 7.5 37.5t20.5 29.5t30 21q15 7 36 7q20 0 37.5 -7.5t30 -20.5t20 -30.5t7.5 -36.5v-106h131v106q0 21 7.5 37.5t19.5 29.5t29.5 20.5t38.5 7.5q20 0 36 -7.5t29.5 -20.5t20.5 -30.5t7 -36.5v-184q0 -32 -22 -54 q-24 -22 -57 -22h-800q-32 0 -55 21.5t-23 54.5z" />
<glyph d="M-755 1991v161q0 20 8 38.5t20.5 31t30.5 19.5q16 7 36 7q21 0 38.5 -7t30.5 -19.5t20 -30.5q7 -19 7 -39v-161q0 -20 -7 -37.5t-20 -30.5t-30.5 -20.5t-38.5 -7.5q-20 0 -37 7.5t-29.5 20.5t-20.5 30.5t-8 37.5z" />
<glyph d="M-953 2140q0 31 20 52q22 21 54 21h124v79q0 21 8 38.5t20.5 30.5t30.5 20q16 6 36 6q21 0 38.5 -6.5t30.5 -19.5t20 -30.5t7 -38.5v-79h126q16 0 29 -5.5t22.5 -16t15.5 -23.5t6 -29q0 -31 -20.5 -52t-52.5 -21h-126v-79q0 -20 -7 -38.5t-20 -31t-30.5 -19t-38.5 -6.5 q-20 0 -37 6.5t-29.5 19t-20.5 30t-8 39.5v79h-124q-16 0 -30 6t-24 15.5t-15 22.5q-5 16 -5 30z" />
</font>
</defs>
</svg>
